<svg width="104" height="104" viewBox="0 0 104 104" fill="none" xmlns="http://www.w3.org/2000/svg">
    <rect width="104" height="104" rx="15" fill="url(#paint0_linear_0_1)"/>
    <rect x="0.5" y="0.5" width="103" height="103" rx="14.5" stroke="white" stroke-opacity="0.2"/>
    <g clip-path="url(#clip0_0_1)">
        <path d="M83.1102 52.5605H58.717L57.5324 51.9782C56.6377 51.5405 55.8217 50.9706 55.0968 50.3057L62.2793 43.1449C62.4408 42.9839 62.4408 42.7237 62.2793 42.5626C62.1177 42.4016 61.8568 42.4016 61.6952 42.5626L54.5127 49.7234C53.8459 49.0008 53.2742 48.1913 52.8352 47.2952L52.2511 46.11V20.5887C52.2511 20.3616 52.0647 20.1758 51.8369 20.1758C51.6091 20.1758 51.4227 20.3616 51.4227 20.5887V46.1141L50.8428 47.2952C50.4037 48.1872 49.8321 49.0008 49.1652 49.7234L41.9827 42.5626C41.8212 42.4016 41.5602 42.4016 41.3987 42.5626C41.2371 42.7237 41.2371 42.9839 41.3987 43.1449L48.5812 50.3057C47.8563 50.9706 47.0444 51.5405 46.1456 51.9782L44.9609 52.5605H20.5636C20.3358 52.5605 20.1494 52.7464 20.1494 52.9735C20.1494 53.2006 20.3358 53.3864 20.5636 53.3864H44.9568L46.1414 53.9687C47.0362 54.4065 47.8522 54.9764 48.577 55.6412L41.3945 62.8021C41.233 62.9631 41.233 63.2233 41.3945 63.3843C41.4774 63.4669 41.5809 63.5041 41.6886 63.5041C41.7963 63.5041 41.8999 63.4628 41.9827 63.3843L49.1652 56.2235C49.8321 56.9462 50.4037 57.7556 50.8428 58.6518L51.4227 59.8328V88.3151C51.4227 88.5422 51.6091 88.728 51.8369 88.728C52.0647 88.728 52.2511 88.5422 52.2511 88.3151V59.8328L52.8352 58.6476C53.2742 57.7556 53.8459 56.9421 54.5127 56.2194L61.6952 63.3802C61.7781 63.4628 61.8816 63.5 61.9893 63.5C62.097 63.5 62.2006 63.4587 62.2834 63.3802C62.445 63.2192 62.445 62.959 62.2834 62.7979L55.1009 55.6371C55.8258 54.9722 56.6377 54.4023 57.5365 53.9646L58.7212 53.3823H83.1143C83.3422 53.3823 83.5286 53.1965 83.5286 52.9694C83.5286 52.7422 83.3422 52.5564 83.1143 52.5564L83.1102 52.5605Z" fill="white"/>
        <path d="M51.8364 17.7551C52.5227 17.7551 53.079 17.2005 53.079 16.5162C53.079 15.832 52.5227 15.2773 51.8364 15.2773C51.1501 15.2773 50.5938 15.832 50.5938 16.5162C50.5938 17.2005 51.1501 17.7551 51.8364 17.7551Z" fill="white"/>
        <g filter="url(#filter0_f_0_1)">
            <ellipse cx="51.674" cy="53.3039" rx="6.175" ry="6.175" fill="white" fill-opacity="0.5"/>
        </g>
    </g>
    <defs>
        <filter id="filter0_f_0_1" x="39.499" y="41.1289" width="24.3496" height="24.3516" filterUnits="userSpaceOnUse" color-interpolation-filters="sRGB">
            <feFlood flood-opacity="0" result="BackgroundImageFix"/>
            <feBlend mode="normal" in="SourceGraphic" in2="BackgroundImageFix" result="shape"/>
            <feGaussianBlur stdDeviation="3" result="effect1_foregroundBlur_0_1"/>
        </filter>
        <linearGradient id="paint0_linear_0_1" x1="52" y1="0" x2="52" y2="104" gradientUnits="userSpaceOnUse">
            <stop stop-color="#171717"/>
            <stop offset="1" stop-color="#1D2A4D"/>
        </linearGradient>
        <clipPath id="clip0_0_1">
            <rect x="20.1494" y="15.2773" width="63.375" height="73.45" rx="15" fill="white"/>
        </clipPath>
    </defs>
</svg>
