<svg xmlns="http://www.w3.org/2000/svg" width="16" height="17" viewBox="0 0 16 17" fill="none">
    <path d="M2.9071 4.29663L5.44377 6.52863L7.70377 3.74596C7.76706 3.66817 7.84707 3.60566 7.93787 3.56308C8.02866 3.5205 8.12789 3.49895 8.22817 3.50004C8.32845 3.50113 8.42719 3.52483 8.51703 3.56937C8.60688 3.61391 8.68552 3.67815 8.7471 3.7573L10.9038 6.52796L13.5224 4.26396C13.6253 4.17524 13.7528 4.12004 13.8878 4.10575C14.0229 4.09147 14.1591 4.11878 14.2782 4.18403C14.3973 4.24928 14.4937 4.34936 14.5544 4.47087C14.6151 4.59239 14.6372 4.72953 14.6178 4.86396L13.6178 11.762H2.82244L1.8071 4.8953C1.78694 4.76012 1.8088 4.62201 1.86974 4.49968C1.93067 4.37734 2.02774 4.27669 2.14778 4.21136C2.26783 4.14602 2.40505 4.11916 2.54087 4.13442C2.67669 4.14967 2.80454 4.2063 2.9071 4.29663ZM2.87444 12.4286H13.5411V13.0953C13.5411 13.2721 13.4709 13.4417 13.3458 13.5667C13.2208 13.6917 13.0512 13.762 12.8744 13.762H3.5411C3.36429 13.762 3.19472 13.6917 3.0697 13.5667C2.94468 13.4417 2.87444 13.2721 2.87444 13.0953V12.4286Z" fill="white"/>
</svg>