<svg xmlns="http://www.w3.org/2000/svg" width="486" height="455" viewBox="0 0 486 455" fill="none">
    <path d="M84.3765 452.975L218.472 278.775L229.091 273.476C237.096 269.463 245.601 266.729 254.275 265.162L265.294 355.331C265.542 357.359 267.377 358.771 269.4 358.492C271.424 358.213 272.859 356.349 272.611 354.321L261.593 264.152C270.355 263.313 279.206 263.626 287.94 265.355L299.509 267.619L479.501 406.172C481.103 407.405 483.438 407.083 484.691 405.456C485.943 403.829 485.657 401.489 484.055 400.256L304.034 261.68L298.893 251.127C295.015 243.149 292.42 234.65 290.989 225.964L380.976 213.547C383 213.267 384.434 211.404 384.186 209.376C383.939 207.348 382.104 205.935 380.08 206.215L290.093 218.632C289.389 209.846 289.833 200.954 291.687 192.158L294.092 180.537L428.21 6.30738C429.463 4.68044 429.177 2.34043 427.575 1.10734C425.973 -0.125731 423.638 0.196511 422.385 1.82345L288.29 176.024L277.671 181.323C269.666 185.336 261.161 188.069 252.487 189.636L241.468 99.4677C241.22 97.4396 239.385 96.0272 237.361 96.3065C236.324 96.4497 235.492 96.9875 234.9 97.7566C234.308 98.5257 234.03 99.4894 234.128 100.507L245.147 190.675C236.384 191.514 227.533 191.202 218.799 189.473L207.282 187.202L6.40719 32.5739C4.80533 31.3408 2.47001 31.663 1.21764 33.29C-0.0347366 34.9169 0.251239 37.2569 1.85309 38.49L202.727 193.118L207.876 203.724C211.753 211.702 214.348 220.2 215.779 228.886L125.793 241.304C124.755 241.447 123.923 241.985 123.331 242.754C122.739 243.523 122.461 244.486 122.559 245.504C122.807 247.532 124.642 248.944 126.666 248.665L216.652 236.248C217.357 245.034 216.913 253.926 215.059 262.721L212.653 274.343L78.558 448.543C77.3056 450.17 77.5915 452.51 79.1934 453.743C80.7953 454.976 83.1305 454.654 84.3829 453.027L84.3765 452.975Z" fill="#56C9CC"/>
</svg>