<svg width="360" height="300" viewBox="0 0 360 300" fill="none" xmlns="http://www.w3.org/2000/svg">
<path d="M30.5859 89.8633V92.6055H25.6992V108.953H22.3594V77.4883H25.6992V89.8633H30.5859ZM5.66016 80.5469V98.2656C10.0547 98.2656 14.6426 97.8965 19.6523 96.8594L20.0391 99.6719C14.6602 100.762 9.66797 101.043 4.95703 101.043H2.35547V80.5469H5.66016ZM41.7305 79.4922C46.582 79.4922 50.2031 82.5508 50.2031 86.9805C50.2031 90.8828 47.3906 93.7129 43.418 94.3281V99.3203C46.2129 99.1973 49.0078 98.9863 51.6094 98.6523L51.8555 101.148C45.2109 102.309 37.8633 102.344 32.4141 102.309L31.8867 99.5664C34.3301 99.5488 37.1426 99.5312 40.0781 99.4609V94.3281C36 93.748 33.2227 90.9004 33.2578 86.9805C33.2227 82.5508 36.7734 79.4922 41.7305 79.4922ZM41.7305 82.3047C38.707 82.3398 36.4922 84.168 36.4922 86.9805C36.4922 89.793 38.707 91.6562 41.7305 91.6211C44.7188 91.6562 46.8984 89.793 46.9336 86.9805C46.8984 84.168 44.7188 82.3398 41.7305 82.3047ZM56.8477 77.4883V90.2852H61.6992V93.0977H56.8477V108.988H53.5078V77.4883H56.8477ZM98.2969 77.5234V100.727H94.957V77.5234H98.2969ZM99.2461 105.613V108.32H77.6953V98.582H81.0703V105.613H99.2461ZM83.8828 84.8359C83.8828 88.7734 86.9062 92.4297 91.793 93.8711L90.1758 96.5078C86.4844 95.3652 83.707 92.9922 82.3008 89.9336C80.877 93.2559 78.0996 95.8398 74.3555 97.0352L72.7031 94.4336C77.5898 92.8867 80.543 89.0195 80.543 84.8359V84.2031H73.5469V81.5312H80.543V77.6289H83.918V81.5312H90.8438V84.2031H83.8828V84.8359ZM128.355 79.457V82.2344C128.355 85.2227 128.355 88.457 127.477 92.957H132.012V95.6992H119.25V109.023H115.875V95.6992H103.289V92.957H124.102C125.051 88.4746 125.051 85.1699 125.051 82.2344V82.1992H106.805V79.457H128.355ZM163.16 90.3906V93.0625H134.402V90.3906H163.16ZM159.75 85.4336V88.1055H138.164V78.4023H159.434V81.1094H141.504V85.4336H159.75ZM159.504 95.5586V103.188H141.152V106H160.383V108.637H137.883V100.727H156.199V98.125H137.848V95.5586H159.504ZM175.781 79.7383C180.773 79.7031 184.324 82.7969 184.359 87.2266C184.324 91.6562 180.773 94.75 175.781 94.75C170.824 94.75 167.168 91.6562 167.203 87.2266C167.168 82.7969 170.824 79.7031 175.781 79.7383ZM175.781 82.6211C172.723 82.6211 170.473 84.4492 170.508 87.2266C170.473 90.0039 172.723 91.832 175.781 91.832C178.84 91.832 181.09 90.0039 181.09 87.2266C181.09 84.4492 178.84 82.6211 175.781 82.6211ZM191.566 77.4883V109.059H188.227V77.4883H191.566ZM165.691 99.4961C171.422 99.4961 179.367 99.4258 186.258 98.4414L186.504 100.867C179.367 102.238 171.738 102.273 166.113 102.273L165.691 99.4961ZM232.488 77.4883V108.988H229.324V77.4883H232.488ZM225.844 78.2969V107.441H222.68V92.8164H216.527C214.646 96.4727 211.658 99.6719 207.211 102.273L205.312 99.8828C211.992 95.9102 215.209 90.6191 215.789 84.1328H206.789V81.3906H219.094C219.076 84.4668 218.654 87.4023 217.688 90.1445H222.68V78.2969H225.844ZM248.098 85.5039C248.062 91.2695 251.543 97.0352 256.43 99.2148L254.426 101.852C250.805 100.129 247.939 96.5957 246.48 92.2891C245.004 96.8945 242.104 100.709 238.324 102.555L236.285 99.7422C241.242 97.5273 244.723 91.5156 244.723 85.5039V80.125H248.098V85.5039ZM262.617 77.4883V109.059H259.277V77.4883H262.617ZM296.367 90.5312V93.2031H283.641V95.9453H292.746V103.328H274.395V106.105H293.625V108.672H271.125V100.902H289.441V98.5117H271.09V95.9453H280.301V93.2031H267.645V90.5312H296.367ZM292.676 78.5078V88.2109H271.336V78.5078H292.676ZM274.605 81.1445V85.5742H289.336V81.1445H274.605ZM325.863 77.4883V108.988H322.664V77.4883H325.863ZM319.465 78.0859V107.441H316.266V92.2539H312.715C312.434 98.4062 309.797 102.238 305.895 102.203C301.781 102.238 299.109 97.9141 299.109 91.0938C299.109 84.2734 301.781 79.9844 305.895 80.0195C309.727 79.9844 312.328 83.623 312.715 89.5469H316.266V78.0859H319.465ZM305.895 83.1484C303.609 83.1484 302.203 86.0664 302.203 91.0938C302.203 96.1211 303.609 99.0391 305.895 99.0391C308.215 99.0391 309.656 96.1211 309.656 91.0938C309.656 86.0664 308.215 83.1484 305.895 83.1484ZM179.859 133.387C186.469 133.387 191.496 136.867 191.496 142.176C191.496 147.484 186.469 151 179.859 150.965C173.25 151 168.258 147.484 168.258 142.176C168.258 136.867 173.25 133.387 179.859 133.387ZM179.859 136.094C175.043 136.059 171.422 138.52 171.457 142.176C171.422 145.867 175.043 148.223 179.859 148.223C184.676 148.223 188.262 145.867 188.262 142.176C188.262 138.52 184.676 136.059 179.859 136.094ZM194.344 156.133V158.91H165.516V156.133H194.344ZM225.457 156.414V159.227H196.629V156.414H209.32V150.895H200.145V140.875H218.637V136.445H200.074V133.703H221.941V143.547H203.449V148.152H222.68V150.895H212.625V156.414H225.457ZM27.2461 185.488V201.695H23.9414V185.488H27.2461ZM27.2812 203.207V211.082H9.91406V214H28.3359V216.672H6.67969V208.551H23.9766V205.844H6.57422V203.207H27.2812ZM12.6211 188.758C12.5859 192.977 15.6445 196.809 20.4609 198.32L18.8086 200.922C15.1348 199.727 12.375 197.23 10.9688 194.031C9.52734 197.477 6.71484 200.219 2.95312 201.52L1.26562 198.883C6.1875 197.23 9.21094 193.117 9.21094 188.758V186.332H12.6211V188.758ZM43.8398 193.504C43.8047 199.27 47.2852 205.035 52.1719 207.215L50.168 209.852C46.5469 208.129 43.6816 204.596 42.2227 200.289C40.7461 204.895 37.8457 208.709 34.0664 210.555L32.0273 207.742C36.9844 205.527 40.4648 199.516 40.4648 193.504V188.125H43.8398V193.504ZM58.3594 185.488V217.059H55.0195V185.488H58.3594ZM88.1367 185.488V194.805H92.707V197.582H88.1367V208.375H84.7617V185.488H88.1367ZM79.5938 187.879C79.5938 196.141 73.9688 202.152 64.7578 204.93L63.3516 202.258C70.7168 200.043 75.3047 195.859 75.9727 190.656H64.6875V187.879H79.5938ZM89.4375 213.613V216.32H68.1328V206.02H71.5078V213.613H89.4375ZM108.844 187.387C115.453 187.387 120.48 190.867 120.48 196.176C120.48 201.484 115.453 205 108.844 204.965C102.234 205 97.2422 201.484 97.2422 196.176C97.2422 190.867 102.234 187.387 108.844 187.387ZM108.844 190.094C104.027 190.059 100.406 192.52 100.441 196.176C100.406 199.867 104.027 202.223 108.844 202.223C113.66 202.223 117.246 199.867 117.246 196.176C117.246 192.52 113.66 190.059 108.844 190.094ZM123.328 210.133V212.91H94.5V210.133H123.328ZM154.441 210.414V213.227H125.613V210.414H138.305V204.895H129.129V194.875H147.621V190.445H129.059V187.703H150.926V197.547H132.434V202.152H151.664V204.895H141.609V210.414H154.441ZM194.344 210.238V212.98H165.516V210.238H178.137V202.75H181.441V210.238H194.344ZM181.512 189.883C181.512 194.875 186.996 199.551 193.078 200.57L191.637 203.312C186.539 202.293 181.846 199.146 179.754 194.805C177.68 199.129 173.039 202.328 167.977 203.312L166.5 200.57C172.547 199.551 177.996 194.875 177.996 189.883V187.492H181.512V189.883ZM225.352 202.047V204.684H196.559V202.047H209.285V199.305H200.32V186.332H221.836V188.969H203.695V191.535H221.027V194.031H203.695V196.703H222.047V199.305H212.625V202.047H225.352ZM210.973 206.758C217.898 206.723 221.836 208.551 221.836 211.855C221.836 215.195 217.898 216.953 210.973 216.918C203.977 216.953 200.039 215.195 200.039 211.855C200.039 208.551 203.977 206.723 210.973 206.758ZM210.973 209.254C206.016 209.254 203.344 210.168 203.379 211.855C203.344 213.543 206.016 214.422 210.973 214.387C215.859 214.422 218.496 213.543 218.496 211.855C218.496 210.168 215.859 209.254 210.973 209.254ZM243.316 190.691V193.398H227.672V190.691H233.859V186.402H237.164V190.691H243.316ZM235.512 195.297C239.52 195.297 242.332 198.285 242.367 202.539C242.332 206.828 239.52 209.852 235.512 209.852C231.574 209.852 228.656 206.828 228.691 202.539C228.656 198.285 231.574 195.297 235.512 195.297ZM235.512 198.074C233.227 198.074 231.645 199.938 231.645 202.539C231.645 205.211 233.227 207.004 235.512 207.004C237.762 207.004 239.414 205.211 239.414 202.539C239.414 199.938 237.762 198.074 235.512 198.074ZM254.707 185.488V216.988H251.543V201.344H247.922V215.512H244.758V186.191H247.922V198.602H251.543V185.488H254.707ZM296.473 210.309V213.086H267.645V210.309H280.336V203.84H270.949V187.633H274.289V193.047H289.758V187.633H293.062V203.84H283.641V210.309H296.473ZM274.289 201.133H289.758V195.754H274.289V201.133ZM308.355 194.102C308.355 199.129 310.465 204.508 314.684 207.074L312.82 209.641C309.867 207.865 307.863 204.719 306.809 201.062C305.631 205.07 303.469 208.48 300.41 210.344L298.336 207.848C302.801 205.176 305.121 199.621 305.121 194.242V188.371H308.355V194.102ZM325.863 185.488V216.988H322.664V185.488H325.863ZM319.324 186.086V215.441H316.16V199.34H311.273V196.562H316.16V186.086H319.324ZM358.699 210.273V213.051H329.871V210.273H336.762V202.047C334.178 200.623 332.613 198.355 332.613 195.543C332.613 190.586 337.465 187.316 344.215 187.316C351 187.316 355.852 190.586 355.852 195.543C355.852 198.32 354.34 200.553 351.809 201.977V210.273H358.699ZM344.215 189.988C339.258 189.988 335.848 192.133 335.848 195.543C335.848 198.918 339.258 201.133 344.215 201.133C349.137 201.133 352.617 198.918 352.617 195.543C352.617 192.133 349.137 189.988 344.215 189.988ZM340.066 210.273H348.434V203.242C347.15 203.576 345.727 203.734 344.215 203.734C342.738 203.734 341.332 203.576 340.066 203.277V210.273Z" fill="white"/>
<path d="M14.6602 134.16V136.867H5.80078V145.691C9.73828 145.656 12.6738 145.48 15.9961 144.812L16.3125 147.555C12.4805 148.258 9.24609 148.434 4.57031 148.434H2.49609V134.16H14.6602ZM28.0195 131.488V152.266H24.8555V142.246H20.9883V149.523H17.8594V132.051H20.9883V139.504H24.8555V131.488H28.0195ZM19.0195 151.949C19.0195 155.852 23.6953 159.367 29.6367 160.246L28.2305 162.848C23.4316 162.004 19.2832 159.613 17.3672 156.238C15.416 159.613 11.2676 162.004 6.46875 162.848L5.0625 160.246C11.0039 159.367 15.6797 155.852 15.6797 151.949V150.789H19.0195V151.949ZM57.4453 132.824V134.898C57.4453 136.99 57.4453 139.627 56.7773 143.055H61.1016V145.727H32.2734V143.055H53.4375C54.0703 139.855 54.1406 137.447 54.1406 135.496H35.8945V132.824H57.4453ZM57.4805 148.539V156.801H39.0234V160H58.2891V162.672H35.6836V154.234H54.1758V151.211H35.6484V148.539H57.4805ZM80.9297 134.863V136.797C80.9297 139.434 80.9297 143.512 80.0156 149.137L76.7109 148.891C77.502 143.846 77.5898 140.207 77.625 137.57H64.8281V134.863H80.9297ZM72.8438 143.863V153.285C76.2012 153.18 79.6113 152.951 82.7578 152.547L82.9336 155.043C76.3594 156.098 69.0469 156.238 63.457 156.203L63.0703 153.496C65.0391 153.479 67.2363 153.461 69.5391 153.391V143.863H72.8438ZM87.9258 131.488V144.496H92.7422V147.344H87.9258V162.988H84.5508V131.488H87.9258ZM128.039 131.488V138.062H132.609V140.84H128.039V147.414H124.699V131.488H128.039ZM128.039 148.855V156.836H111.023V159.93H129.129V162.602H107.754V154.34H124.734V151.457H107.684V148.855H128.039ZM112.043 132.578C116.824 132.578 120.305 135.461 120.305 139.609C120.305 143.758 116.824 146.641 112.043 146.641C107.262 146.641 103.746 143.758 103.781 139.609C103.746 135.461 107.262 132.578 112.043 132.578ZM112.043 135.32C109.125 135.32 107.016 137.043 107.016 139.609C107.016 142.176 109.125 143.969 112.043 143.969C114.926 143.969 117.07 142.176 117.07 139.609C117.07 137.043 114.926 135.32 112.043 135.32ZM160.523 131.523V150.191H157.184V131.523H160.523ZM150.469 133.387V142.246H139.324V146.043C144.826 146.061 148.887 145.867 153.668 145.094L154.09 147.836C148.957 148.645 144.633 148.82 138.691 148.785H136.055V139.645H147.164V136.059H135.984V133.387H150.469ZM160.523 151.773V162.602H139.816V151.773H160.523ZM143.121 154.445V159.895H157.254V154.445H143.121Z" fill="#56C9CC"/>
<path d="M14.2656 265.344V266.375H8.46875V271.266H7.26562V266.375H1.54688V265.344H14.2656ZM7.875 257.938C10.7969 257.938 12.7656 259.109 12.7656 261C12.7656 262.844 10.7969 264.016 7.875 264.016C4.95312 264.016 2.98438 262.844 2.98438 261C2.98438 259.109 4.95312 257.938 7.875 257.938ZM7.875 258.938C5.70312 258.938 4.23438 259.75 4.25 261C4.23438 262.234 5.70312 263.031 7.875 263.031C10.0312 263.031 11.5156 262.234 11.5156 261C11.5156 259.75 10.0312 258.938 7.875 258.938ZM26.8594 257.375V271.297H25.6406V257.375H26.8594ZM22.6406 258.672V263.609H17.4531V266.891C19.7578 266.891 21.8125 266.789 24.2969 266.391L24.4219 267.422C21.8594 267.828 19.75 267.922 17.3594 267.922H16.2031V262.609H21.4062V259.688H16.1719V258.672H22.6406ZM36.2344 258.641V265.031H29.8125V258.641H36.2344ZM31.0156 259.641V264.047H35.0469V259.641H31.0156ZM40.0781 257.375V261.609H42.1719V262.641H40.0781V267.562H38.8594V257.375H40.0781ZM40.7188 269.938V270.969H31.3906V266.594H32.5938V269.938H40.7188ZM54.5 257.375V271.297H53.2656V257.375H54.5ZM47.1094 258.453C49.1719 258.469 50.6562 260.344 50.6562 263.297C50.6562 266.25 49.1719 268.125 47.1094 268.125C45.0312 268.125 43.5625 266.25 43.5625 263.297C43.5625 260.344 45.0312 258.469 47.1094 258.453ZM47.1094 259.547C45.7188 259.562 44.75 261.031 44.75 263.297C44.75 265.562 45.7188 267.031 47.1094 267.031C48.5 267.031 49.4688 265.562 49.4688 263.297C49.4688 261.031 48.5 259.562 47.1094 259.547ZM64.6094 258.453C66.6562 258.469 68.1094 260.344 68.125 263.297C68.1094 266.25 66.6562 268.125 64.6094 268.125C62.5469 268.125 61.1094 266.25 61.1094 263.297C61.1094 260.344 62.5469 258.469 64.6094 258.453ZM64.6094 259.547C63.2344 259.562 62.2656 261.031 62.2656 263.297C62.2656 265.562 63.2344 267.031 64.6094 267.031C66 267.031 66.9375 265.562 66.9375 263.297C66.9375 261.031 66 259.562 64.6094 259.547ZM71.6406 257.375V262.922H73.9688V263.984H71.6406V271.266H70.4219V257.375H71.6406ZM85.9531 261.594V262.578H76.4375V257.891H77.6562V261.594H85.9531ZM87.4219 264.469V265.469H74.7031V264.469H87.4219ZM86.0312 269.906V270.922H76.3594V266.891H77.5781V269.906H86.0312ZM104.031 266.125V271.297H102.812V267.156H94.6875V266.125H104.031ZM104.031 257.391V265.422H102.812V257.391H104.031ZM94.6719 258.172V263.266C96.7656 263.258 98.9297 263.102 101.234 262.625L101.422 263.656C98.9688 264.125 96.7656 264.297 94.5625 264.297H93.4375V258.172H94.6719ZM108.297 258.891V266.672C109.797 266.656 111.219 266.57 112.891 266.219L113.062 267.281C111.203 267.672 109.656 267.75 107.953 267.75H107.078V258.891H108.297ZM118.281 257.375V271.266H117.109V257.375H118.281ZM115.312 257.719V270.562H114.141V263.078H110.969V262.062H114.141V257.719H115.312ZM131.688 257.391V265.328H130.469V257.391H131.688ZM131.688 266.078V271.078H122.656V266.078H131.688ZM123.859 267.078V270.078H130.484V267.078H123.859ZM124.188 258.125C126.297 258.125 127.828 259.438 127.828 261.375C127.828 263.281 126.297 264.609 124.188 264.609C122.078 264.609 120.547 263.281 120.547 261.375C120.547 259.438 122.078 258.125 124.188 258.125ZM124.188 259.172C122.766 259.156 121.734 260.078 121.75 261.375C121.734 262.656 122.766 263.562 124.188 263.562C125.594 263.562 126.625 262.656 126.625 261.375C126.625 260.078 125.594 259.156 124.188 259.172ZM140.375 258.281C143.281 258.281 145.453 259.797 145.453 262.094C145.453 264.406 143.281 265.922 140.375 265.906C137.469 265.922 135.297 264.406 135.297 262.094C135.297 259.797 137.469 258.281 140.375 258.281ZM140.375 259.281C138.141 259.266 136.453 260.438 136.469 262.094C136.453 263.781 138.141 264.906 140.375 264.906C142.594 264.906 144.266 263.781 144.266 262.094C144.266 260.438 142.594 259.266 140.375 259.281ZM146.766 268.391V269.422H134.047V268.391H146.766ZM160.594 268.516V269.547H147.875V268.516H153.594V265.891H149.469V261.609H157.781V259.422H149.438V258.406H158.984V262.609H150.688V264.875H159.312V265.891H154.797V268.516H160.594ZM177.188 257.391V267.656H175.969V257.391H177.188ZM177.625 269.938V270.969H168.219V266.703H169.438V269.938H177.625ZM170.766 260.625C170.766 262.469 172.25 264.094 174.328 264.734L173.719 265.719C172.086 265.195 170.797 264.086 170.172 262.641C169.562 264.195 168.281 265.398 166.625 265.969L166 265C168.078 264.328 169.547 262.578 169.547 260.625V260.25H166.344V259.266H169.547V257.453H170.781V259.266H173.953V260.25H170.766V260.625ZM190.531 258.281V259.5C190.531 260.82 190.531 262.25 190.141 264.25H192.203V265.266H186.469V271.297H185.234V265.266H179.547V264.25H188.891C189.312 262.25 189.312 260.789 189.312 259.5V259.297H181.141V258.281H190.531ZM206.047 263.219V264.203H193.375V263.219H206.047ZM204.531 261.078V262.078H195.062V257.859H204.391V258.844H196.297V261.078H204.531ZM204.406 265.453V268.672H196.156V270.109H204.828V271.109H194.938V267.75H203.203V266.406H194.906V265.453H204.406ZM214.906 258.922V259.641C214.891 260.734 214.891 262.578 214.5 265.156L213.266 265.047C213.641 262.719 213.672 261.031 213.672 259.922H207.844V258.922H214.906ZM211.266 262.891V267.109C212.805 267.055 214.383 266.953 215.828 266.781L215.891 267.703C212.969 268.156 209.703 268.219 207.219 268.203L207.062 267.188C207.977 267.18 208.992 267.172 210.062 267.141V262.891H211.266ZM217.922 257.375V263.188H220.172V264.25H217.922V271.266H216.703V257.375H217.922ZM236.984 257.375V271.266H235.797V264.047H233.906V270.562H232.734V257.672H233.906V263H235.797V257.375H236.984ZM229.156 261.172C229.156 263.719 230.203 265.953 232.188 266.969L231.453 267.922C230.047 267.156 229.086 265.781 228.594 264.078C228.117 266.016 227.141 267.531 225.672 268.391L224.906 267.453C226.906 266.359 227.969 263.984 227.969 261.172V260.062H225.234V259.031H231.734V260.062H229.156V261.172ZM243.578 266.734C243.578 267.961 244.234 269.266 245.562 270.016C246.875 269.195 247.578 267.812 247.578 266.734V265.797H248.781V266.734C248.781 268.172 249.828 269.594 251.609 270.172L251 271.109C249.609 270.617 248.633 269.648 248.156 268.484C247.727 269.609 246.875 270.672 245.594 271.219C244.242 270.703 243.383 269.68 242.969 268.516C242.477 269.641 241.516 270.609 240.188 271.109L239.562 270.172C241.312 269.547 242.375 268.062 242.391 266.734V265.797H243.578V266.734ZM246.125 258.297V264.328H239.609V258.297H246.125ZM240.812 259.297V263.344H244.922V259.297H240.812ZM250.344 257.391V265.359H249.125V257.391H250.344ZM264.594 257.375V271.266H263.422V257.375H264.594ZM261.672 257.75V270.562H260.5V264.078H257.562C256.711 265.695 255.375 267.125 253.438 268.266L252.719 267.375C255.742 265.586 257.258 263.078 257.484 260.172H253.312V259.156H258.703C258.695 260.523 258.477 261.844 258.016 263.078H260.5V257.75H261.672ZM268.781 258.688L268.672 266.812H267.359L267.25 258.688H268.781ZM268.016 270.094C267.469 270.094 267 269.641 267.016 269.078C267 268.531 267.469 268.078 268.016 268.078C268.562 268.078 269.016 268.531 269.016 269.078C269.016 269.641 268.562 270.094 268.016 270.094ZM14.2188 288.734V289.719H1.54688V288.734H14.2188ZM12.5781 291.078V295.266H11.3281V292.062H2.96875V291.078H12.5781ZM12.7188 286.438V287.391H3.23438V281.75H12.6406V282.734H4.46875V284.062H12.2656V285.016H4.46875V286.438H12.7188ZM26.8906 281.375V288.641H25.6719V286.859H22.3906V288.078H16.0938V282.031H17.3125V284.031H21.1875V282.031H22.3906V283.375H25.6719V281.375H26.8906ZM26.8906 289.312V292.578H19.1406V294.094H27.4219V295.078H17.9219V291.641H25.6719V290.297H17.8906V289.312H26.8906ZM17.3125 287.078H21.1875V285H17.3125V287.078ZM22.3906 285.891H25.6719V284.328H22.3906V285.891ZM40.0781 281.391V285.969H42.1719V287H40.0781V291.797H38.8594V281.391H40.0781ZM37.5312 283.094V284.094H29.25V283.094H32.7812V281.391H34V283.094H37.5312ZM33.3906 284.859C35.375 284.859 36.7188 285.875 36.7344 287.453C36.7188 289.016 35.375 290.016 33.3906 290.016C31.3906 290.016 30.0312 289.016 30.0469 287.453C30.0312 285.875 31.3906 284.859 33.3906 284.859ZM33.3906 285.828C32.0781 285.828 31.2031 286.469 31.2188 287.453C31.2031 288.438 32.0781 289.062 33.3906 289.047C34.6875 289.062 35.5625 288.438 35.5781 287.453C35.5625 286.469 34.6875 285.828 33.3906 285.828ZM40.7188 293.938V294.969H31.3906V290.969H32.5938V293.938H40.7188ZM54.0312 282.438C54.0312 284.25 56.5625 285.906 58.9688 286.281L58.4844 287.25C56.375 286.891 54.2891 285.719 53.4062 284.094C52.5312 285.75 50.4219 286.906 48.3125 287.266L47.8281 286.297C50.25 285.922 52.7656 284.312 52.7656 282.438V281.734H54.0312V282.438ZM59.7656 288.453V289.469H54.1094V292.312H52.8906V289.469H47.0469V288.453H59.7656ZM58.3438 293.938V294.969H48.6719V290.953H49.9062V293.938H58.3438ZM71.75 281.375V285.609H73.8438V286.641H71.75V291.547H70.5156V281.375H71.75ZM68 282.453C68 286.031 65.4375 288.688 61.4375 289.938L60.9062 288.953C64.2344 287.914 66.4062 285.93 66.6719 283.484H61.4844V282.453H68ZM72.3906 293.938V294.969H63.0469V290.516H64.2656V293.938H72.3906ZM86.625 281.375V295.266H85.4375V281.375H86.625ZM83.8281 281.672V294.562H82.6562V287.812H80.875C80.7422 290.516 79.5938 292.203 77.875 292.203C76.0625 292.203 74.8906 290.328 74.8906 287.375C74.8906 284.422 76.0625 282.547 77.875 282.547C79.5625 282.547 80.7031 284.18 80.8594 286.797H82.6562V281.672H83.8281ZM77.875 283.703C76.75 283.703 76.0312 285.109 76.0469 287.375C76.0312 289.625 76.75 291.047 77.875 291.031C79 291.047 79.7188 289.625 79.7188 287.375C79.7188 285.109 79 283.703 77.875 283.703ZM104.031 281.391V291.656H102.812V281.391H104.031ZM104.469 293.938V294.969H95.0625V290.703H96.2812V293.938H104.469ZM97.6094 284.625C97.6094 286.469 99.0938 288.094 101.172 288.734L100.562 289.719C98.9297 289.195 97.6406 288.086 97.0156 286.641C96.4062 288.195 95.125 289.398 93.4688 289.969L92.8438 289C94.9219 288.328 96.3906 286.578 96.3906 284.625V284.25H93.1875V283.266H96.3906V281.453H97.625V283.266H100.797V284.25H97.6094V284.625ZM117.375 282.281V283.5C117.375 284.82 117.375 286.25 116.984 288.25H119.047V289.266H113.312V295.297H112.078V289.266H106.391V288.25H115.734C116.156 286.25 116.156 284.789 116.156 283.5V283.297H107.984V282.281H117.375ZM132.891 287.219V288.203H120.219V287.219H132.891ZM131.375 285.078V286.078H121.906V281.859H131.234V282.844H123.141V285.078H131.375ZM131.25 289.453V292.672H123V294.109H131.672V295.109H121.781V291.75H130.047V290.406H121.75V289.453H131.25ZM140.375 281.625C143.469 281.625 145.281 282.469 145.281 284.016C145.281 285.594 143.469 286.438 140.375 286.453C137.281 286.438 135.453 285.594 135.453 284.016C135.453 282.469 137.281 281.625 140.375 281.625ZM140.375 282.547C138.062 282.547 136.719 283.109 136.734 284.016C136.719 284.984 138.062 285.516 140.375 285.516C142.672 285.516 144.031 284.984 144.031 284.016C144.031 283.109 142.672 282.547 140.375 282.547ZM146.703 287.391V288.391H134.047V287.391H146.703ZM145.078 289.594V292.703H136.828V294.141H145.5V295.109H135.609V291.797H143.875V290.531H135.578V289.594H145.078ZM163.688 281.375V291.781H162.516V281.375H163.688ZM161.031 281.656V291.375H159.859V286.328H157.906V289.062H152.531V282.719H157.906V285.297H159.859V281.656H161.031ZM164.109 293.938V294.969H154.578V290.484H155.797V293.938H164.109ZM153.688 283.703V288.094H156.766V283.703H153.688ZM170.469 283.953C170.469 285.984 171.859 287.906 173.875 288.703L173.188 289.656C171.656 289.023 170.469 287.758 169.891 286.172C169.289 287.883 168.039 289.242 166.422 289.906L165.75 288.922C167.812 288.125 169.25 286.125 169.266 283.953V282.172H170.469V283.953ZM177.234 281.391V291.766H176V287.312H173.141V286.312H176V284.469H173.141V283.453H176V281.391H177.234ZM177.547 293.938V294.969H168.25V290.688H169.484V293.938H177.547ZM186.484 283.781V284.781H179.516V283.781H182.406V281.797H183.625V283.781H186.484ZM183 285.719C184.75 285.719 186 287.031 186.016 288.875C186 290.734 184.75 292.062 183 292.062C181.266 292.062 180.016 290.734 180.016 288.875C180.016 287.031 181.266 285.719 183 285.719ZM183 286.75C181.906 286.766 181.109 287.656 181.109 288.875C181.109 290.109 181.906 291 183 290.984C184.109 291 184.922 290.109 184.922 288.875C184.922 287.656 184.109 286.766 183 286.75ZM191.375 281.375V295.266H190.203V288.25H188.359V294.578H187.203V281.719H188.359V287.234H190.203V281.375H191.375ZM210.109 292.438V293.453H197.391V292.438H203.078V289.031H204.281V292.438H210.109ZM204.312 283.391C204.312 285.719 207.062 287.75 209.484 288.172L208.938 289.188C206.82 288.758 204.586 287.32 203.688 285.312C202.773 287.312 200.555 288.758 198.438 289.188L197.891 288.172C200.312 287.75 203.031 285.719 203.031 283.391V282.328H204.312V283.391ZM223.875 288.75V289.75H211.203V288.75H216.922V287.375H212.891V281.781H222.297V282.781H214.125V284.078H221.922V285.016H214.125V286.391H222.375V287.375H218.141V288.75H223.875ZM217.547 290.797C220.594 290.781 222.312 291.562 222.328 293.016C222.312 294.469 220.594 295.234 217.547 295.234C214.469 295.234 212.75 294.469 212.75 293.016C212.75 291.562 214.469 290.781 217.547 290.797ZM217.547 291.719C215.25 291.719 213.969 292.188 213.984 293.016C213.969 293.859 215.25 294.297 217.547 294.281C219.812 294.297 221.094 293.859 221.094 293.016C221.094 292.188 219.812 291.719 217.547 291.719ZM231.984 283.781V284.781H225.016V283.781H227.906V281.797H229.125V283.781H231.984ZM228.5 285.719C230.25 285.719 231.5 287.031 231.516 288.875C231.5 290.734 230.25 292.062 228.5 292.062C226.766 292.062 225.516 290.734 225.516 288.875C225.516 287.031 226.766 285.719 228.5 285.719ZM228.5 286.75C227.406 286.766 226.609 287.656 226.609 288.875C226.609 290.109 227.406 291 228.5 290.984C229.609 291 230.422 290.109 230.422 288.875C230.422 287.656 229.609 286.766 228.5 286.75ZM236.875 281.375V295.266H235.703V288.25H233.859V294.578H232.703V281.719H233.859V287.234H235.703V281.375H236.875ZM255.609 292.469V293.484H242.891V292.469H248.609V289.469H244.391V282.359H245.625V284.875H252.844V282.359H254.047V289.469H249.812V292.469H255.609ZM245.625 288.469H252.844V285.875H245.625V288.469ZM260.844 285.328C260.844 287.531 261.922 289.922 263.766 291.016L263.062 291.969C261.727 291.156 260.766 289.672 260.281 287.984C259.766 289.828 258.734 291.414 257.344 292.266L256.562 291.344C258.484 290.219 259.656 287.75 259.656 285.375V282.688H260.844V285.328ZM268.625 281.375V295.266H267.438V281.375H268.625ZM265.75 281.672V294.562H264.594V287.406H262.234V286.359H264.594V281.672H265.75ZM283.266 292.453V293.484H270.547V292.453H273.703V288.703C272.516 288.086 271.797 287.086 271.797 285.828C271.797 283.672 273.906 282.266 276.875 282.25C279.844 282.266 281.953 283.672 281.953 285.828C281.953 287.062 281.258 288.055 280.109 288.672V292.453H283.266ZM276.875 283.266C274.594 283.25 272.984 284.281 272.984 285.828C272.984 287.375 274.594 288.422 276.875 288.422C279.141 288.422 280.766 287.375 280.766 285.828C280.766 284.281 279.141 283.25 276.875 283.266ZM274.906 292.453H278.875V289.141C278.273 289.305 277.602 289.391 276.875 289.391C276.164 289.391 275.5 289.312 274.906 289.156V292.453ZM286.625 282.688L286.516 290.812H285.203L285.094 282.688H286.625ZM285.859 294.094C285.312 294.094 284.844 293.641 284.859 293.078C284.844 292.531 285.312 292.078 285.859 292.078C286.406 292.078 286.859 292.531 286.859 293.078C286.859 293.641 286.406 294.094 285.859 294.094Z" fill="#B0B0B0"/>
<path d="M53.6436 27.3998H32.8602L31.8509 26.9071C31.0886 26.5367 30.3933 26.0546 29.7757 25.492L35.8953 19.4335C36.0329 19.2972 36.0329 19.0771 35.8953 18.9408C35.7577 18.8046 35.5353 18.8046 35.3977 18.9408L29.2781 24.9994C28.7099 24.388 28.2229 23.7031 27.8488 22.9449L27.3512 21.9422V0.349398C27.3512 0.157229 27.1923 0 26.9982 0C26.8041 0 26.6453 0.157229 26.6453 0.349398V21.9457L26.1512 22.9449C25.7771 23.6996 25.2901 24.388 24.7219 24.9994L18.6023 18.9408C18.4647 18.8046 18.2423 18.8046 18.1047 18.9408C17.9671 19.0771 17.9671 19.2972 18.1047 19.4335L24.2243 25.492C23.6067 26.0546 22.915 26.5367 22.1491 26.9071L21.1398 27.3998H0.352918C0.158813 27.3998 0 27.557 0 27.7492C0 27.9413 0.158813 28.0986 0.352918 28.0986H21.1363L22.1456 28.5912C22.9079 28.9616 23.6032 29.4437 24.2208 30.0063L18.1012 36.0648C17.9635 36.2011 17.9635 36.4212 18.1012 36.5575C18.1718 36.6273 18.26 36.6588 18.3517 36.6588C18.4435 36.6588 18.5317 36.6239 18.6023 36.5575L24.7219 30.4989C25.2901 31.1104 25.7771 31.7952 26.1512 32.5534L26.6453 33.5527V57.6506C26.6453 57.8428 26.8041 58 26.9982 58C27.1923 58 27.3512 57.8428 27.3512 57.6506V33.5527L27.8488 32.5499C28.2229 31.7952 28.7099 31.1069 29.2781 30.4954L35.3977 36.554C35.4683 36.6239 35.5565 36.6553 35.6483 36.6553C35.74 36.6553 35.8282 36.6204 35.8988 36.554C36.0365 36.4177 36.0365 36.1976 35.8988 36.0613L29.7792 30.0028C30.3968 29.4402 31.0886 28.9581 31.8544 28.5877L32.8637 28.0951H53.6471C53.8412 28.0951 54 27.9378 54 27.7457C54 27.5535 53.8412 27.3963 53.6471 27.3963L53.6436 27.3998Z" fill="#18D17B"/>
<g filter="url(#filter0_f_2977_2976)">
<circle cx="27" cy="27" r="6" fill="#18D17B" fill-opacity="0.4"/>
</g>
<defs>
<filter id="filter0_f_2977_2976" x="13" y="13" width="28" height="28" filterUnits="userSpaceOnUse" color-interpolation-filters="sRGB">
<feFlood flood-opacity="0" result="BackgroundImageFix"/>
<feBlend mode="normal" in="SourceGraphic" in2="BackgroundImageFix" result="shape"/>
<feGaussianBlur stdDeviation="4" result="effect1_foregroundBlur_2977_2976"/>
</filter>
</defs>
</svg>
