<svg width="1200" height="596" viewBox="0 0 1200 596" fill="none" xmlns="http://www.w3.org/2000/svg">
<g clip-path="url(#clip0_2977_2972)">
<rect width="1200" height="596" rx="15" fill="#232120"/>
<circle cx="600.5" cy="306.5" r="321" stroke="url(#paint0_linear_2977_2972)"/>
<circle cx="600.5" cy="306.5" r="347.25" stroke="url(#paint1_linear_2977_2972)" stroke-width="2.5"/>
<circle cx="599.5" cy="306.5" r="480.75" stroke="url(#paint2_linear_2977_2972)" stroke-width="3.5"/>
<g opacity="0.4" filter="url(#filter0_f_2977_2972)">
<circle cx="194.5" cy="603.5" r="294.5" fill="url(#paint3_radial_2977_2972)"/>
</g>
<g opacity="0.4" filter="url(#filter1_f_2977_2972)">
<circle cx="1150.5" cy="62.5" r="185.5" fill="url(#paint4_radial_2977_2972)"/>
</g>
<g filter="url(#filter2_f_2977_2972)">
<ellipse cx="450.424" cy="174.134" rx="22.0821" ry="24.775" fill="#67D9DC" fill-opacity="0.3"/>
</g>
<path d="M730.256 224.552V206.398H754.102V224.552H730.256ZM730.256 303.887V232.889H754.102V303.887H730.256Z" fill="white"/>
<path d="M714.64 231.141C716.477 231.141 718.115 231.41 719.553 231.947C720.991 232.396 721.71 232.665 721.71 232.754V255.21H714.04C709.087 255.21 705.492 256.645 703.256 259.513C701.099 262.382 700.02 266.64 700.02 272.288V303.888H676.174V232.889H695.706L697.264 243.646C698.702 239.522 700.979 236.43 704.094 234.368C707.21 232.216 710.725 231.141 714.64 231.141Z" fill="white"/>
<path d="M637.107 224.552V206.398H660.954V224.552H637.107ZM637.107 303.887V232.889H660.954V303.887H637.107Z" fill="white"/>
<path d="M600.44 232.89H628.24L604.873 261.532L628.84 303.889H601.758L588.457 279.55L580.188 288.56V303.889H556.342V206.266H580.188V260.053L600.44 232.89Z" fill="white"/>
<path d="M514.04 211.375H546.874L517.276 249.429L547.473 303.889H516.197L499.062 270.003L484.682 283.181V303.889H458.199V211.375H484.682V250.908L514.04 211.375Z" fill="white"/>
<path d="M506.742 261.311L464.732 191.294L463.978 185.356C463.662 182.805 463.656 180.24 463.932 177.715L494.497 184.325C495.352 184.51 496.171 183.876 496.333 182.906C496.495 181.936 495.936 181.005 495.081 180.82L464.516 174.21C465.072 171.745 465.896 169.348 467.018 167.119L469.63 161.909L534.287 111.955C535.003 111.402 535.188 110.293 534.7 109.48C534.212 108.666 533.235 108.455 532.519 109.008L467.873 158.954L462.643 159.803C460.397 160.158 458.137 160.162 455.912 159.845L461.696 125.152C461.857 124.182 461.299 123.25 460.444 123.066C459.589 122.881 458.769 123.514 458.608 124.484L452.824 159.177C450.653 158.543 448.541 157.604 446.576 156.328L441.983 153.355L399.959 83.3142C399.471 82.5009 398.494 82.2896 397.778 82.8426C397.062 83.3956 396.878 84.5045 397.366 85.3178L439.376 155.335L440.13 161.273C440.446 163.824 440.452 166.39 440.176 168.915L409.611 162.304C408.756 162.12 407.936 162.753 407.775 163.723C407.695 164.198 407.787 164.68 408.013 165.057C408.239 165.434 408.59 165.715 409.019 165.798L439.584 172.408C439.029 174.873 438.205 177.269 437.083 179.499L434.47 184.709L362.396 240.393C361.68 240.946 361.496 242.055 361.984 242.868C362.472 243.681 363.449 243.893 364.164 243.34L436.217 187.672L441.447 186.823C443.693 186.468 445.953 186.464 448.178 186.781L442.395 221.474C442.315 221.949 442.407 222.43 442.633 222.807C442.859 223.185 443.21 223.466 443.639 223.548C444.494 223.733 445.314 223.1 445.475 222.13L451.259 187.437C453.43 188.071 455.542 189.01 457.507 190.286L462.1 193.259L504.11 263.276C504.598 264.089 505.575 264.3 506.291 263.747C507.006 263.194 507.191 262.086 506.703 261.272L506.742 261.311Z" fill="#56C9CC"/>
<path d="M540.513 104.97C541.685 106.923 544.028 107.43 545.747 106.102C547.466 104.774 547.909 102.115 546.737 100.161C545.565 98.2083 543.222 97.7015 541.503 99.0295C539.784 100.357 539.341 103.017 540.513 104.97Z" fill="#56C9CC"/>
<g filter="url(#filter3_f_2977_2972)">
<ellipse cx="767.173" cy="317.913" rx="9.57488" ry="10.8778" fill="#99CC9E" fill-opacity="0.5"/>
</g>
<path d="M797.805 317.655H774.462L772.977 316.829C772.34 316.472 771.755 316.021 771.228 315.494L778.113 307.673C778.306 307.454 778.306 307.101 778.113 306.882C777.921 306.664 777.61 306.664 777.418 306.882L770.533 314.704C770.069 314.106 769.668 313.441 769.358 312.717L768.631 311.03V283.203C768.631 282.895 768.411 282.645 768.139 282.645C767.868 282.645 767.648 282.895 767.648 283.203V311.025L766.921 312.713C766.607 313.436 766.21 314.101 765.746 314.7L758.861 306.878C758.669 306.659 758.358 306.659 758.166 306.878C757.973 307.097 757.973 307.449 758.166 307.668L765.051 315.49C764.524 316.017 763.939 316.472 763.302 316.825L761.816 317.651H738.466C738.195 317.651 737.975 317.901 737.975 318.209C737.975 318.517 738.195 318.767 738.466 318.767H761.809L763.294 319.593C763.931 319.95 764.516 320.401 765.043 320.928L758.158 328.749C757.965 328.968 757.965 329.321 758.158 329.54C758.252 329.647 758.378 329.705 758.504 329.705C758.629 329.705 758.755 329.651 758.849 329.54L765.734 321.718C766.198 322.316 766.599 322.981 766.909 323.705L767.636 325.392V356.411C767.636 356.72 767.856 356.97 768.128 356.97C768.399 356.97 768.619 356.72 768.619 356.411V325.401L769.346 323.713C769.66 322.99 770.057 322.325 770.521 321.727L777.406 329.549C777.5 329.656 777.626 329.714 777.752 329.714C777.877 329.714 778.003 329.66 778.097 329.549C778.29 329.33 778.29 328.977 778.097 328.758L771.212 320.937C771.739 320.41 772.325 319.954 772.961 319.602L774.447 318.776H797.789C798.061 318.776 798.281 318.526 798.281 318.218C798.281 317.91 798.061 317.66 797.789 317.66L797.805 317.655Z" fill="#18D17B"/>
<g filter="url(#filter4_bd_2977_2972)">
<rect width="230.137" height="79.9417" rx="39.9708" transform="matrix(0.989792 -0.142523 0.142518 0.989792 28.3008 351.207)" fill="url(#paint5_linear_2977_2972)"/>
<rect x="0.548601" y="0.410499" width="229.168" height="78.9727" rx="39.4863" transform="matrix(0.989792 -0.142523 0.142518 0.989792 28.2479 351.289)" stroke="url(#paint6_linear_2977_2972)" stroke-width="0.968994"/>
</g>
<path d="M94.199 394.513L90.7815 370.779L99.2393 369.561C104.747 368.768 107.944 371.687 108.577 376.08C109.205 380.44 106.965 384.175 101.458 384.968L96.606 385.667L97.805 393.994L94.199 394.513ZM96.1623 382.585L100.653 381.939C104.161 381.434 105.32 379.259 104.938 376.604C104.551 373.916 102.83 372.189 99.3224 372.694L94.8312 373.341L96.1623 382.585ZM114.393 391.605L111.83 373.805L115.206 373.318L115.612 376.138L115.809 376.109C116.191 374.113 117.791 372.678 119.889 372.376C120.315 372.315 121.008 372.249 121.373 372.229L121.855 375.573C121.55 375.55 120.712 375.537 119.991 375.641C117.565 375.99 116.003 377.922 116.338 380.249L117.9 391.1L114.393 391.605ZM126.587 389.849L124.024 372.049L127.532 371.543L130.095 389.344L126.587 389.849ZM125.398 369.04C124.185 369.215 123.037 368.443 122.872 367.296C122.706 366.148 123.59 365.084 124.803 364.909C125.983 364.74 127.132 365.511 127.297 366.658C127.462 367.806 126.578 368.87 125.398 369.04ZM147.07 368.73L143.175 387.461L139.405 388.003L130.384 371.133L134.154 370.59L140.613 383.613L140.777 383.59L143.3 369.273L147.07 368.73ZM150.386 381.303C149.801 377.238 153.092 375.693 156.271 375.001C157.44 374.749 160.09 374.217 160.921 374.064L160.686 372.659C160.398 370.659 159.015 369.654 156.622 369.998C154.557 370.296 153.448 371.426 153.276 372.789L149.801 373.289C149.704 370.292 152.151 367.764 156.347 367.16C159.166 366.754 163.481 367.204 164.222 372.35L165.926 384.185L162.516 384.676L162.167 382.25L162.036 382.269C161.541 383.712 160.114 385.423 157.164 385.848C153.787 386.334 150.886 384.778 150.386 381.303ZM153.8 380.845C154.045 382.549 155.583 383.231 157.549 382.948C160.401 382.537 161.832 380.391 161.526 378.26L161.29 376.621C160.479 376.804 157.948 377.353 157.136 377.52C154.865 378.014 153.545 379.074 153.8 380.845ZM175.918 364.576L176.319 367.363L172.68 367.887L174.087 377.656C174.375 379.655 175.443 379.87 176.562 379.742C177.054 379.671 177.831 379.492 178.318 379.389L178.757 382.437C178.275 382.574 177.531 382.748 176.58 382.885C173.826 383.281 171.15 382.127 170.716 378.877L169.206 368.387L166.583 368.765L166.182 365.978L168.804 365.601L168.191 361.339L171.666 360.839L172.279 365.1L175.918 364.576ZM189.417 381.17C184.171 381.925 180.44 378.782 179.642 373.242C178.854 367.767 181.589 363.525 186.539 362.813C190.604 362.227 194.803 364.199 195.728 370.624L195.907 371.87L183.254 373.692C183.838 377.055 186.1 378.703 189.034 378.281C191.034 377.993 192.189 376.956 192.624 375.79L196.164 375.28C195.793 378.278 193.318 380.608 189.417 381.17ZM182.909 371.065L192.088 369.743C191.696 367.022 189.675 365.306 186.987 365.693C184.184 366.096 182.676 368.522 182.909 371.065ZM201.453 354.843L203.589 371.768L200.343 372.235L197.617 355.395L201.453 354.843ZM203.002 379.08C201.724 379.264 200.491 378.371 200.339 377.088C200.123 375.814 201.053 374.609 202.332 374.425C203.578 374.246 204.81 375.139 204.994 376.417C205.179 377.696 204.248 378.901 203.002 379.08Z" fill="white"/>
<g filter="url(#filter5_b_2977_2972)">
<rect width="230.137" height="79.9417" rx="39.9709" transform="matrix(0.830052 -0.557686 0.557692 0.830048 16.291 512.066)" fill="#56C9CC" fill-opacity="0.15"/>
<rect x="0.840447" y="0.164948" width="228.926" height="78.7305" rx="39.3652" transform="matrix(0.830052 -0.557686 0.557692 0.830048 16.3419 512.563)" stroke="url(#paint7_linear_2977_2972)" stroke-width="1.21124"/>
</g>
<g filter="url(#filter6_f_2977_2972)">
<path d="M115.224 490.242C116.593 492.275 116.055 495.033 114.022 496.403C111.989 497.772 109.231 497.234 107.862 495.201C106.493 493.168 107.031 490.41 109.064 489.04C111.097 487.671 113.855 488.209 115.224 490.242Z" fill="white" fill-opacity="0.5"/>
</g>
<g filter="url(#filter7_f_2977_2972)">
<path d="M135.779 476.403C137.148 478.436 136.61 481.194 134.577 482.563C132.544 483.932 129.786 483.394 128.417 481.361C127.047 479.328 127.586 476.57 129.619 475.201C131.652 473.831 134.41 474.37 135.779 476.403Z" fill="white" fill-opacity="0.5"/>
</g>
<g filter="url(#filter8_f_2977_2972)">
<path d="M156.32 462.559C157.689 464.592 157.151 467.35 155.118 468.719C153.085 470.088 150.327 469.55 148.958 467.517C147.588 465.484 148.127 462.726 150.16 461.357C152.193 459.988 154.951 460.526 156.32 462.559Z" fill="white" fill-opacity="0.5"/>
</g>
<path d="M155.501 455.01C155.937 454.716 156.053 454.123 155.759 453.687C155.465 453.25 154.872 453.134 154.435 453.428C153.999 453.722 153.883 454.315 154.177 454.752C154.471 455.189 155.064 455.304 155.501 455.01Z" fill="white"/>
<path d="M101.604 491.889C102.041 491.595 102.157 491.002 101.862 490.565C101.568 490.129 100.976 490.013 100.539 490.307C100.102 490.601 99.9865 491.194 100.281 491.631C100.575 492.067 101.167 492.183 101.604 491.889Z" fill="white"/>
<path fill-rule="evenodd" clip-rule="evenodd" d="M92.4243 505.544C92.2816 505.332 92.3377 505.045 92.5495 504.902L142.77 471.081C142.981 470.938 143.269 470.994 143.411 471.206C143.554 471.418 143.498 471.705 143.286 471.848L93.0659 505.669C92.8542 505.811 92.5669 505.755 92.4243 505.544Z" fill="white"/>
<path fill-rule="evenodd" clip-rule="evenodd" d="M109.794 474.665C109.843 474.414 110.086 474.251 110.337 474.299L169.643 485.872C169.894 485.921 170.058 486.164 170.009 486.414C169.96 486.665 169.717 486.828 169.466 486.779L110.159 475.207C109.909 475.158 109.745 474.915 109.794 474.665Z" fill="white"/>
<path fill-rule="evenodd" clip-rule="evenodd" d="M139.728 446.102C139.94 445.959 140.227 446.015 140.37 446.227L174.191 496.447C174.333 496.659 174.277 496.946 174.065 497.089C173.854 497.231 173.566 497.175 173.424 496.963L139.603 446.744C139.46 446.532 139.516 446.245 139.728 446.102Z" fill="white"/>
<path fill-rule="evenodd" clip-rule="evenodd" d="M98.3529 473.403C98.5647 473.26 98.8519 473.316 98.9946 473.528L119.767 504.372C119.909 504.583 119.853 504.871 119.641 505.013C119.43 505.156 119.142 505.1 119 504.888L98.2277 474.044C98.085 473.833 98.1411 473.545 98.3529 473.403Z" fill="white"/>
<path fill-rule="evenodd" clip-rule="evenodd" d="M136.753 455.99C137.004 456.038 137.167 456.281 137.118 456.532L129.957 493.231C129.908 493.482 129.665 493.645 129.415 493.597C129.164 493.548 129.001 493.305 129.05 493.054L136.211 456.355C136.26 456.104 136.503 455.941 136.753 455.99Z" fill="white"/>
<path fill-rule="evenodd" clip-rule="evenodd" d="M172.263 451.765C172.406 451.977 172.35 452.264 172.138 452.407L140.899 473.445C140.687 473.588 140.4 473.531 140.257 473.32C140.114 473.108 140.17 472.821 140.382 472.678L171.622 451.64C171.833 451.497 172.121 451.553 172.263 451.765Z" fill="white"/>
<path fill-rule="evenodd" clip-rule="evenodd" d="M115.847 470.095C116.098 470.144 116.261 470.387 116.212 470.637L110.125 501.831C110.076 502.081 109.834 502.245 109.583 502.196C109.332 502.147 109.169 501.904 109.218 501.654L115.305 470.46C115.354 470.21 115.596 470.046 115.847 470.095Z" fill="white"/>
<path fill-rule="evenodd" clip-rule="evenodd" d="M151.306 465.878C151.449 466.09 151.393 466.377 151.181 466.52L124.687 484.362C124.475 484.505 124.188 484.449 124.045 484.237C123.903 484.026 123.959 483.738 124.17 483.596L150.665 465.753C150.876 465.61 151.164 465.666 151.306 465.878Z" fill="white"/>
<path fill-rule="evenodd" clip-rule="evenodd" d="M175.487 469.328C175.438 469.578 175.195 469.742 174.945 469.693L143.751 463.606C143.501 463.557 143.337 463.314 143.386 463.064C143.435 462.813 143.678 462.65 143.928 462.699L175.122 468.785C175.372 468.834 175.536 469.077 175.487 469.328Z" fill="white"/>
<path fill-rule="evenodd" clip-rule="evenodd" d="M129.88 496.402C129.831 496.652 129.588 496.816 129.337 496.767L104.632 491.946C104.382 491.897 104.218 491.655 104.267 491.404C104.316 491.153 104.559 490.99 104.809 491.039L129.514 495.859C129.765 495.908 129.928 496.151 129.88 496.402Z" fill="white"/>
<path fill-rule="evenodd" clip-rule="evenodd" d="M142.6 494.726C142.388 494.869 142.101 494.813 141.959 494.601L127.844 473.643C127.702 473.431 127.758 473.144 127.97 473.001C128.181 472.859 128.469 472.915 128.611 473.127L142.725 494.084C142.868 494.296 142.812 494.584 142.6 494.726Z" fill="white"/>
<path fill-rule="evenodd" clip-rule="evenodd" d="M149.192 483.362C148.941 483.313 148.778 483.07 148.827 482.82L153.648 458.115C153.697 457.864 153.939 457.701 154.19 457.75C154.44 457.799 154.604 458.041 154.555 458.292L149.734 482.997C149.685 483.247 149.443 483.411 149.192 483.362Z" fill="white"/>
<path d="M109.53 489.999L110.87 490.183L112.033 489.492L112.851 490.57L114.162 490.903L113.978 492.243L114.669 493.406L113.591 494.224L113.258 495.535L111.918 495.351L110.755 496.043L109.937 494.965L108.626 494.631L108.81 493.291L108.118 492.128L109.197 491.31L109.53 489.999Z" fill="white"/>
<path d="M132.65 475.736L133.448 476.838L134.74 477.17L134.547 478.551L135.22 479.742L134.149 480.593L133.808 481.945L132.486 481.767L131.332 482.488L130.533 481.386L129.241 481.054L129.434 479.673L128.761 478.482L129.833 477.631L130.173 476.279L131.495 476.457L132.65 475.736Z" fill="white"/>
<path d="M155.415 463.174L155.231 464.515L155.922 465.678L154.844 466.495L154.511 467.806L153.171 467.622L152.008 468.314L151.19 467.236L149.879 466.903L150.063 465.562L149.371 464.399L150.449 463.582L150.783 462.27L152.123 462.455L153.286 461.763L154.104 462.841L155.415 463.174Z" fill="white"/>
<circle cx="235.393" cy="360.884" r="6" transform="rotate(7.62708 235.393 360.884)" fill="#232321"/>
<g filter="url(#filter9_bd_2977_2972)">
<rect width="266.04" height="92.4133" rx="46.2066" transform="matrix(0.921055 0.389434 -0.389436 0.921053 1021.23 170.117)" fill="url(#paint8_linear_2977_2972)"/>
<rect x="0.29775" y="0.733981" width="264.92" height="91.2931" rx="45.6466" transform="matrix(0.921055 0.389434 -0.389436 0.921053 1021.54 170.059)" stroke="url(#paint9_linear_2977_2972)" stroke-width="1.12016"/>
</g>
<path d="M1071.74 225.955L1076.47 227.953L1076.18 251.15L1076.49 251.285L1092.93 234.916L1097.66 236.914L1086.87 262.445L1083.16 260.879L1090.96 242.436L1090.71 242.332L1075.45 257.579L1072.39 256.282L1072.67 234.663L1072.46 234.573L1064.65 253.052L1060.95 251.486L1071.74 225.955ZM1099.85 268.394C1094.21 266.009 1092.4 260.669 1094.92 254.709C1097.41 248.82 1102.65 246.255 1107.97 248.507C1112.35 250.356 1115.32 254.816 1112.4 261.727L1111.83 263.067L1098.22 257.312C1096.79 260.989 1098.05 263.972 1101.2 265.306C1103.35 266.216 1105.12 265.88 1106.24 264.985L1110.05 266.595C1107.89 269.341 1104.05 270.169 1099.85 268.394ZM1099.45 254.506L1109.32 258.681C1110.56 255.754 1109.59 252.848 1106.7 251.625C1103.68 250.35 1100.74 251.85 1099.45 254.506ZM1112.01 273.076L1120.1 253.927L1123.74 255.463L1122.41 258.602L1122.62 258.691C1124.34 256.883 1126.73 256.439 1129.27 257.513C1131.81 258.586 1133.07 260.616 1132.99 263.075L1133.2 263.164C1135 261.471 1137.59 261.031 1140.38 262.209C1143.84 263.67 1145.38 266.901 1143.53 271.273L1138.1 284.11L1134.33 282.514L1139.61 270.031C1140.7 267.456 1139.54 265.677 1137.56 264.842C1135.13 263.813 1133.05 264.889 1132.08 267.182L1126.93 279.383L1123.19 277.803L1128.56 265.107C1129.43 263.027 1128.57 261.04 1126.53 260.175C1124.41 259.281 1121.87 260.284 1120.78 262.858L1115.78 274.671L1112.01 273.076ZM1150.6 289.85C1145.17 287.554 1143.31 282.113 1145.82 276.189C1148.34 270.229 1153.53 267.771 1158.96 270.067C1164.36 272.348 1166.22 277.789 1163.7 283.748C1161.19 289.673 1156 292.131 1150.6 289.85ZM1151.93 286.712C1155.38 288.173 1158.34 285.806 1159.89 282.138C1161.44 278.471 1161.11 274.631 1157.65 273.17C1154.13 271.679 1151.14 274.117 1149.59 277.784C1148.04 281.452 1148.4 285.221 1151.93 286.712ZM1163.39 294.8L1171.48 275.652L1175.12 277.187L1173.83 280.22L1174.05 280.31C1175.62 278.562 1178.06 278.098 1180.31 279.052C1180.77 279.246 1181.5 279.595 1181.87 279.794L1180.35 283.391C1180.06 283.186 1179.24 282.672 1178.47 282.344C1175.86 281.241 1173.16 282.219 1172.1 284.723L1167.16 296.396L1163.39 294.8ZM1176.39 308.778C1175.62 308.45 1174.89 308.102 1174.43 307.823L1175.75 304.684C1176.16 304.898 1176.89 305.247 1177.42 305.47C1178.58 305.962 1179.61 306.274 1181.51 304.249L1182.5 303.173L1183.69 280.811L1187.71 282.51L1186.26 299.399L1186.47 299.489L1197.58 286.685L1201.64 288.4L1184.57 306.748C1182.19 309.318 1179.53 310.105 1176.39 308.778Z" fill="white"/>
<circle cx="1028" cy="222" r="7" fill="#232321"/>
<g filter="url(#filter10_b_2977_2972)">
<rect width="165.268" height="57.4085" rx="28.7043" transform="matrix(0.980824 -0.194894 0.1949 0.980823 922 294.211)" fill="#56C9CC" fill-opacity="0.15"/>
<rect x="0.712044" y="0.475976" width="164.057" height="56.1973" rx="28.0986" transform="matrix(0.980824 -0.194894 0.1949 0.980823 921.921 294.359)" stroke="url(#paint10_linear_2977_2972)" stroke-width="1.21124"/>
</g>
<path d="M1037.03 293.278L1036.17 288.957L1041.85 287.829L1042.71 292.15L1037.03 293.278ZM1040.78 312.163L1037.42 295.263L1043.1 294.135L1046.46 311.035L1040.78 312.163Z" fill="white"/>
<path d="M1033.63 295.583C1034.06 295.496 1034.46 295.483 1034.83 295.543C1035.2 295.581 1035.38 295.611 1035.38 295.633L1036.45 300.978L1034.62 301.341C1033.44 301.575 1032.65 302.087 1032.26 302.875C1031.88 303.66 1031.82 304.725 1032.09 306.069L1033.59 313.591L1027.91 314.719L1024.55 297.818L1029.2 296.895L1030.08 299.382C1030.23 298.332 1030.62 297.488 1031.27 296.85C1031.91 296.19 1032.69 295.768 1033.63 295.583Z" fill="white"/>
<path d="M1014.86 297.684L1014 293.363L1019.67 292.235L1020.53 296.556L1014.86 297.684ZM1018.61 316.569L1015.25 299.669L1020.93 298.541L1024.29 315.441L1018.61 316.569Z" fill="white"/>
<path d="M1006.52 301.404L1013.14 300.089L1008.93 308.012L1016.64 316.961L1010.2 318.242L1005.88 313.078L1004.34 315.614L1005.06 319.262L999.385 320.39L994.768 297.152L1000.44 296.024L1002.99 308.828L1006.52 301.404Z" fill="white"/>
<path d="M984.941 300.367L992.756 298.814L987.511 309.272L997.275 320.807L989.83 322.286L984.148 315.031L981.349 318.848L982.328 323.777L976.024 325.03L971.648 303.008L977.952 301.755L979.822 311.166L984.941 300.367Z" fill="white"/>
<path d="M1017.85 570.566L1017.85 549.277L1018.56 547.923C1018.87 547.342 1019.26 546.808 1019.71 546.328L1026.45 552.607C1026.64 552.783 1026.94 552.783 1027.13 552.607C1027.32 552.431 1027.32 552.148 1027.13 551.973L1020.39 545.693C1020.91 545.27 1021.48 544.905 1022.1 544.622L1023.56 543.959L1047.52 543.959C1047.78 543.959 1048 543.758 1048 543.511C1048 543.263 1047.78 543.063 1047.52 543.063L1023.56 543.063L1022.11 542.4C1021.49 542.113 1020.91 541.751 1020.4 541.328L1027.13 535.049C1027.32 534.873 1027.32 534.59 1027.13 534.415C1026.94 534.239 1026.64 534.239 1026.45 534.415L1019.72 540.694C1019.26 540.213 1018.87 539.679 1018.57 539.099L1017.86 537.744L1017.86 516.448C1017.86 516.201 1017.64 516 1017.38 516C1017.11 516 1016.9 516.201 1016.9 516.448L1016.9 537.737L1016.18 539.092C1015.88 539.672 1015.49 540.206 1015.04 540.687L1008.3 534.407C1008.11 534.232 1007.81 534.232 1007.62 534.407C1007.53 534.493 1007.48 534.608 1007.48 534.723C1007.48 534.837 1007.52 534.952 1007.62 535.038L1014.35 541.317C1013.84 541.74 1013.27 542.106 1012.64 542.389L1011.19 543.052L984.481 543.052C984.215 543.052 984 543.253 984 543.5C984 543.747 984.215 543.948 984.481 543.948L1011.18 543.948L1012.64 544.611C1013.26 544.898 1013.83 545.26 1014.35 545.683L1007.61 551.962C1007.52 552.048 1007.47 552.163 1007.47 552.277C1007.47 552.392 1007.52 552.507 1007.61 552.593C1007.8 552.768 1008.1 552.768 1008.29 552.593L1015.03 546.313C1015.48 546.794 1015.87 547.328 1016.18 547.908L1016.89 549.263L1016.89 570.552C1016.89 570.799 1017.1 571 1017.37 571C1017.63 571 1017.85 570.799 1017.85 570.552L1017.85 570.566Z" fill="white"/>
<path d="M132.174 301.624L122.922 282.615L123.006 281.078C123.044 280.418 123.179 279.762 123.4 279.125L132.498 281.631C132.753 281.701 133.04 281.561 133.142 281.318C133.244 281.074 133.121 280.822 132.866 280.751L123.767 278.245C124.071 277.63 124.454 277.04 124.92 276.501L126.006 275.24L148.667 264.21C148.918 264.088 149.035 263.809 148.927 263.589C148.82 263.368 148.529 263.288 148.278 263.41L125.62 274.438L123.958 274.515C123.244 274.545 122.545 274.486 121.874 274.345L125.515 265.638C125.617 265.395 125.494 265.142 125.239 265.072C124.985 265.002 124.697 265.141 124.596 265.385L120.955 274.092C120.317 273.872 119.714 273.576 119.174 273.197L117.913 272.315L108.658 253.299C108.55 253.078 108.259 252.998 108.008 253.12C107.758 253.242 107.641 253.52 107.749 253.741L117.001 272.751L116.917 274.288C116.879 274.948 116.744 275.603 116.523 276.241L107.424 273.734C107.17 273.664 106.883 273.804 106.781 274.048C106.731 274.167 106.734 274.292 106.784 274.395C106.833 274.497 106.927 274.578 107.055 274.611L116.154 277.117C115.85 277.732 115.468 278.322 115.002 278.862L113.916 280.123L88.6545 292.418C88.4036 292.54 88.2873 292.818 88.3947 293.039C88.5022 293.26 88.793 293.34 89.0439 293.218L114.298 280.926L115.96 280.85C116.674 280.819 117.373 280.878 118.044 281.019L114.403 289.726C114.353 289.845 114.356 289.971 114.406 290.073C114.455 290.176 114.549 290.257 114.677 290.289C114.932 290.359 115.219 290.22 115.321 289.976L118.961 281.269C119.599 281.489 120.202 281.785 120.742 282.164L122.003 283.046L131.255 302.056C131.363 302.277 131.654 302.357 131.905 302.235C132.155 302.113 132.272 301.834 132.164 301.613L132.174 301.624Z" fill="white"/>
</g>
<path d="M448.969 374.922V376.773H440.391V383.992H438.211V376.773H429.75V374.922H448.969ZM439.312 363.789C443.742 363.789 446.789 365.594 446.789 368.453C446.789 371.289 443.742 373.07 439.312 373.07C434.859 373.07 431.836 371.289 431.836 368.453C431.836 365.594 434.859 363.789 439.312 363.789ZM439.312 365.57C436.195 365.594 434.109 366.672 434.133 368.453C434.109 370.211 436.195 371.289 439.312 371.289C442.43 371.289 444.516 370.211 444.516 368.453C444.516 366.672 442.43 365.594 439.312 365.57ZM467.953 362.992V384.039H465.727V362.992H467.953ZM461.531 364.891V372.555H453.984V377.148C457.383 377.137 460.359 376.984 463.875 376.398L464.086 378.227C460.359 378.859 457.195 379 453.492 379H451.711V370.773H459.258V366.695H451.688V364.891H461.531ZM488.695 362.992V383.992H486.445V362.992H488.695ZM477.82 365.242C477.797 370.422 476.695 375.273 472.945 379.258L471.211 377.969C474.211 374.84 475.453 371.266 475.688 367.07H472.055V365.242H477.82ZM483.703 365.242C483.703 370.492 482.953 376.117 479.227 380.641L477.352 379.445C480.41 375.824 481.406 371.547 481.594 367.07H478.547V365.242H483.703ZM509.438 362.992V384.039H507.211V362.992H509.438ZM503.016 364.891V372.555H495.469V377.148C498.867 377.137 501.844 376.984 505.359 376.398L505.57 378.227C501.844 378.859 498.68 379 494.977 379H493.195V370.773H500.742V366.695H493.172V364.891H503.016ZM536.109 362.992V378.578H533.883V372.789H530.602V370.914H533.883V368.711H530.602V366.883H533.883V362.992H536.109ZM530.367 364.633V366.438H528.352V373.469C529.242 373.398 530.098 373.328 530.93 373.234L531.023 374.875C526.992 375.508 522.281 375.578 518.906 375.602L518.625 373.727C519.41 373.727 520.277 373.727 521.18 373.703V366.438H519.211V364.633H530.367ZM536.648 381.742V383.547H522.422V377.312H524.672V381.742H536.648ZM523.336 373.68C524.285 373.656 525.246 373.633 526.219 373.586V366.438H523.336V373.68ZM555.844 363.016V369.766H558.891V371.617H555.844V378.719H553.617V363.016H555.844ZM551.883 365.453V367.258H539.367V365.453H544.523V362.992H546.75V365.453H551.883ZM545.625 368.266C548.648 368.266 550.711 369.836 550.711 372.227C550.711 374.617 548.648 376.164 545.625 376.164C542.578 376.164 540.516 374.617 540.516 372.227C540.516 369.836 542.578 368.266 545.625 368.266ZM545.625 369.977C543.844 369.977 542.648 370.844 542.672 372.227C542.648 373.586 543.844 374.43 545.625 374.43C547.406 374.43 548.602 373.586 548.625 372.227C548.602 370.844 547.406 369.977 545.625 369.977ZM556.734 381.742V383.547H542.531V377.477H544.758V381.742H556.734ZM573.234 368.336C573.211 372.062 575.367 375.859 578.508 377.383L577.125 379.164C574.84 377.98 573.07 375.625 572.156 372.812C571.207 375.812 569.367 378.32 566.977 379.562L565.594 377.758C568.828 376.211 571.008 372.18 571.008 368.336V364.75H573.234V368.336ZM582.305 362.992V371.359H585.68V373.258H582.305V383.992H580.078V362.992H582.305ZM603.188 363.016V368.242H606.258V370.117H603.188V375.508H600.961V363.016H603.188ZM603.188 376.492V383.734H589.734V376.492H603.188ZM591.914 378.227V381.93H601.031V378.227H591.914ZM597.094 364.117V370.047H589.781V372.672C593.426 372.66 596.004 372.555 599.062 372.039L599.297 373.82C596.039 374.406 593.273 374.523 589.242 374.523H587.555V368.359H594.914V365.898H587.531V364.117H597.094ZM624.867 362.992V383.992H622.617V362.992H624.867ZM613.992 365.242C613.969 370.422 612.867 375.273 609.117 379.258L607.383 377.969C610.383 374.84 611.625 371.266 611.859 367.07H608.227V365.242H613.992ZM619.875 365.242C619.875 370.492 619.125 376.117 615.398 380.641L613.523 379.445C616.582 375.824 617.578 371.547 617.766 367.07H614.719V365.242H619.875ZM645.609 362.992V384.039H643.383V362.992H645.609ZM639.188 364.891V372.555H631.641V377.148C635.039 377.137 638.016 376.984 641.531 376.398L641.742 378.227C638.016 378.859 634.852 379 631.148 379H629.367V370.773H636.914V366.695H629.344V364.891H639.188ZM655.758 364.492C659.086 364.469 661.453 366.531 661.477 369.484C661.453 372.438 659.086 374.5 655.758 374.5C652.453 374.5 650.016 372.438 650.039 369.484C650.016 366.531 652.453 364.469 655.758 364.492ZM655.758 366.414C653.719 366.414 652.219 367.633 652.242 369.484C652.219 371.336 653.719 372.555 655.758 372.555C657.797 372.555 659.297 371.336 659.297 369.484C659.297 367.633 657.797 366.414 655.758 366.414ZM666.281 362.992V384.039H664.055V362.992H666.281ZM649.031 377.664C652.852 377.664 658.148 377.617 662.742 376.961L662.906 378.578C658.148 379.492 653.062 379.516 649.312 379.516L649.031 377.664ZM681.469 363.695C684.633 363.719 686.953 365.664 686.977 368.406C686.953 371.172 684.633 373.094 681.469 373.094C678.281 373.094 675.938 371.172 675.938 368.406C675.938 365.664 678.281 363.719 681.469 363.695ZM681.469 365.57C679.523 365.547 678.094 366.695 678.117 368.406C678.094 370.141 679.523 371.289 681.469 371.289C683.391 371.289 684.82 370.141 684.82 368.406C684.82 366.695 683.391 365.547 681.469 365.57ZM692.93 362.992V373.68H690.703V362.992H692.93ZM692.93 374.641V379.938H681.352V381.953H693.633V383.734H679.195V378.273H690.727V376.422H679.125V374.641H692.93ZM703.5 366.344C703.5 369.109 705.422 371.664 708.562 372.695L707.367 374.453C705.07 373.645 703.348 372.004 702.445 369.93C701.52 372.285 699.738 374.125 697.289 375.039L696.094 373.258C699.375 372.086 701.273 369.297 701.297 366.156V364.094H703.5V366.344ZM712.758 362.992V368.266H715.805V370.141H712.758V375.672H710.531V362.992H712.758ZM705.984 376.164C710.297 376.164 712.945 377.594 712.945 380.055C712.945 382.539 710.297 383.969 705.984 383.945C701.625 383.969 698.93 382.539 698.93 380.055C698.93 377.594 701.625 376.164 705.984 376.164ZM705.984 377.922C702.938 377.922 701.133 378.719 701.156 380.055C701.133 381.438 702.938 382.188 705.984 382.211C709.008 382.188 710.766 381.438 710.766 380.055C710.766 378.719 709.008 377.922 705.984 377.922ZM732.328 376.188C736.875 376.188 739.734 377.617 739.758 380.078C739.734 382.516 736.875 383.969 732.328 383.945C727.828 383.969 724.945 382.516 724.945 380.078C724.945 377.617 727.828 376.188 732.328 376.188ZM732.328 377.875C729.141 377.875 727.148 378.695 727.172 380.078C727.148 381.438 729.141 382.234 732.328 382.234C735.539 382.234 737.531 381.438 737.555 380.078C737.531 378.695 735.539 377.875 732.328 377.875ZM739.594 364.023V365.781C739.594 367.469 739.594 369.203 739.008 371.359L736.828 371.125C737.391 368.98 737.391 367.434 737.391 365.805H725.109V364.023H739.594ZM741.984 372.648V374.453H722.883V372.648H730.547V368.711H732.727V372.648H741.984ZM762.797 374.852V376.68H757.922V383.992H755.672V376.68H750.656V383.992H748.359V376.68H743.578V374.852H762.797ZM753.141 363.789C757.57 363.789 760.617 365.594 760.617 368.43C760.617 371.219 757.57 373 753.141 372.977C748.688 373 745.664 371.219 745.664 368.43C745.664 365.594 748.688 363.789 753.141 363.789ZM753.141 365.57C750.023 365.594 747.938 366.672 747.961 368.43C747.938 370.141 750.023 371.219 753.141 371.219C756.258 371.219 758.344 370.141 758.344 368.43C758.344 366.672 756.258 365.594 753.141 365.57ZM768.211 365.031L768 377.102H765.68L765.469 365.031H768.211ZM766.852 382.164C765.938 382.164 765.164 381.414 765.188 380.5C765.164 379.586 765.938 378.836 766.852 378.836C767.742 378.836 768.516 379.586 768.516 380.5C768.516 381.414 767.742 382.164 766.852 382.164Z" fill="white"/>
<defs>
<filter id="filter0_f_2977_2972" x="-313" y="96" width="1015" height="1015" filterUnits="userSpaceOnUse" color-interpolation-filters="sRGB">
<feFlood flood-opacity="0" result="BackgroundImageFix"/>
<feBlend mode="normal" in="SourceGraphic" in2="BackgroundImageFix" result="shape"/>
<feGaussianBlur stdDeviation="106.5" result="effect1_foregroundBlur_2977_2972"/>
</filter>
<filter id="filter1_f_2977_2972" x="752" y="-336" width="797" height="797" filterUnits="userSpaceOnUse" color-interpolation-filters="sRGB">
<feFlood flood-opacity="0" result="BackgroundImageFix"/>
<feBlend mode="normal" in="SourceGraphic" in2="BackgroundImageFix" result="shape"/>
<feGaussianBlur stdDeviation="106.5" result="effect1_foregroundBlur_2977_2972"/>
</filter>
<filter id="filter2_f_2977_2972" x="412.342" y="133.359" width="76.1641" height="81.5508" filterUnits="userSpaceOnUse" color-interpolation-filters="sRGB">
<feFlood flood-opacity="0" result="BackgroundImageFix"/>
<feBlend mode="normal" in="SourceGraphic" in2="BackgroundImageFix" result="shape"/>
<feGaussianBlur stdDeviation="8" result="effect1_foregroundBlur_2977_2972"/>
</filter>
<filter id="filter3_f_2977_2972" x="745.598" y="295.035" width="43.1504" height="45.7539" filterUnits="userSpaceOnUse" color-interpolation-filters="sRGB">
<feFlood flood-opacity="0" result="BackgroundImageFix"/>
<feBlend mode="normal" in="SourceGraphic" in2="BackgroundImageFix" result="shape"/>
<feGaussianBlur stdDeviation="6" result="effect1_foregroundBlur_2977_2972"/>
</filter>
<filter id="filter4_bd_2977_2972" x="9.35913" y="299.467" width="277.065" height="149.809" filterUnits="userSpaceOnUse" color-interpolation-filters="sRGB">
<feFlood flood-opacity="0" result="BackgroundImageFix"/>
<feGaussianBlur in="BackgroundImageFix" stdDeviation="12.1124"/>
<feComposite in2="SourceAlpha" operator="in" result="effect1_backgroundBlur_2977_2972"/>
<feColorMatrix in="SourceAlpha" type="matrix" values="0 0 0 0 0 0 0 0 0 0 0 0 0 0 0 0 0 0 127 0" result="hardAlpha"/>
<feOffset dy="4.84497"/>
<feGaussianBlur stdDeviation="2.42249"/>
<feComposite in2="hardAlpha" operator="out"/>
<feColorMatrix type="matrix" values="0 0 0 0 0 0 0 0 0 0 0 0 0 0 0 0 0 0 0.25 0"/>
<feBlend mode="normal" in2="effect1_backgroundBlur_2977_2972" result="effect2_dropShadow_2977_2972"/>
<feBlend mode="normal" in="SourceGraphic" in2="effect2_dropShadow_2977_2972" result="shape"/>
</filter>
<filter id="filter5_b_2977_2972" x="7.5603" y="374.99" width="253.071" height="212.165" filterUnits="userSpaceOnUse" color-interpolation-filters="sRGB">
<feFlood flood-opacity="0" result="BackgroundImageFix"/>
<feGaussianBlur in="BackgroundImageFix" stdDeviation="12.1124"/>
<feComposite in2="SourceAlpha" operator="in" result="effect1_backgroundBlur_2977_2972"/>
<feBlend mode="normal" in="SourceGraphic" in2="effect1_backgroundBlur_2977_2972" result="shape"/>
</filter>
<filter id="filter6_f_2977_2972" x="92.5686" y="473.746" width="37.9487" height="37.9487" filterUnits="userSpaceOnUse" color-interpolation-filters="sRGB">
<feFlood flood-opacity="0" result="BackgroundImageFix"/>
<feBlend mode="normal" in="SourceGraphic" in2="BackgroundImageFix" result="shape"/>
<feGaussianBlur stdDeviation="7.26746" result="effect1_foregroundBlur_2977_2972"/>
</filter>
<filter id="filter7_f_2977_2972" x="113.123" y="459.906" width="37.9487" height="37.9487" filterUnits="userSpaceOnUse" color-interpolation-filters="sRGB">
<feFlood flood-opacity="0" result="BackgroundImageFix"/>
<feBlend mode="normal" in="SourceGraphic" in2="BackgroundImageFix" result="shape"/>
<feGaussianBlur stdDeviation="7.26746" result="effect1_foregroundBlur_2977_2972"/>
</filter>
<filter id="filter8_f_2977_2972" x="133.664" y="446.063" width="37.9487" height="37.9487" filterUnits="userSpaceOnUse" color-interpolation-filters="sRGB">
<feFlood flood-opacity="0" result="BackgroundImageFix"/>
<feBlend mode="normal" in="SourceGraphic" in2="BackgroundImageFix" result="shape"/>
<feGaussianBlur stdDeviation="7.26746" result="effect1_foregroundBlur_2977_2972"/>
</filter>
<filter id="filter9_bd_2977_2972" x="971.574" y="156.449" width="308.366" height="216.059" filterUnits="userSpaceOnUse" color-interpolation-filters="sRGB">
<feFlood flood-opacity="0" result="BackgroundImageFix"/>
<feGaussianBlur in="BackgroundImageFix" stdDeviation="14.0021"/>
<feComposite in2="SourceAlpha" operator="in" result="effect1_backgroundBlur_2977_2972"/>
<feColorMatrix in="SourceAlpha" type="matrix" values="0 0 0 0 0 0 0 0 0 0 0 0 0 0 0 0 0 0 127 0" result="hardAlpha"/>
<feOffset dy="5.60082"/>
<feGaussianBlur stdDeviation="2.80041"/>
<feComposite in2="hardAlpha" operator="out"/>
<feColorMatrix type="matrix" values="0 0 0 0 0 0 0 0 0 0 0 0 0 0 0 0 0 0 0.25 0"/>
<feBlend mode="normal" in2="effect1_backgroundBlur_2977_2972" result="effect2_dropShadow_2977_2972"/>
<feBlend mode="normal" in="SourceGraphic" in2="effect2_dropShadow_2977_2972" result="shape"/>
</filter>
<filter id="filter10_b_2977_2972" x="902.814" y="242.814" width="211.661" height="126.891" filterUnits="userSpaceOnUse" color-interpolation-filters="sRGB">
<feFlood flood-opacity="0" result="BackgroundImageFix"/>
<feGaussianBlur in="BackgroundImageFix" stdDeviation="12.1124"/>
<feComposite in2="SourceAlpha" operator="in" result="effect1_backgroundBlur_2977_2972"/>
<feBlend mode="normal" in="SourceGraphic" in2="effect1_backgroundBlur_2977_2972" result="shape"/>
</filter>
<linearGradient id="paint0_linear_2977_2972" x1="335.5" y1="80" x2="493.024" y2="690.263" gradientUnits="userSpaceOnUse">
<stop stop-color="#56C9CC"/>
<stop offset="1" stop-color="#232120"/>
</linearGradient>
<linearGradient id="paint1_linear_2977_2972" x1="330.5" y1="87" x2="665.297" y2="655.577" gradientUnits="userSpaceOnUse">
<stop stop-color="#84FCFF"/>
<stop offset="0.5" stop-color="#528E71"/>
<stop offset="1" stop-color="#262928"/>
</linearGradient>
<linearGradient id="paint2_linear_2977_2972" x1="117" y1="65.25" x2="586.344" y2="824.172" gradientUnits="userSpaceOnUse">
<stop stop-color="#56C9CC"/>
<stop offset="1" stop-color="#232120"/>
</linearGradient>
<radialGradient id="paint3_radial_2977_2972" cx="0" cy="0" r="1" gradientUnits="userSpaceOnUse" gradientTransform="translate(194.5 603.5) rotate(90) scale(294.5)">
<stop stop-color="#56C9CC"/>
<stop offset="1" stop-color="#56C9CC" stop-opacity="0"/>
</radialGradient>
<radialGradient id="paint4_radial_2977_2972" cx="0" cy="0" r="1" gradientUnits="userSpaceOnUse" gradientTransform="translate(1150.5 62.5) rotate(90) scale(185.5)">
<stop stop-color="#18D17B"/>
<stop offset="1" stop-color="#18D17B" stop-opacity="0"/>
</radialGradient>
<linearGradient id="paint5_linear_2977_2972" x1="127.119" y1="27.782" x2="205.183" y2="105.143" gradientUnits="userSpaceOnUse">
<stop stop-color="#56C9CC"/>
<stop offset="1" stop-color="#18D17B"/>
</linearGradient>
<linearGradient id="paint6_linear_2977_2972" x1="49.772" y1="-16.5171" x2="168.608" y2="87.6971" gradientUnits="userSpaceOnUse">
<stop stop-color="white"/>
<stop offset="0.375" stop-color="white" stop-opacity="0.01"/>
<stop offset="0.635417" stop-color="white" stop-opacity="0.01"/>
<stop offset="1" stop-color="white" stop-opacity="0.34"/>
</linearGradient>
<linearGradient id="paint7_linear_2977_2972" x1="3.63422" y1="-30.7891" x2="211.165" y2="87.2569" gradientUnits="userSpaceOnUse">
<stop stop-color="white"/>
<stop offset="0.364583" stop-color="white" stop-opacity="0.01"/>
<stop offset="0.723958" stop-color="white" stop-opacity="0.01"/>
<stop offset="0.963542" stop-color="white" stop-opacity="0.27"/>
</linearGradient>
<linearGradient id="paint8_linear_2977_2972" x1="146.95" y1="32.1162" x2="237.193" y2="121.545" gradientUnits="userSpaceOnUse">
<stop stop-color="#56CCB0"/>
<stop offset="1" stop-color="#06C66C"/>
</linearGradient>
<linearGradient id="paint9_linear_2977_2972" x1="57.5367" y1="-19.0939" x2="194.913" y2="101.378" gradientUnits="userSpaceOnUse">
<stop stop-color="white"/>
<stop offset="0.375" stop-color="white" stop-opacity="0.01"/>
<stop offset="0.635417" stop-color="white" stop-opacity="0.01"/>
<stop offset="1" stop-color="white" stop-opacity="0.34"/>
</linearGradient>
<linearGradient id="paint10_linear_2977_2972" x1="2.60984" y1="-22.1105" x2="151.643" y2="62.6617" gradientUnits="userSpaceOnUse">
<stop stop-color="white"/>
<stop offset="0.364583" stop-color="white" stop-opacity="0.01"/>
<stop offset="0.723958" stop-color="white" stop-opacity="0.01"/>
<stop offset="0.963542" stop-color="white" stop-opacity="0.27"/>
</linearGradient>
<clipPath id="clip0_2977_2972">
<rect width="1200" height="596" rx="15" fill="white"/>
</clipPath>
</defs>
</svg>
