<svg width="1200" height="340" viewBox="0 0 1200 340" fill="none" xmlns="http://www.w3.org/2000/svg">
<g clip-path="url(#clip0_2977_2973)">
<rect width="1200" height="340" rx="15" fill="#232120"/>
<g filter="url(#filter0_f_2977_2973)">
<circle cx="39" cy="331" r="217" fill="#56C9CC" fill-opacity="0.3"/>
</g>
<g filter="url(#filter1_f_2977_2973)">
<circle cx="1191" cy="44" r="104" fill="#18D17B" fill-opacity="0.2"/>
</g>
<g filter="url(#filter2_b_2977_2973)">
<circle cx="54.5" cy="87.5" r="138.5" fill="url(#paint0_linear_2977_2973)" fill-opacity="0.15"/>
<circle cx="54.5" cy="87.5" r="137.5" stroke="url(#paint1_linear_2977_2973)" stroke-opacity="0.1" stroke-width="2"/>
</g>
<path fill-rule="evenodd" clip-rule="evenodd" d="M833.645 269.578C848.844 262.184 858.657 252.323 861.945 240.205C865.233 228.086 861.75 214.617 852.372 200.555C842.996 186.496 827.795 171.953 807.89 157.783C768.086 129.446 709.658 102.726 642.038 84.3787C574.419 66.0316 510.498 59.5549 461.831 63.8864C437.493 66.0525 417.026 70.9168 401.829 78.3092C386.63 85.7028 376.817 95.564 373.529 107.682C370.24 119.801 373.723 133.27 383.101 147.332C392.477 161.392 407.679 175.934 427.584 190.104C467.387 218.441 525.816 245.161 593.435 263.508C661.054 281.855 724.976 288.332 773.643 284.001C797.981 281.835 818.448 276.97 833.645 269.578ZM593.173 264.473C728.579 301.213 849.344 290.465 862.91 240.466C876.476 190.468 777.706 120.153 642.3 83.4136C506.895 46.674 386.129 57.4223 372.563 107.421C358.997 157.419 457.768 227.734 593.173 264.473Z" fill="url(#paint2_linear_2977_2973)"/>
<path d="M497.45 54.5053L478.194 60.4209L477.148 60.2436C476.359 60.1113 475.606 59.8546 474.908 59.4999L479.219 52.0453C479.316 51.8776 479.266 51.6701 479.108 51.5807C478.95 51.4914 478.744 51.5547 478.647 51.7224L474.336 59.177C473.673 58.7622 473.068 58.2551 472.551 57.6466L471.865 56.8427L467.021 36.4821C466.978 36.3009 466.796 36.1978 466.616 36.2531C466.436 36.3083 466.324 36.5018 466.367 36.683L471.212 57.0469L470.978 58.1298C470.801 58.9479 470.504 59.7356 470.115 60.4738L463.086 56.5028C462.928 56.4135 462.722 56.4768 462.625 56.6444C462.528 56.8121 462.577 57.0197 462.735 57.109L469.764 61.08C469.318 61.7862 468.786 62.4378 468.159 63.005L467.334 63.7568L448.075 69.6733C447.895 69.7286 447.783 69.922 447.826 70.1032C447.869 70.2844 448.052 70.3875 448.232 70.3322L467.488 64.4167L468.534 64.594C469.323 64.7262 470.075 64.983 470.774 65.3377L466.463 72.7923C466.366 72.96 466.415 73.1675 466.573 73.2568C466.654 73.3026 466.743 73.3072 466.828 73.2811C466.913 73.2549 466.987 73.1969 467.038 73.1142L471.349 65.6596C472.012 66.0744 472.617 66.5815 473.134 67.19L473.816 67.9916L479.221 90.7145C479.264 90.8957 479.447 90.9987 479.627 90.9435C479.807 90.8882 479.918 90.6948 479.875 90.5136L474.47 67.7907L474.706 66.7035C474.883 65.8854 475.18 65.0977 475.569 64.3594L482.598 68.3305C482.679 68.3763 482.768 68.3808 482.853 68.3547C482.938 68.3286 483.012 68.2705 483.062 68.1878C483.159 68.0202 483.11 67.8126 482.952 67.7233L475.923 63.7523C476.369 63.046 476.902 62.3945 477.528 61.8273L478.353 61.0755L497.609 55.16C497.789 55.1047 497.901 54.9113 497.858 54.73C497.815 54.5488 497.632 54.4458 497.452 54.501L497.45 54.5053Z" fill="white"/>
<g filter="url(#filter3_f_2977_2973)">
<circle cx="472.402" cy="61.5569" r="6" transform="rotate(-15.2294 472.402 61.5569)" fill="white" fill-opacity="0.4"/>
</g>
<circle cx="456.729" cy="53.7435" r="1" transform="rotate(29.7706 456.729 53.7435)" fill="white"/>
</g>
<path d="M488.844 105.75V133.531H486.438V119.156H482.438V132.094H480.125V106.375H482.438V117.062H486.438V105.75H488.844ZM468.969 109.156V124.156C471.734 124.125 474.672 123.938 478.062 123.25L478.375 125.438C474.5 126.125 471.312 126.344 468.25 126.344H466.531V109.156H468.969ZM514.281 105.75V117.062H518.781V119.125H514.281V133.531H511.844V105.75H514.281ZM507.094 108.75C507.094 116.625 503.406 123.781 494.344 128.25L492.969 126.312C500.156 122.734 504.062 117.391 504.625 110.812H494.25V108.75H507.094ZM537.969 111C537.969 114.875 540.781 118.531 544.844 120L543.469 121.906C540.422 120.688 538 118.266 536.812 115.25C535.625 118.609 533.094 121.281 529.812 122.594L528.5 120.594C532.656 119.062 535.531 115.188 535.562 110.906V107.469H537.969V111ZM551.5 105.781V126.594H549.031V114.375H542.844V112.312H549.031V105.781H551.5ZM552.125 130.875V132.938H533.531V124.219H536V130.875H552.125ZM568.156 107.781V109.844H559.719V113.312H567.844V115.25H559.719V119.094C563.766 119.078 566.297 118.938 569.281 118.344L569.531 120.375C566.281 121 563.656 121.156 559.125 121.156H557.375V107.781H568.156ZM579.719 105.781V122.625H577.375V115.031H573.469V122.438H571.188V106.312H573.469V113.031H577.375V105.781H579.719ZM579.719 124.062V133.531H577.312V126.062H561V124.062H579.719ZM605.5 105.781V114.938H609.688V117H605.5V126.594H603.062V105.781H605.5ZM600.406 109.188V111.188H583.844V109.188H590.906V105.781H593.344V109.188H600.406ZM592.125 112.719C596.094 112.719 598.781 114.75 598.812 117.906C598.781 121.031 596.094 123.031 592.125 123.031C588.125 123.031 585.406 121.031 585.438 117.906C585.406 114.75 588.125 112.719 592.125 112.719ZM592.125 114.656C589.5 114.656 587.75 115.938 587.781 117.906C587.75 119.875 589.5 121.125 592.125 121.094C594.719 121.125 596.469 119.875 596.5 117.906C596.469 115.938 594.719 114.656 592.125 114.656ZM606.781 130.875V132.938H588.125V124.938H590.531V130.875H606.781ZM628.781 113.219C628.781 118.125 632.031 123.156 635.969 125.094L634.469 127.062C631.406 125.453 628.844 122.172 627.625 118.312C626.375 122.422 623.75 125.922 620.625 127.594L619.062 125.625C623.125 123.625 626.344 118.281 626.375 113.219V108.156H628.781V113.219ZM640.969 105.75V117.031H645.625V119.156H640.969V133.531H638.531V105.75H640.969ZM668.844 105.781V112.906H673.062V115H668.844V122.344H666.406V105.781H668.844ZM668.844 123.719V133.156H651.25V123.719H668.844ZM653.656 125.625V131.156H666.469V125.625H653.656ZM660.906 107.281V114.875H650.781V118.812C655.719 118.812 659.297 118.672 663.625 117.969L663.875 119.938C659.406 120.719 655.688 120.875 650.531 120.875H648.375V112.969H658.5V109.312H648.312V107.281H660.906ZM700.125 117.438V119.406H674.781V117.438H700.125ZM697.094 113.156V115.156H678.156V106.719H696.812V108.688H680.625V113.156H697.094ZM696.844 121.906V128.344H680.344V131.219H697.688V133.219H677.906V126.5H694.438V123.812H677.844V121.906H696.844ZM717.844 108.844V110.281C717.812 112.469 717.812 116.156 717.031 121.312L714.562 121.094C715.312 116.438 715.375 113.062 715.375 110.844H703.719V108.844H717.844ZM710.562 116.781V125.219C713.641 125.109 716.797 124.906 719.688 124.562L719.812 126.406C713.969 127.312 707.438 127.438 702.469 127.406L702.156 125.375C703.984 125.359 706.016 125.344 708.156 125.281V116.781H710.562ZM723.875 105.75V117.375H728.375V119.5H723.875V133.531H721.438V105.75H723.875ZM448.953 169.688V171.75H437.359V181.531H434.953V171.75H423.516V169.688H448.953ZM436.172 154.875C442.016 154.875 445.953 157.219 445.953 161C445.953 164.688 442.016 167.031 436.172 167.031C430.328 167.031 426.391 164.688 426.391 161C426.391 157.219 430.328 154.875 436.172 154.875ZM436.172 156.875C431.828 156.875 428.891 158.5 428.922 161C428.891 163.469 431.828 165.062 436.172 165.062C440.484 165.062 443.453 163.469 443.453 161C443.453 158.5 440.484 156.875 436.172 156.875ZM474.141 153.75V181.594H471.703V153.75H474.141ZM465.703 156.344V166.219H455.328V172.781C459.938 172.781 464.047 172.578 469.016 171.781L469.266 173.844C464.141 174.656 459.922 174.844 455.141 174.844H452.828V164.219H463.234V158.375H452.766V156.344H465.703ZM501.797 153.75V181.531H499.359V153.75H501.797ZM487.516 156.781C487.484 163.344 485.828 169.938 480.797 175.188L478.859 173.781C483.016 169.547 484.859 164.375 485.203 158.844H479.891V156.781H487.516ZM495.297 156.781C495.297 163.312 494.234 171.031 489.172 177.062L487.047 175.719C491.344 170.812 492.719 164.641 492.984 158.844H488.422V156.781H495.297ZM529.453 153.75V181.594H527.016V153.75H529.453ZM521.016 156.344V166.219H510.641V172.781C515.25 172.781 519.359 172.578 524.328 171.781L524.578 173.844C519.453 174.656 515.234 174.844 510.453 174.844H508.141V164.219H518.547V158.375H508.078V156.344H521.016ZM567.516 170.562V172.625H556.047V181.594H553.641V172.625H542.203V170.562H567.516ZM556.078 159.25C556.078 162.719 560.922 165.75 565.891 166.438L564.984 168.406C560.688 167.75 556.641 165.594 554.891 162.562C553.109 165.625 549 167.75 544.703 168.406L543.797 166.438C548.734 165.75 553.641 162.75 553.641 159.25V159.219H544.672V157.219H553.641V153.75H556.047V157.219H565.078V159.219H556.078V159.25ZM592.891 171.719V181.594H590.422V173.688H574.203V171.719H592.891ZM592.891 153.75V170.125H590.422V163H584.641C584.109 166.375 581.234 168.656 577.516 168.625C573.359 168.656 570.297 165.906 570.297 161.969C570.297 158.094 573.359 155.344 577.516 155.344C581.234 155.344 584.109 157.609 584.641 160.938H590.422V153.75H592.891ZM577.516 157.438C574.734 157.438 572.641 159.344 572.641 161.969C572.641 164.688 574.734 166.562 577.516 166.562C580.234 166.562 582.328 164.688 582.328 161.969C582.328 159.344 580.234 157.438 577.516 157.438ZM610.172 154.25C616.359 154.25 619.984 155.938 619.984 159.031C619.984 162.188 616.359 163.875 610.172 163.906C603.984 163.875 600.328 162.188 600.328 159.031C600.328 155.938 603.984 154.25 610.172 154.25ZM610.172 156.094C605.547 156.094 602.859 157.219 602.891 159.031C602.859 160.969 605.547 162.031 610.172 162.031C614.766 162.031 617.484 160.969 617.484 159.031C617.484 157.219 614.766 156.094 610.172 156.094ZM622.828 165.781V167.781H597.516V165.781H622.828ZM619.578 170.188V176.406H603.078V179.281H620.422V181.219H600.641V174.594H617.172V172.062H600.578V170.188H619.578ZM645.766 171.312C651.734 171.312 655.516 173.188 655.516 176.406C655.516 179.594 651.734 181.469 645.766 181.469C639.828 181.469 636.047 179.594 636.047 176.406C636.047 173.188 639.828 171.312 645.766 171.312ZM645.766 173.188C641.328 173.219 638.453 174.438 638.484 176.406C638.453 178.344 641.328 179.531 645.766 179.531C650.203 179.531 653.047 178.344 653.078 176.406C653.047 174.438 650.203 173.219 645.766 173.188ZM655.297 155.188V157.531C655.297 159.781 655.297 162.031 654.516 164.906L652.109 164.625C652.859 161.75 652.859 159.719 652.859 157.531V157.188H636.234V155.188H655.297ZM658.516 166.719V168.719H633.234V166.719H643.703V161.344H646.109V166.719H658.516ZM686.266 169.594V171.625H679.547V181.531H677.078V171.625H669.953V181.531H667.422V171.625H660.828V169.594H686.266ZM673.484 154.875C679.328 154.875 683.266 157.219 683.266 160.938C683.266 164.625 679.328 166.969 673.484 166.938C667.641 166.969 663.703 164.625 663.703 160.938C663.703 157.219 667.641 154.875 673.484 154.875ZM673.484 156.875C669.141 156.875 666.203 158.469 666.234 160.938C666.203 163.406 669.141 164.969 673.484 164.969C677.797 164.969 680.766 163.406 680.766 160.938C680.766 158.469 677.797 156.875 673.484 156.875ZM710.016 153.75V165.219H714.672V167.25H710.016V181.531H707.578V153.75H710.016ZM704.891 158.219V160.25H688.359V158.219H695.516V154.094H697.953V158.219H704.891ZM696.766 162.562C700.703 162.562 703.547 165.188 703.578 168.938C703.547 172.688 700.703 175.312 696.766 175.312C692.797 175.312 689.922 172.688 689.953 168.938C689.922 165.188 692.797 162.562 696.766 162.562ZM696.766 164.625C694.172 164.625 692.266 166.438 692.297 168.938C692.266 171.469 694.172 173.25 696.766 173.219C699.328 173.25 701.203 171.469 701.234 168.938C701.203 166.438 699.328 164.625 696.766 164.625ZM724.422 161.656C724.422 166.062 726.578 170.844 730.266 173.031L728.859 174.938C726.188 173.312 724.266 170.344 723.297 166.969C722.266 170.656 720.203 173.828 717.422 175.531L715.859 173.688C719.703 171.438 722.047 166.5 722.047 161.75V156.375H724.422V161.656ZM739.984 153.75V181.531H737.609V153.75H739.984ZM734.234 154.344V180.125H731.922V165.812H727.203V163.719H731.922V154.344H734.234ZM769.266 175.906V177.969H743.828V175.906H750.141V168.406C747.766 167.172 746.328 165.172 746.328 162.656C746.328 158.344 750.547 155.531 756.484 155.5C762.422 155.531 766.641 158.344 766.641 162.656C766.641 165.125 765.25 167.109 762.953 168.344V175.906H769.266ZM756.484 157.531C751.922 157.5 748.703 159.562 748.703 162.656C748.703 165.75 751.922 167.844 756.484 167.844C761.016 167.844 764.266 165.75 764.266 162.656C764.266 159.562 761.016 157.5 756.484 157.531ZM752.547 175.906H760.484V169.281C759.281 169.609 757.938 169.781 756.484 169.781C755.062 169.781 753.734 169.625 752.547 169.312V175.906ZM775.984 156.375L775.766 172.625H773.141L772.922 156.375H775.984ZM774.453 179.188C773.359 179.188 772.422 178.281 772.453 177.156C772.422 176.062 773.359 175.156 774.453 175.156C775.547 175.156 776.453 176.062 776.453 177.156C776.453 178.281 775.547 179.188 774.453 179.188Z" fill="white"/>
<defs>
<filter id="filter0_f_2977_2973" x="-282" y="10" width="642" height="642" filterUnits="userSpaceOnUse" color-interpolation-filters="sRGB">
<feFlood flood-opacity="0" result="BackgroundImageFix"/>
<feBlend mode="normal" in="SourceGraphic" in2="BackgroundImageFix" result="shape"/>
<feGaussianBlur stdDeviation="52" result="effect1_foregroundBlur_2977_2973"/>
</filter>
<filter id="filter1_f_2977_2973" x="983" y="-164" width="416" height="416" filterUnits="userSpaceOnUse" color-interpolation-filters="sRGB">
<feFlood flood-opacity="0" result="BackgroundImageFix"/>
<feBlend mode="normal" in="SourceGraphic" in2="BackgroundImageFix" result="shape"/>
<feGaussianBlur stdDeviation="52" result="effect1_foregroundBlur_2977_2973"/>
</filter>
<filter id="filter2_b_2977_2973" x="-124" y="-91" width="357" height="357" filterUnits="userSpaceOnUse" color-interpolation-filters="sRGB">
<feFlood flood-opacity="0" result="BackgroundImageFix"/>
<feGaussianBlur in="BackgroundImageFix" stdDeviation="20"/>
<feComposite in2="SourceAlpha" operator="in" result="effect1_backgroundBlur_2977_2973"/>
<feBlend mode="normal" in="SourceGraphic" in2="effect1_backgroundBlur_2977_2973" result="shape"/>
</filter>
<filter id="filter3_f_2977_2973" x="458.4" y="47.5547" width="28.0039" height="28.0039" filterUnits="userSpaceOnUse" color-interpolation-filters="sRGB">
<feFlood flood-opacity="0" result="BackgroundImageFix"/>
<feBlend mode="normal" in="SourceGraphic" in2="BackgroundImageFix" result="shape"/>
<feGaussianBlur stdDeviation="4" result="effect1_foregroundBlur_2977_2973"/>
</filter>
<linearGradient id="paint0_linear_2977_2973" x1="109.71" y1="-51" x2="54.5" y2="226" gradientUnits="userSpaceOnUse">
<stop offset="0.272172" stop-color="#BFF3F4" stop-opacity="0"/>
<stop offset="1" stop-color="#C4DDDE"/>
</linearGradient>
<linearGradient id="paint1_linear_2977_2973" x1="-15.4639" y1="-71.9416" x2="118.753" y2="226" gradientUnits="userSpaceOnUse">
<stop stop-color="white" stop-opacity="0.73"/>
<stop offset="0.291667" stop-color="white" stop-opacity="0.03"/>
<stop offset="1" stop-color="white" stop-opacity="0.37"/>
</linearGradient>
<linearGradient id="paint2_linear_2977_2973" x1="508" y1="62.4987" x2="512.5" y2="240.999" gradientUnits="userSpaceOnUse">
<stop offset="0.0297224" stop-color="white"/>
<stop offset="1" stop-color="white" stop-opacity="0"/>
</linearGradient>
<clipPath id="clip0_2977_2973">
<rect width="1200" height="340" rx="15" fill="white"/>
</clipPath>
</defs>
</svg>
