<svg width="443" height="234" viewBox="0 0 443 234" fill="none" xmlns="http://www.w3.org/2000/svg">
<path d="M17.0859 14.6172V35.0781H2.35547V14.6172H17.0859ZM5.625 17.2539V32.3711H13.7812V17.2539H5.625ZM25.6992 11.4883V23.8281H30.7617V26.6406H25.6992V42.9883H22.3594V11.4883H25.6992ZM46.6172 12.1562C53.543 12.1562 57.8672 14.4062 57.8672 18.2031C57.8672 21.9297 53.543 24.1445 46.6172 24.1445C39.7266 24.1445 35.3672 21.9297 35.3672 18.2031C35.3672 14.4062 39.7266 12.1562 46.6172 12.1562ZM46.6172 14.793C41.7656 14.793 38.7773 16.0234 38.8125 18.2031C38.7773 20.3125 41.7656 21.5078 46.6172 21.543C51.4336 21.5078 54.4219 20.3125 54.4219 18.2031C54.4219 16.0234 51.4336 14.793 46.6172 14.793ZM57.4805 32.0898V42.6016H35.7188V32.0898H57.4805ZM39.0234 34.7617V39.8945H54.2461V34.7617H39.0234ZM60.9961 26.5703V29.2773H32.2734V26.5703H60.9961ZM79.3477 13.5977V27.168H64.6172V13.5977H79.3477ZM67.8867 16.2695V24.4961H76.0781V16.2695H67.8867ZM88.1367 11.4883V18.8008H92.707V21.5781H88.1367V29.3477H84.7969V11.4883H88.1367ZM88.6289 31.1055V33.7773H80.0156C80.4727 36.7656 84.5684 39.5254 89.9297 40.3164L88.6992 42.8828C83.918 42.1445 79.9805 39.9473 78.1523 36.9414C76.3594 39.9648 72.4395 42.1445 67.6758 42.8477L66.4453 40.2812C71.8418 39.5254 75.8496 36.8535 76.3945 33.7773H67.7109V31.1055H88.6289ZM119.988 20.6992V23.3711H98.2969V12.6133H101.602V20.6992H119.988ZM123.293 27.3438V30.0156H94.4648V27.3438H123.293ZM120.199 39.5078V42.25H98.0508V33.0039H101.391V39.5078H120.199ZM160.523 11.5234V34.7266H157.184V11.5234H160.523ZM161.473 39.6133V42.3203H139.922V32.582H143.297V39.6133H161.473ZM146.109 18.8359C146.109 22.7734 149.133 26.4297 154.02 27.8711L152.402 30.5078C148.711 29.3652 145.934 26.9922 144.527 23.9336C143.104 27.2559 140.326 29.8398 136.582 31.0352L134.93 28.4336C139.816 26.8867 142.77 23.0195 142.77 18.8359V18.2031H135.773V15.5312H142.77V11.6289H146.145V15.5312H153.07V18.2031H146.109V18.8359ZM190.582 13.457V16.2344C190.582 19.2227 190.582 22.457 189.703 26.957H194.238V29.6992H181.477V43.0234H178.102V29.6992H165.516V26.957H186.328C187.277 22.4746 187.277 19.1699 187.277 16.2344V16.1992H169.031V13.457H190.582ZM225.387 24.3906V27.0625H196.629V24.3906H225.387ZM221.977 19.4336V22.1055H200.391V12.4023H221.66V15.1094H203.73V19.4336H221.977ZM221.73 29.5586V37.1875H203.379V40H222.609V42.6367H200.109V34.7266H218.426V32.125H200.074V29.5586H221.73ZM245.285 14.8633V16.7969C245.285 19.4336 245.285 23.5117 244.371 29.1367L241.066 28.8906C241.857 23.8457 241.945 20.207 241.98 17.5703H229.184V14.8633H245.285ZM237.199 23.8633V33.2852C240.557 33.1797 243.967 32.9512 247.113 32.5469L247.289 35.043C240.715 36.0977 233.402 36.2383 227.812 36.2031L227.426 33.4961C229.395 33.4785 231.592 33.4609 233.895 33.3906V23.8633H237.199ZM252.281 11.4883V24.4961H257.098V27.3438H252.281V42.9883H248.906V11.4883H252.281ZM150.152 65.4883V78.25H155.215V81.0273H150.152V96.9883H146.848V65.4883H150.152ZM144.105 70.4102V73.1523H125.438V70.4102H133.207V65.9102H136.547V70.4102H144.105ZM134.895 75.4727C139.395 75.4727 142.699 78.4961 142.734 82.7852C142.699 87.1094 139.395 90.0977 134.895 90.1328C130.359 90.0977 127.055 87.1094 127.055 82.7852C127.055 78.4961 130.359 75.4727 134.895 75.4727ZM134.895 78.2148C132.223 78.2148 130.219 80.0781 130.254 82.7852C130.219 85.5273 132.223 87.3555 134.895 87.3203C137.566 87.3555 139.535 85.5273 139.535 82.7852C139.535 80.0781 137.566 78.2148 134.895 78.2148ZM183.797 65.4883V96.9883H180.633V65.4883H183.797ZM177.152 66.2969V95.4414H173.988V80.8164H167.836C165.955 84.4727 162.967 87.6719 158.52 90.2734L156.621 87.8828C163.301 83.9102 166.518 78.6191 167.098 72.1328H158.098V69.3906H170.402C170.385 72.4668 169.963 75.4023 168.996 78.1445H173.988V66.2969H177.152ZM29.8828 138.473V141.215H17.1562V151.023H13.8516V141.215H1.16016V138.473H29.8828ZM27.1406 123.285V125.992H17.1914C17.3848 129.473 22.1309 132.865 28.125 133.621L26.9297 136.293C21.8672 135.59 17.5605 133.217 15.5391 130C13.4824 133.252 9.14062 135.59 4.07812 136.293L2.84766 133.621C8.8418 132.865 13.623 129.543 13.8516 125.992H3.86719V123.285H13.8516V119.488H17.1562V123.285H27.1406ZM58.5352 139.738V151.023H55.1953V142.41H37.1953V139.738H58.5352ZM58.5352 119.488V138.051H55.1953V130.211H49.0781C48.4102 133.973 45.1758 136.504 40.9922 136.469C36.2461 136.504 32.7305 133.34 32.7305 128.84C32.7305 124.41 36.2461 121.211 40.9922 121.246C45.1758 121.211 48.3926 123.76 49.0781 127.469H55.1953V119.488H58.5352ZM40.9922 124.059C38.0742 124.059 35.9297 126.027 35.9297 128.84C35.9297 131.723 38.0742 133.656 40.9922 133.656C43.8398 133.656 45.9844 131.723 45.9844 128.84C45.9844 126.027 43.8398 124.059 40.9922 124.059ZM77.7305 120.016C84.832 120.016 88.9805 121.914 88.9805 125.43C88.9805 128.945 84.832 130.879 77.7305 130.879C70.6289 130.879 66.4805 128.945 66.4805 125.43C66.4805 121.914 70.6289 120.016 77.7305 120.016ZM77.7305 122.477C72.7031 122.477 69.9258 123.566 69.9609 125.43C69.9258 127.363 72.7031 128.383 77.7305 128.383C82.7578 128.383 85.5352 127.363 85.5352 125.43C85.5352 123.566 82.7578 122.477 77.7305 122.477ZM92.1094 132.812V135.484H63.3867V132.812H92.1094ZM88.4883 137.91V145.293H70.1367V148.105H89.3672V150.672H66.8672V142.867H85.1836V140.406H66.832V137.91H88.4883ZM117.492 139.281C124.312 139.281 128.602 141.426 128.637 145.117C128.602 148.773 124.312 150.953 117.492 150.918C110.742 150.953 106.418 148.773 106.418 145.117C106.418 141.426 110.742 139.281 117.492 139.281ZM117.492 141.812C112.711 141.812 109.723 143.043 109.758 145.117C109.723 147.156 112.711 148.352 117.492 148.352C122.309 148.352 125.297 147.156 125.332 145.117C125.297 143.043 122.309 141.812 117.492 141.812ZM128.391 121.035V123.672C128.391 126.203 128.391 128.805 127.512 132.039L124.242 131.688C125.086 128.471 125.086 126.15 125.086 123.707H106.664V121.035H128.391ZM131.977 133.973V136.68H103.324V133.973H114.82V128.066H118.09V133.973H131.977ZM163.195 137.277V140.02H155.883V150.988H152.508V140.02H144.984V150.988H141.539V140.02H134.367V137.277H163.195ZM148.711 120.684C155.355 120.684 159.926 123.391 159.926 127.645C159.926 131.828 155.355 134.5 148.711 134.465C142.031 134.5 137.496 131.828 137.496 127.645C137.496 123.391 142.031 120.684 148.711 120.684ZM148.711 123.355C144.035 123.391 140.906 125.008 140.941 127.645C140.906 130.211 144.035 131.828 148.711 131.828C153.387 131.828 156.516 130.211 156.516 127.645C156.516 125.008 153.387 123.391 148.711 123.355ZM190.055 119.488V132.25H195.117V135.027H190.055V150.988H186.75V119.488H190.055ZM184.008 124.41V127.152H165.34V124.41H173.109V119.91H176.449V124.41H184.008ZM174.797 129.473C179.297 129.473 182.602 132.496 182.637 136.785C182.602 141.109 179.297 144.098 174.797 144.133C170.262 144.098 166.957 141.109 166.957 136.785C166.957 132.496 170.262 129.473 174.797 129.473ZM174.797 132.215C172.125 132.215 170.121 134.078 170.156 136.785C170.121 139.527 172.125 141.355 174.797 141.32C177.469 141.355 179.438 139.527 179.438 136.785C179.438 134.078 177.469 132.215 174.797 132.215ZM206.227 128.102C206.227 133.129 208.336 138.508 212.555 141.074L210.691 143.641C207.738 141.865 205.734 138.719 204.68 135.062C203.502 139.07 201.34 142.48 198.281 144.344L196.207 141.848C200.672 139.176 202.992 133.621 202.992 128.242V122.371H206.227V128.102ZM223.734 119.488V150.988H220.535V119.488H223.734ZM217.195 120.086V149.441H214.031V133.34H209.145V130.562H214.031V120.086H217.195ZM256.57 144.273V147.051H227.742V144.273H234.633V136.047C232.049 134.623 230.484 132.355 230.484 129.543C230.484 124.586 235.336 121.316 242.086 121.316C248.871 121.316 253.723 124.586 253.723 129.543C253.723 132.32 252.211 134.553 249.68 135.977V144.273H256.57ZM242.086 123.988C237.129 123.988 233.719 126.133 233.719 129.543C233.719 132.918 237.129 135.133 242.086 135.133C247.008 135.133 250.488 132.918 250.488 129.543C250.488 126.133 247.008 123.988 242.086 123.988ZM237.938 144.273H246.305V137.242C245.021 137.576 243.598 137.734 242.086 137.734C240.609 137.734 239.203 137.576 237.938 137.277V144.273Z" fill="white"/>
<path d="M29.9883 90.2383V93.0508H1.16016V90.2383H29.9883ZM27.3516 68.5117V71.2539H22.5352V81.7656H27.2461V84.4375H3.69141V81.7656H8.40234V71.2539H3.62109V68.5117H27.3516ZM11.707 81.7656H19.2656V71.2539H11.707V81.7656ZM56.8125 65.4883V77.793H61.875V80.6055H56.8125V97.0586H53.5078V65.4883H56.8125ZM47.918 68.3359V79.9023H36.8789V86.7227C42.293 86.7051 46.3008 86.5117 50.9062 85.668L51.2227 88.375C46.3008 89.2891 42.0469 89.5 36.1406 89.5352H33.5742V77.1953H44.6133V71.043H33.5039V68.3359H47.918ZM89.4727 65.4883V97.0586H86.1328V65.4883H89.4727ZM72.6328 67.8438C77.3086 67.8438 80.7539 72.1328 80.7539 78.8828C80.7539 85.668 77.3086 89.957 72.6328 89.957C67.8867 89.957 64.4766 85.668 64.4766 78.8828C64.4766 72.1328 67.8867 67.8438 72.6328 67.8438ZM72.6328 70.832C69.7148 70.832 67.7109 73.9258 67.7109 78.8828C67.7109 83.875 69.7148 86.9688 72.6328 86.9688C75.5156 86.9688 77.5195 83.875 77.5195 78.8828C77.5195 73.9258 75.5156 70.832 72.6328 70.832ZM99.4219 67.457V72.2031H107.824V67.457H111.129V82.5039H96.1523V67.457H99.4219ZM99.4219 79.832H107.824V74.8398H99.4219V79.832ZM120.621 65.4883V86.8633H117.281V65.4883H120.621ZM111.973 85.8086C111.938 89.9922 116.402 93.2969 122.379 94.2461L121.148 96.8477C116.209 96.0391 112.096 93.666 110.215 90.2031C108.334 93.666 104.238 96.0391 99.3164 96.8477L98.0508 94.2461C104.027 93.2969 108.492 89.9922 108.492 85.8086V85.1406H111.973V85.8086Z" fill="#56C9CC"/>
<path d="M12.0156 191.375V205.297H10.7812V191.375H12.0156ZM2.59375 192.562V196.234H6.73438V192.562H7.9375V201.938H1.375V192.562H2.59375ZM2.59375 200.906H6.73438V197.219H2.59375V200.906ZM21.6406 192.156V197.812H15.125V192.156H21.6406ZM16.3281 193.156V196.844H20.4375V193.156H16.3281ZM25.8438 191.375V198.547H24.6406V191.375H25.8438ZM25.8438 199.234V202.547H18.0625V204.109H26.3438V205.109H16.8438V201.641H24.6406V200.219H16.8281V199.234H25.8438ZM39.7344 191.391V201.672H38.5V196.328H35.2188V199.297H28.9219V192.312H30.1406V194.781H34.0156V192.312H35.2188V195.297H38.5V191.391H39.7344ZM40.0469 203.938V204.969H30.75V200.656H31.9844V203.938H40.0469ZM30.1406 198.281H34.0156V195.75H30.1406V198.281ZM54.0469 193.438V194.453H42.6719V193.438H47.7656V191.609H48.9688V193.438H54.0469ZM54.7656 202.625V203.641H42.0469V202.625H47.7656V200.672C45.2969 200.539 43.7969 199.578 43.8125 198.016C43.7969 196.359 45.5469 195.391 48.375 195.406C51.1719 195.391 52.9375 196.359 52.9375 198.016C52.9375 199.578 51.4219 200.539 48.9688 200.672V202.625H54.7656ZM48.375 196.375C46.2969 196.375 45.0312 196.984 45.0469 198.016C45.0312 199.078 46.2969 199.672 48.375 199.688C50.4219 199.672 51.6875 199.078 51.6875 198.016C51.6875 196.984 50.4219 196.375 48.375 196.375ZM66.625 191.375V197.031H68.875V198.062H66.625V205.266H65.4062V191.375H66.625ZM63.0312 192.875C63.0312 196.812 61.1875 200.391 56.6562 202.625L55.9688 201.656C59.5625 199.867 61.5156 197.195 61.7969 193.906H56.6094V192.875H63.0312ZM78.4219 200.703C78.4219 201.93 79.0781 203.234 80.4062 203.984C81.7188 203.164 82.4219 201.781 82.4219 200.703V199.938H83.625V200.703C83.625 202.125 84.6719 203.562 86.4531 204.172L85.8438 205.078C84.4531 204.586 83.4766 203.617 83 202.453C82.5703 203.578 81.7188 204.641 80.4375 205.188C79.0859 204.672 78.2266 203.648 77.8125 202.484C77.3203 203.609 76.3594 204.578 75.0312 205.078L74.4062 204.172C76.1562 203.516 77.2188 202.031 77.2344 200.703V199.938H78.4219V200.703ZM85.1875 191.391V199.328H83.9688V191.391H85.1875ZM77.6875 192.203C79.7969 192.203 81.3281 193.516 81.3281 195.453C81.3281 197.359 79.7969 198.672 77.6875 198.672C75.5781 198.672 74.0469 197.359 74.0469 195.453C74.0469 193.516 75.5781 192.203 77.6875 192.203ZM77.6875 193.25C76.2656 193.234 75.2344 194.156 75.25 195.453C75.2344 196.734 76.2656 197.641 77.6875 197.656C79.0938 197.641 80.125 196.734 80.125 195.453C80.125 194.156 79.0938 193.234 77.6875 193.25ZM98.7812 195.594V196.578H89.2656V191.891H90.4844V195.594H98.7812ZM100.25 198.469V199.469H87.5312V198.469H100.25ZM98.8594 203.906V204.922H89.1875V200.891H90.4062V203.906H98.8594ZM118.094 199.344V200.375H112.297V205.266H111.094V200.375H105.375V199.344H118.094ZM111.703 191.938C114.625 191.938 116.594 193.109 116.594 195C116.594 196.844 114.625 198.016 111.703 198.016C108.781 198.016 106.812 196.844 106.812 195C106.812 193.109 108.781 191.938 111.703 191.938ZM111.703 192.938C109.531 192.938 108.062 193.75 108.078 195C108.062 196.234 109.531 197.031 111.703 197.031C113.859 197.031 115.344 196.234 115.344 195C115.344 193.75 113.859 192.938 111.703 192.938ZM130.688 191.375V205.297H129.469V191.375H130.688ZM126.469 192.672V197.609H121.281V200.891C123.586 200.891 125.641 200.789 128.125 200.391L128.25 201.422C125.688 201.828 123.578 201.922 121.188 201.922H120.031V196.609H125.234V193.688H120V192.672H126.469ZM140.062 192.641V199.031H133.641V192.641H140.062ZM134.844 193.641V198.047H138.875V193.641H134.844ZM143.906 191.375V195.609H146V196.641H143.906V201.562H142.688V191.375H143.906ZM144.547 203.938V204.969H135.219V200.594H136.422V203.938H144.547ZM151.422 192.391C153.609 192.391 155.156 193.719 155.156 195.656C155.156 197.594 153.609 198.922 151.422 198.922C149.234 198.922 147.656 197.594 147.672 195.656C147.656 193.719 149.234 192.391 151.422 192.391ZM151.422 193.469C149.938 193.469 148.859 194.359 148.875 195.656C148.859 196.953 149.938 197.844 151.422 197.844C152.891 197.844 153.953 196.953 153.953 195.656C153.953 194.359 152.891 193.469 151.422 193.469ZM158.266 191.375V205.297H157.047V191.375H158.266ZM146.953 201.188C149.516 201.188 153.047 201.172 156.125 200.719L156.219 201.625C153.047 202.219 149.625 202.234 147.125 202.234L146.953 201.188ZM171.125 200.109C173.984 200.109 175.703 201.047 175.703 202.672C175.703 204.312 173.984 205.25 171.125 205.266C168.266 205.25 166.516 204.312 166.516 202.672C166.516 201.047 168.266 200.109 171.125 200.109ZM171.125 201.078C169.031 201.094 167.734 201.672 167.75 202.672C167.734 203.672 169.031 204.266 171.125 204.266C173.234 204.266 174.516 203.672 174.516 202.672C174.516 201.672 173.234 201.094 171.125 201.078ZM175.578 191.375V194.875H177.672V195.922H175.578V199.734H174.359V191.375H175.578ZM166.516 192.25V194.375H170.562V192.25H171.781V198.656H165.312V192.25H166.516ZM166.516 197.656H170.562V195.344H166.516V197.656ZM184.875 191.625C187.969 191.625 189.781 192.469 189.781 194.016C189.781 195.594 187.969 196.438 184.875 196.453C181.781 196.438 179.953 195.594 179.953 194.016C179.953 192.469 181.781 191.625 184.875 191.625ZM184.875 192.547C182.562 192.547 181.219 193.109 181.234 194.016C181.219 194.984 182.562 195.516 184.875 195.516C187.172 195.516 188.531 194.984 188.531 194.016C188.531 193.109 187.172 192.547 184.875 192.547ZM191.203 197.391V198.391H178.547V197.391H191.203ZM189.578 199.594V202.703H181.328V204.141H190V205.109H180.109V201.797H188.375V200.531H180.078V199.594H189.578ZM203.406 192.641V199.031H196.984V192.641H203.406ZM198.188 193.641V198.047H202.219V193.641H198.188ZM207.25 191.375V195.609H209.344V196.641H207.25V201.562H206.031V191.375H207.25ZM207.891 203.938V204.969H198.562V200.594H199.766V203.938H207.891ZM222.891 197.219V198.203H210.219V197.219H222.891ZM221.375 195.078V196.078H211.906V191.859H221.234V192.844H213.141V195.078H221.375ZM221.25 199.453V202.672H213V204.109H221.672V205.109H211.781V201.75H220.047V200.406H211.75V199.453H221.25ZM227.781 192.453C229.672 192.469 231.031 194.086 231.234 196.688H234.344V191.375H235.562V205.297H234.344V197.703H231.25C231.102 200.422 229.719 202.125 227.781 202.125C225.734 202.125 224.297 200.25 224.297 197.297C224.297 194.344 225.734 192.469 227.781 192.453ZM227.781 193.547C226.406 193.562 225.469 195.031 225.469 197.297C225.469 199.562 226.406 201.031 227.781 201.031C229.141 201.031 230.094 199.562 230.094 197.297C230.094 195.031 229.141 193.562 227.781 193.547ZM254.609 202.469V203.484H241.891V202.469H247.609V199.469H243.391V192.359H244.625V194.875H251.844V192.359H253.047V199.469H248.812V202.469H254.609ZM244.625 198.469H251.844V195.875H244.625V198.469ZM259.844 195.328C259.844 197.531 260.922 199.922 262.766 201.016L262.062 201.969C260.727 201.156 259.766 199.672 259.281 197.984C258.766 199.828 257.734 201.414 256.344 202.266L255.562 201.344C257.484 200.219 258.656 197.75 258.656 195.375V192.688H259.844V195.328ZM267.625 191.375V205.266H266.438V191.375H267.625ZM264.75 191.672V204.562H263.594V197.406H261.234V196.359H263.594V191.672H264.75ZM282.266 202.453V203.484H269.547V202.453H272.703V198.703C271.516 198.086 270.797 197.086 270.797 195.828C270.797 193.672 272.906 192.266 275.875 192.25C278.844 192.266 280.953 193.672 280.953 195.828C280.953 197.062 280.258 198.055 279.109 198.672V202.453H282.266ZM275.875 193.266C273.594 193.25 271.984 194.281 271.984 195.828C271.984 197.375 273.594 198.422 275.875 198.422C278.141 198.422 279.766 197.375 279.766 195.828C279.766 194.281 278.141 193.25 275.875 193.266ZM273.906 202.453H277.875V199.141C277.273 199.305 276.602 199.391 275.875 199.391C275.164 199.391 274.5 199.312 273.906 199.156V202.453ZM284.844 204.094C284.297 204.094 283.828 203.641 283.844 203.078C283.828 202.531 284.297 202.078 284.844 202.078C285.391 202.078 285.844 202.531 285.844 203.078C285.844 203.641 285.391 204.094 284.844 204.094ZM12.0312 215.391V225.656H10.8125V215.391H12.0312ZM12.4688 227.938V228.969H3.0625V224.703H4.28125V227.938H12.4688ZM5.60938 218.625C5.60938 220.469 7.09375 222.094 9.17188 222.734L8.5625 223.719C6.92969 223.195 5.64062 222.086 5.01562 220.641C4.40625 222.195 3.125 223.398 1.46875 223.969L0.84375 223C2.92188 222.328 4.39062 220.578 4.39062 218.625V218.25H1.1875V217.266H4.39062V215.453H5.625V217.266H8.79688V218.25H5.60938V218.625ZM25.375 216.281V217.5C25.375 218.82 25.375 220.25 24.9844 222.25H27.0469V223.266H21.3125V229.297H20.0781V223.266H14.3906V222.25H23.7344C24.1562 220.25 24.1562 218.789 24.1562 217.5V217.297H15.9844V216.281H25.375ZM40.8906 221.219V222.203H28.2188V221.219H40.8906ZM39.375 219.078V220.078H29.9062V215.859H39.2344V216.844H31.1406V219.078H39.375ZM39.25 223.453V226.672H31V228.109H39.6719V229.109H29.7812V225.75H38.0469V224.406H29.75V223.453H39.25ZM53.9531 215.375V229.266H52.7656V215.375H53.9531ZM51.1562 215.672V228.562H49.9844V221.812H48.2031C48.0703 224.516 46.9219 226.203 45.2031 226.203C43.3906 226.203 42.2188 224.328 42.2188 221.375C42.2188 218.422 43.3906 216.547 45.2031 216.547C46.8906 216.547 48.0312 218.18 48.1875 220.797H49.9844V215.672H51.1562ZM45.2031 217.703C44.0781 217.703 43.3594 219.109 43.375 221.375C43.3594 223.625 44.0781 225.047 45.2031 225.031C46.3281 225.047 47.0469 223.625 47.0469 221.375C47.0469 219.109 46.3281 217.703 45.2031 217.703ZM67.7656 215.375V229.266H66.5938V215.375H67.7656ZM64.8438 215.75V228.562H63.6719V222.078H60.7344C59.8828 223.695 58.5469 225.125 56.6094 226.266L55.8906 225.375C58.9141 223.586 60.4297 221.078 60.6562 218.172H56.4844V217.156H61.875C61.8672 218.523 61.6484 219.844 61.1875 221.078H63.6719V215.75H64.8438ZM85.1875 215.391V223.938H83.9688V215.391H85.1875ZM80.7656 216.266V220.078H75.6406V222.047C78.125 222.047 79.9844 221.984 82.2344 221.609L82.375 222.625C80.0469 223 78.1406 223.078 75.5781 223.078H74.4531V219.109H79.5469V217.297H74.4219V216.266H80.7656ZM80.5781 224.219C83.5 224.219 85.2812 225.141 85.2812 226.734C85.2812 228.328 83.5 229.234 80.5781 229.234C77.6562 229.234 75.8906 228.328 75.8906 226.734C75.8906 225.141 77.6562 224.219 80.5781 224.219ZM80.5781 225.203C78.4219 225.203 77.0938 225.781 77.0938 226.734C77.0938 227.688 78.4219 228.25 80.5781 228.25C82.7344 228.25 84.0469 227.688 84.0469 226.734C84.0469 225.781 82.7344 225.203 80.5781 225.203ZM98.625 216.797V218.516C98.625 220.562 98.625 222.453 98.0469 225.266L96.8125 225.156C97.1172 223.82 97.2734 222.664 97.3594 221.578L88.875 222.047L88.7031 221.031L97.4062 220.672C97.4297 219.938 97.4297 219.227 97.4375 218.516V217.828H89.0781V216.797H98.625ZM100.203 226.281V227.312H87.5469V226.281H100.203ZM105.562 216.281C107.703 216.297 109.25 217.609 109.266 219.547C109.25 221.289 108 222.531 106.188 222.75V225.125C107.484 225.062 108.789 224.969 110 224.812L110.078 225.734C107.141 226.234 103.844 226.266 101.406 226.25L101.203 225.219C102.32 225.211 103.617 225.203 104.953 225.156V222.75C103.109 222.539 101.844 221.297 101.859 219.547C101.844 217.609 103.391 216.297 105.562 216.281ZM105.562 217.344C104.109 217.344 103.047 218.25 103.062 219.547C103.047 220.844 104.109 221.75 105.562 221.75C107 221.75 108.047 220.844 108.062 219.547C108.047 218.25 107 217.344 105.562 217.344ZM112.109 215.375V221.109H114.375V222.172H112.109V229.266H110.891V215.375H112.109ZM130.672 215.375V229.297H129.438V215.375H130.672ZM121.25 216.562V220.234H125.391V216.562H126.594V225.938H120.031V216.562H121.25ZM121.25 224.906H125.391V221.219H121.25V224.906ZM140.297 216.156V221.812H133.781V216.156H140.297ZM134.984 217.156V220.844H139.094V217.156H134.984ZM144.5 215.375V222.547H143.297V215.375H144.5ZM144.5 223.234V226.547H136.719V228.109H145V229.109H135.5V225.641H143.297V224.219H135.484V223.234H144.5ZM158.391 215.391V225.672H157.156V220.328H153.875V223.297H147.578V216.312H148.797V218.781H152.672V216.312H153.875V219.297H157.156V215.391H158.391ZM158.703 227.938V228.969H149.406V224.656H150.641V227.938H158.703ZM148.797 222.281H152.672V219.75H148.797V222.281ZM172.703 217.438V218.453H161.328V217.438H166.422V215.609H167.625V217.438H172.703ZM173.422 226.625V227.641H160.703V226.625H166.422V224.672C163.953 224.539 162.453 223.578 162.469 222.016C162.453 220.359 164.203 219.391 167.031 219.406C169.828 219.391 171.594 220.359 171.594 222.016C171.594 223.578 170.078 224.539 167.625 224.672V226.625H173.422ZM167.031 220.375C164.953 220.375 163.688 220.984 163.703 222.016C163.688 223.078 164.953 223.672 167.031 223.688C169.078 223.672 170.344 223.078 170.344 222.016C170.344 220.984 169.078 220.375 167.031 220.375ZM187.234 221.828V222.797H174.516V221.828H187.234ZM185.641 223.906V226.859H177.297V228.188H186.094V229.078H176.062V226.016H184.422V224.828H176.047V223.906H185.641ZM185.594 215.797V218.672H177.391V219.891H185.844V220.781H176.172V217.828H184.359V216.688H176.125V215.797H185.594ZM198.656 224.156C201.641 224.156 203.531 225.094 203.531 226.703C203.531 228.297 201.641 229.234 198.656 229.234C195.688 229.234 193.797 228.297 193.797 226.703C193.797 225.094 195.688 224.156 198.656 224.156ZM198.656 225.094C196.438 225.109 195 225.719 195.016 226.703C195 227.672 196.438 228.266 198.656 228.266C200.875 228.266 202.297 227.672 202.312 226.703C202.297 225.719 200.875 225.109 198.656 225.094ZM203.422 216.094V217.266C203.422 218.391 203.422 219.516 203.031 220.953L201.828 220.812C202.203 219.375 202.203 218.359 202.203 217.266V217.094H193.891V216.094H203.422ZM205.031 221.859V222.859H192.391V221.859H197.625V219.172H198.828V221.859H205.031ZM218.906 223.297V224.312H215.547V229.266H214.312V224.312H210.75V229.266H209.484V224.312H206.188V223.297H218.906ZM212.516 215.938C215.438 215.938 217.406 217.109 217.406 218.969C217.406 220.812 215.438 221.984 212.516 221.969C209.594 221.984 207.625 220.812 207.625 218.969C207.625 217.109 209.594 215.938 212.516 215.938ZM212.516 216.938C210.344 216.938 208.875 217.734 208.891 218.969C208.875 220.203 210.344 220.984 212.516 220.984C214.672 220.984 216.156 220.203 216.156 218.969C216.156 217.734 214.672 216.938 212.516 216.938ZM230.781 215.375V221.109H233.109V222.125H230.781V229.266H229.562V215.375H230.781ZM228.219 217.609V218.625H219.953V217.609H223.531V215.547H224.75V217.609H228.219ZM224.156 219.781C226.125 219.781 227.547 221.094 227.562 222.969C227.547 224.844 226.125 226.156 224.156 226.156C222.172 226.156 220.734 224.844 220.75 222.969C220.734 221.094 222.172 219.781 224.156 219.781ZM224.156 220.812C222.859 220.812 221.906 221.719 221.922 222.969C221.906 224.234 222.859 225.125 224.156 225.109C225.438 225.125 226.375 224.234 226.391 222.969C226.375 221.719 225.438 220.812 224.156 220.812ZM240.891 216.594V217.828H244.141V215.391H245.375V225.531H244.141V221.828H240.891V223.078H234.516V216.594H240.891ZM235.734 217.609V222.094H239.688V217.609H235.734ZM245.688 227.938V228.969H236.391V224.625H237.625V227.938H245.688ZM240.891 220.812H244.141V218.859H240.891V220.812ZM258.625 217.422C258.625 219.797 261.344 221.922 263.766 222.375L263.203 223.406C261.109 222.922 258.898 221.43 258 219.375C257.102 221.422 254.898 222.914 252.797 223.406L252.234 222.375C254.641 221.906 257.344 219.812 257.344 217.422V216.359H258.625V217.422ZM264.422 226.359V227.375H251.703V226.359H264.422ZM277.484 215.375V229.266H276.297V215.375H277.484ZM274.766 215.719V228.531H273.594V221.766H271.656V220.656H273.594V215.719H274.766ZM272.062 217.156V218.172H270.891V224.594C271.414 224.562 271.914 224.516 272.375 224.453L272.453 225.359C270.266 225.766 267.344 225.828 265.531 225.828L265.375 224.781C265.805 224.781 266.305 224.781 266.844 224.766V218.172H265.672V217.156H272.062ZM267.969 224.75C268.547 224.734 269.156 224.711 269.75 224.672V218.172H267.969V224.75ZM290.812 215.375V229.297H289.578V215.375H290.812ZM283.422 216.453C285.484 216.469 286.969 218.344 286.969 221.297C286.969 224.25 285.484 226.125 283.422 226.125C281.344 226.125 279.875 224.25 279.875 221.297C279.875 218.344 281.344 216.469 283.422 216.453ZM283.422 217.547C282.031 217.562 281.062 219.031 281.062 221.297C281.062 223.562 282.031 225.031 283.422 225.031C284.812 225.031 285.781 223.562 285.781 221.297C285.781 219.031 284.812 217.562 283.422 217.547ZM300.109 217.422C300.109 219.797 302.828 221.922 305.25 222.375L304.688 223.406C302.594 222.922 300.383 221.43 299.484 219.375C298.586 221.422 296.383 222.914 294.281 223.406L293.719 222.375C296.125 221.906 298.828 219.812 298.828 217.422V216.359H300.109V217.422ZM305.906 226.359V227.375H293.188V226.359H305.906ZM318.922 215.375V229.266H317.734V215.375H318.922ZM316.125 215.672V228.562H314.953V221.812H313.172C313.039 224.516 311.891 226.203 310.172 226.203C308.359 226.203 307.188 224.328 307.188 221.375C307.188 218.422 308.359 216.547 310.172 216.547C311.859 216.547 313 218.18 313.156 220.797H314.953V215.672H316.125ZM310.172 217.703C309.047 217.703 308.328 219.109 308.344 221.375C308.328 223.625 309.047 225.047 310.172 225.031C311.297 225.047 312.016 223.625 312.016 221.375C312.016 219.109 311.297 217.703 310.172 217.703ZM336.328 215.375V222.828H335.109V215.375H336.328ZM328.547 223.531V225.219H335.109V223.531H336.328V229.078H327.328V223.531H328.547ZM328.547 228.078H335.109V226.203H328.547V228.078ZM328.828 216.062C330.938 216.047 332.469 217.344 332.469 219.25C332.469 221.141 330.938 222.438 328.828 222.438C326.719 222.438 325.188 221.141 325.188 219.25C325.188 217.344 326.719 216.047 328.828 216.062ZM328.828 217.094C327.406 217.078 326.375 217.984 326.391 219.25C326.375 220.516 327.406 221.422 328.828 221.422C330.234 221.422 331.266 220.516 331.266 219.25C331.266 217.984 330.234 217.078 328.828 217.094ZM343.391 218.016C343.391 219.828 344.75 221.453 346.797 222.125L346.219 223.094C344.617 222.57 343.406 221.461 342.812 220.062C342.211 221.656 340.93 222.898 339.266 223.5L338.641 222.516C340.719 221.812 342.172 220.016 342.188 218.016V217.422H339.016V216.406H346.516V217.422H343.391V218.016ZM349.547 215.375V218.922H351.641V219.953H349.547V223.766H348.328V215.375H349.547ZM345.094 224.141C347.953 224.141 349.672 225.078 349.672 226.672C349.672 228.297 347.953 229.234 345.094 229.234C342.234 229.234 340.484 228.297 340.484 226.672C340.484 225.078 342.234 224.141 345.094 224.141ZM345.094 225.125C343 225.125 341.703 225.703 341.719 226.672C341.703 227.672 343 228.25 345.094 228.25C347.203 228.25 348.484 227.672 348.484 226.672C348.484 225.703 347.203 225.125 345.094 225.125ZM363.969 215.375V229.297H362.734V215.375H363.969ZM356.578 216.453C358.641 216.469 360.125 218.344 360.125 221.297C360.125 224.25 358.641 226.125 356.578 226.125C354.5 226.125 353.031 224.25 353.031 221.297C353.031 218.344 354.5 216.469 356.578 216.453ZM356.578 217.547C355.188 217.562 354.219 219.031 354.219 221.297C354.219 223.562 355.188 225.031 356.578 225.031C357.969 225.031 358.938 223.562 358.938 221.297C358.938 219.031 357.969 217.562 356.578 217.547ZM381.109 215.375V221.031H383.359V222.062H381.109V229.266H379.891V215.375H381.109ZM377.516 216.875C377.516 220.812 375.672 224.391 371.141 226.625L370.453 225.656C374.047 223.867 376 221.195 376.281 217.906H371.094V216.875H377.516ZM395.406 219.266V220.281H385.922V215.656H387.141V219.266H395.406ZM396.859 221.906V222.922H384.188V221.906H396.859ZM390.516 224.172C393.5 224.172 395.281 225.078 395.297 226.688C395.281 228.297 393.5 229.203 390.516 229.203C387.516 229.203 385.719 228.297 385.719 226.688C385.719 225.078 387.516 224.172 390.516 224.172ZM390.516 225.141C388.281 225.156 386.953 225.703 386.969 226.688C386.953 227.656 388.281 228.25 390.516 228.25C392.719 228.25 394.062 227.656 394.062 226.688C394.062 225.703 392.719 225.156 390.516 225.141ZM408.875 215.375V218.938H410.969V219.984H408.875V223.453H407.656V215.375H408.875ZM401.312 224.062V225.547H407.656V224.062H408.875V229.078H400.094V224.062H401.312ZM401.312 228.094H407.656V226.516H401.312V228.094ZM406.328 216.812V217.828H398.047V216.812H401.578V215.25H402.797V216.812H406.328ZM402.188 218.469C404.188 218.469 405.516 219.422 405.531 220.906C405.516 222.391 404.188 223.344 402.188 223.344C400.172 223.344 398.828 222.391 398.844 220.906C398.828 219.422 400.172 218.469 402.188 218.469ZM402.188 219.422C400.875 219.406 400 220.016 400.016 220.906C400 221.812 400.875 222.406 402.188 222.406C403.484 222.406 404.359 221.812 404.375 220.906C404.359 220.016 403.484 219.406 402.188 219.422ZM423.297 215.375V229.266H422.078V215.375H423.297ZM413.953 216.75V224.625C416.07 224.617 418.266 224.445 420.594 223.953L420.766 225C418.297 225.516 416.094 225.688 413.875 225.688H412.75V216.75H413.953ZM436.422 215.375V220.875H438.75V221.906H436.422V229.297H435.203V215.375H436.422ZM432.766 216.734V217.75H427.5V224.781C430.016 224.781 431.797 224.664 433.859 224.281L434.016 225.344C431.844 225.734 430.016 225.812 427.375 225.812H426.281V216.734H432.766ZM440.969 228.094C440.422 228.094 439.953 227.641 439.969 227.078C439.953 226.531 440.422 226.078 440.969 226.078C441.516 226.078 441.969 226.531 441.969 227.078C441.969 227.641 441.516 228.094 440.969 228.094Z" fill="#B0B0B0"/>
</svg>
