<svg width="456" height="301" viewBox="0 0 456 301" fill="none" xmlns="http://www.w3.org/2000/svg">
<path d="M32.8281 259.453C34.7188 259.469 36.0781 261.086 36.2812 263.688H39.3906V258.375H40.6094V272.297H39.3906V264.703H36.2969C36.1484 267.422 34.7656 269.125 32.8281 269.125C30.7812 269.125 29.3438 267.25 29.3438 264.297C29.3438 261.344 30.7812 259.469 32.8281 259.453ZM32.8281 260.547C31.4531 260.562 30.5156 262.031 30.5156 264.297C30.5156 266.562 31.4531 268.031 32.8281 268.031C34.1875 268.031 35.1406 266.562 35.1406 264.297C35.1406 262.031 34.1875 260.562 32.8281 260.547ZM54.375 258.375V272.297H53.1406V258.375H54.375ZM50.4375 259.703V260.734H45.0625V267.781C47.7656 267.781 49.5469 267.695 51.625 267.328L51.75 268.359C49.5938 268.75 47.7656 268.828 44.9531 268.844H43.8281V259.703H50.4375ZM69.4531 264.828V265.797H56.7344V264.828H69.4531ZM67.8594 266.906V269.859H59.5156V271.188H68.3125V272.078H58.2812V269.016H66.6406V267.828H58.2656V266.906H67.8594ZM67.8125 258.797V261.672H59.6094V262.891H68.0625V263.781H58.3906V260.828H66.5781V259.688H58.3438V258.797H67.8125ZM85.3438 258.375V264.031H87.5938V265.062H85.3438V272.266H84.125V258.375H85.3438ZM81.75 259.875C81.75 263.812 79.9062 267.391 75.375 269.625L74.6875 268.656C78.2812 266.867 80.2344 264.195 80.5156 260.906H75.3281V259.875H81.75ZM99.5625 259.781V261.172C99.5469 262.875 99.5469 264.781 99.0469 267.578L97.7969 267.438C98.3281 264.781 98.3281 262.828 98.3281 261.172V260.797H89.7656V259.781H99.5625ZM101.078 269.281V270.297H88.4219V269.281H93.3906V264.312H94.5938V269.281H101.078ZM104.531 269.953L103.312 274.203H102.156L103.016 269.953H104.531ZM114.094 259.453C115.984 259.469 117.344 261.086 117.547 263.688H120.656V258.375H121.875V272.297H120.656V264.703H117.562C117.414 267.422 116.031 269.125 114.094 269.125C112.047 269.125 110.609 267.25 110.609 264.297C110.609 261.344 112.047 259.469 114.094 259.453ZM114.094 260.547C112.719 260.562 111.781 262.031 111.781 264.297C111.781 266.562 112.719 268.031 114.094 268.031C115.453 268.031 116.406 266.562 116.406 264.297C116.406 262.031 115.453 260.562 114.094 260.547ZM135.641 258.375V272.297H134.406V258.375H135.641ZM131.703 259.703V260.734H126.328V267.781C129.031 267.781 130.812 267.695 132.891 267.328L133.016 268.359C130.859 268.75 129.031 268.828 126.219 268.844H125.094V259.703H131.703ZM142.906 262.109C142.906 264.625 144.516 267.156 146.531 268.078L145.797 269.078C144.219 268.266 142.914 266.602 142.297 264.625C141.68 266.703 140.375 268.484 138.797 269.328L138 268.344C140.031 267.344 141.656 264.672 141.656 262.109V259.578H142.906V262.109ZM149.531 258.375V272.297H148.312V264.125H145.016V263.125H148.312V258.375H149.531ZM168.562 266.453V267.469H162.766V272.266H161.562V267.469H155.844V266.453H168.562ZM166.906 259.156V264.562H157.484V259.156H166.906ZM158.688 260.156V263.594H165.688V260.156H158.688ZM181.203 258.375V267.922H179.969V263.203H177.078C176.805 264.883 175.375 266.031 173.516 266.031C171.438 266.031 169.906 264.641 169.906 262.672C169.906 260.688 171.438 259.328 173.516 259.328C175.398 259.328 176.844 260.477 177.078 262.203H179.969V258.375H181.203ZM173.516 260.375C172.094 260.375 171.078 261.359 171.078 262.672C171.078 264.031 172.094 264.984 173.516 264.984C174.875 264.984 175.922 264.031 175.922 262.672C175.922 261.359 174.875 260.375 173.516 260.375ZM177.344 267.359C177.328 269.328 179.594 270.812 182.078 271.203L181.562 272.188C179.469 271.812 177.531 270.719 176.703 269.109C175.867 270.703 173.93 271.812 171.828 272.188L171.375 271.203C173.797 270.797 176.078 269.266 176.094 267.359V266.812H177.344V267.359ZM189.844 258.625C192.938 258.625 194.75 259.469 194.75 261.016C194.75 262.594 192.938 263.438 189.844 263.453C186.75 263.438 184.922 262.594 184.922 261.016C184.922 259.469 186.75 258.625 189.844 258.625ZM189.844 259.547C187.531 259.547 186.188 260.109 186.203 261.016C186.188 261.984 187.531 262.516 189.844 262.516C192.141 262.516 193.5 261.984 193.5 261.016C193.5 260.109 192.141 259.547 189.844 259.547ZM196.172 264.391V265.391H183.516V264.391H196.172ZM194.547 266.594V269.703H186.297V271.141H194.969V272.109H185.078V268.797H193.344V267.531H185.047V266.594H194.547ZM213.156 258.391V267H211.984V263.234H210.172V266.781H209V258.609H210.172V262.219H211.984V258.391H213.156ZM208.406 259.969V260.984H201.281V259.969H204.25V258.438H205.469V259.969H208.406ZM204.859 261.688C206.625 261.688 207.828 262.609 207.844 264.062C207.828 265.484 206.625 266.438 204.859 266.438C203.109 266.438 201.875 265.484 201.891 264.062C201.875 262.609 203.109 261.688 204.859 261.688ZM204.859 262.609C203.75 262.609 202.984 263.172 202.984 264.062C202.984 264.938 203.75 265.516 204.859 265.516C205.969 265.516 206.734 264.938 206.734 264.062C206.734 263.172 205.969 262.609 204.859 262.609ZM206.281 267.891C206.266 269.078 206.914 270.312 208.234 271.016C209.547 270.25 210.219 268.906 210.234 267.891V267.391H211.438V267.891C211.422 269.25 212.484 270.625 214.266 271.172L213.688 272.109C212.289 271.625 211.305 270.68 210.828 269.547C210.398 270.648 209.555 271.703 208.25 272.219C206.906 271.719 206.062 270.734 205.656 269.609C205.141 270.688 204.172 271.625 202.844 272.109L202.25 271.172C203.984 270.578 205.078 269.156 205.078 267.891V267.391H206.281V267.891ZM226.422 262.594V263.578H216.906V258.891H218.125V262.594H226.422ZM227.891 265.469V266.469H215.172V265.469H227.891ZM226.5 270.906V271.922H216.828V267.891H218.047V270.906H226.5ZM233.984 262.641C233.984 265 235.703 267.391 237.75 268.281L237.062 269.25C235.438 268.508 234.031 266.906 233.391 264.984C232.734 267.023 231.336 268.797 229.75 269.594L229.016 268.625C231 267.672 232.734 265.047 232.75 262.641V260.828H229.469V259.812H237.297V260.828H233.984V262.641ZM240.469 258.375V272.266H239.234V258.375H240.469ZM257.719 258.391V262.969H259.812V264H257.719V268.797H256.5V258.391H257.719ZM255.172 260.094V261.094H246.891V260.094H250.422V258.391H251.641V260.094H255.172ZM251.031 261.859C253.016 261.859 254.359 262.875 254.375 264.453C254.359 266.016 253.016 267.016 251.031 267.016C249.031 267.016 247.672 266.016 247.688 264.453C247.672 262.875 249.031 261.859 251.031 261.859ZM251.031 262.828C249.719 262.828 248.844 263.469 248.859 264.453C248.844 265.438 249.719 266.062 251.031 266.047C252.328 266.062 253.203 265.438 253.219 264.453C253.203 263.469 252.328 262.828 251.031 262.828ZM258.359 270.938V271.969H249.031V267.969H250.234V270.938H258.359ZM272.203 258.391V268.672H270.969V263.328H267.688V266.297H261.391V259.312H262.609V261.781H266.484V259.312H267.688V262.297H270.969V258.391H272.203ZM272.516 270.938V271.969H263.219V267.656H264.453V270.938H272.516ZM262.609 265.281H266.484V262.75H262.609V265.281ZM286.422 258.375V272.266H285.234V258.375H286.422ZM283.625 258.672V271.562H282.453V264.812H280.672C280.539 267.516 279.391 269.203 277.672 269.203C275.859 269.203 274.688 267.328 274.688 264.375C274.688 261.422 275.859 259.547 277.672 259.547C279.359 259.547 280.5 261.18 280.656 263.797H282.453V258.672H283.625ZM277.672 260.703C276.547 260.703 275.828 262.109 275.844 264.375C275.828 266.625 276.547 268.047 277.672 268.031C278.797 268.047 279.516 266.625 279.516 264.375C279.516 262.109 278.797 260.703 277.672 260.703ZM297.328 262.641C297.328 265 299.047 267.391 301.094 268.281L300.406 269.25C298.781 268.508 297.375 266.906 296.734 264.984C296.078 267.023 294.68 268.797 293.094 269.594L292.359 268.625C294.344 267.672 296.078 265.047 296.094 262.641V260.828H292.812V259.812H300.641V260.828H297.328V262.641ZM303.812 258.375V272.266H302.578V258.375H303.812ZM317.406 264.891V265.891H313.109V269.484H318.906V270.516H306.188V269.484H311.906V265.891H307.812V259.516H317.266V260.516H309.047V264.891H317.406ZM331.922 258.375V272.266H330.734V258.375H331.922ZM329.125 258.672V271.562H327.953V264.812H326.172C326.039 267.516 324.891 269.203 323.172 269.203C321.359 269.203 320.188 267.328 320.188 264.375C320.188 261.422 321.359 259.547 323.172 259.547C324.859 259.547 326 261.18 326.156 263.797H327.953V258.672H329.125ZM323.172 260.703C322.047 260.703 321.328 262.109 321.344 264.375C321.328 266.625 322.047 268.047 323.172 268.031C324.297 268.047 325.016 266.625 325.016 264.375C325.016 262.109 324.297 260.703 323.172 260.703ZM338.734 262.109C338.734 264.625 340.344 267.156 342.359 268.078L341.625 269.078C340.047 268.266 338.742 266.602 338.125 264.625C337.508 266.703 336.203 268.484 334.625 269.328L333.828 268.344C335.859 267.344 337.484 264.672 337.484 262.109V259.578H338.734V262.109ZM345.359 258.375V272.297H344.141V264.125H340.844V263.125H344.141V258.375H345.359ZM362.531 258.391V262.594H364.609V263.625H362.531V267.703H361.297V258.391H362.531ZM351.625 266.281C352.734 266.281 354.031 266.281 355.391 266.234V265.219C353.773 265.078 352.734 264.32 352.734 263.172C352.734 261.906 354.031 261.125 355.984 261.125C357.953 261.125 359.234 261.906 359.25 263.172C359.234 264.312 358.219 265.07 356.609 265.219V266.188C357.906 266.125 359.219 266.023 360.438 265.844L360.547 266.734C357.531 267.266 354.203 267.281 351.766 267.281L351.625 266.281ZM362.531 268.391V272.266H361.297V269.375H353.328V268.391H362.531ZM360.016 259.656V260.594H351.969V259.656H355.391V258.266H356.609V259.656H360.016ZM355.984 262C354.703 261.984 353.906 262.438 353.906 263.172C353.906 263.891 354.703 264.391 355.984 264.375C357.266 264.391 358.078 263.891 358.078 263.172C358.078 262.438 357.266 261.984 355.984 262ZM376.984 258.391V268.547H375.766V258.391H376.984ZM377.422 270.938V271.969H368.016V267.516H369.234V270.938H377.422ZM369.484 259.359C371.562 259.359 373.125 260.766 373.125 262.766C373.125 264.797 371.562 266.188 369.484 266.188C367.406 266.188 365.844 264.797 365.844 262.766C365.844 260.766 367.406 259.359 369.484 259.359ZM369.484 260.438C368.078 260.438 367.031 261.406 367.047 262.766C367.031 264.156 368.078 265.109 369.484 265.109C370.859 265.109 371.922 264.156 371.922 262.766C371.922 261.406 370.859 260.438 369.484 260.438ZM394.109 258.375V264.031H396.359V265.062H394.109V272.266H392.891V258.375H394.109ZM390.516 259.875C390.516 263.812 388.672 267.391 384.141 269.625L383.453 268.656C387.047 266.867 389 264.195 389.281 260.906H384.094V259.875H390.516ZM408.406 262.266V263.281H398.922V258.656H400.141V262.266H408.406ZM409.859 264.906V265.922H397.188V264.906H409.859ZM403.516 267.172C406.5 267.172 408.281 268.078 408.297 269.688C408.281 271.297 406.5 272.203 403.516 272.203C400.516 272.203 398.719 271.297 398.719 269.688C398.719 268.078 400.516 267.172 403.516 267.172ZM403.516 268.141C401.281 268.156 399.953 268.703 399.969 269.688C399.953 270.656 401.281 271.25 403.516 271.25C405.719 271.25 407.062 270.656 407.062 269.688C407.062 268.703 405.719 268.156 403.516 268.141ZM421.875 258.375V261.938H423.969V262.984H421.875V266.453H420.656V258.375H421.875ZM414.312 267.062V268.547H420.656V267.062H421.875V272.078H413.094V267.062H414.312ZM414.312 271.094H420.656V269.516H414.312V271.094ZM419.328 259.812V260.828H411.047V259.812H414.578V258.25H415.797V259.812H419.328ZM415.188 261.469C417.188 261.469 418.516 262.422 418.531 263.906C418.516 265.391 417.188 266.344 415.188 266.344C413.172 266.344 411.828 265.391 411.844 263.906C411.828 262.422 413.172 261.469 415.188 261.469ZM415.188 262.422C413.875 262.406 413 263.016 413.016 263.906C413 264.812 413.875 265.406 415.188 265.406C416.484 265.406 417.359 264.812 417.375 263.906C417.359 263.016 416.484 262.406 415.188 262.422ZM436.297 258.375V272.266H435.078V258.375H436.297ZM426.953 259.75V267.625C429.07 267.617 431.266 267.445 433.594 266.953L433.766 268C431.297 268.516 429.094 268.688 426.875 268.688H425.75V259.75H426.953ZM449.422 258.375V263.875H451.75V264.906H449.422V272.297H448.203V258.375H449.422ZM445.766 259.734V260.75H440.5V267.781C443.016 267.781 444.797 267.664 446.859 267.281L447.016 268.344C444.844 268.734 443.016 268.812 440.375 268.812H439.281V259.734H445.766ZM453.969 271.094C453.422 271.094 452.953 270.641 452.969 270.078C452.953 269.531 453.422 269.078 453.969 269.078C454.516 269.078 454.969 269.531 454.969 270.078C454.969 270.641 454.516 271.094 453.969 271.094ZM7.5 283.984V284.984H3.17188V287.656H7.29688V288.641H3.17188V291.781C5.23438 291.773 6.50781 291.719 8.03125 291.438L8.14062 292.453C6.51562 292.766 5.17188 292.828 2.89062 292.828H2V283.984H7.5ZM13.3438 282.375V296.266H12.1562V288.984H10.25V295.562H9.0625V282.672H10.25V287.969H12.1562V282.375H13.3438ZM26.2188 283.859V285.25C26.2188 287 26.2188 288.984 25.7031 292L24.4531 291.875C25.0156 289.031 25.0156 286.953 25.0156 285.25V284.875H16.6406V283.859H26.2188ZM27.9219 293.203V294.219H15.2656V293.203H27.9219ZM41.8125 293.516V294.547H29.0938V293.516H34.8125V290.891H30.6875V286.609H39V284.422H30.6562V283.406H40.2031V287.609H31.9062V289.875H40.5312V290.891H36.0156V293.516H41.8125ZM59.6406 290.453V291.469H53.8438V296.266H52.6406V291.469H46.9219V290.453H59.6406ZM57.9844 283.156V288.562H48.5625V283.156H57.9844ZM49.7656 284.156V287.594H56.7656V284.156H49.7656ZM72.2812 282.375V291.922H71.0469V287.203H68.1562C67.8828 288.883 66.4531 290.031 64.5938 290.031C62.5156 290.031 60.9844 288.641 60.9844 286.672C60.9844 284.688 62.5156 283.328 64.5938 283.328C66.4766 283.328 67.9219 284.477 68.1562 286.203H71.0469V282.375H72.2812ZM64.5938 284.375C63.1719 284.375 62.1562 285.359 62.1562 286.672C62.1562 288.031 63.1719 288.984 64.5938 288.984C65.9531 288.984 67 288.031 67 286.672C67 285.359 65.9531 284.375 64.5938 284.375ZM68.4219 291.359C68.4062 293.328 70.6719 294.812 73.1562 295.203L72.6406 296.188C70.5469 295.812 68.6094 294.719 67.7812 293.109C66.9453 294.703 65.0078 295.812 62.9062 296.188L62.4531 295.203C64.875 294.797 67.1562 293.266 67.1719 291.359V290.812H68.4219V291.359ZM80.9219 282.625C84.0156 282.625 85.8281 283.469 85.8281 285.016C85.8281 286.594 84.0156 287.438 80.9219 287.453C77.8281 287.438 76 286.594 76 285.016C76 283.469 77.8281 282.625 80.9219 282.625ZM80.9219 283.547C78.6094 283.547 77.2656 284.109 77.2812 285.016C77.2656 285.984 78.6094 286.516 80.9219 286.516C83.2188 286.516 84.5781 285.984 84.5781 285.016C84.5781 284.109 83.2188 283.547 80.9219 283.547ZM87.25 288.391V289.391H74.5938V288.391H87.25ZM85.625 290.594V293.703H77.375V295.141H86.0469V296.109H76.1562V292.797H84.4219V291.531H76.125V290.594H85.625ZM104.234 282.391V291H103.062V287.234H101.25V290.781H100.078V282.609H101.25V286.219H103.062V282.391H104.234ZM99.4844 283.969V284.984H92.3594V283.969H95.3281V282.438H96.5469V283.969H99.4844ZM95.9375 285.688C97.7031 285.688 98.9062 286.609 98.9219 288.062C98.9062 289.484 97.7031 290.438 95.9375 290.438C94.1875 290.438 92.9531 289.484 92.9688 288.062C92.9531 286.609 94.1875 285.688 95.9375 285.688ZM95.9375 286.609C94.8281 286.609 94.0625 287.172 94.0625 288.062C94.0625 288.938 94.8281 289.516 95.9375 289.516C97.0469 289.516 97.8125 288.938 97.8125 288.062C97.8125 287.172 97.0469 286.609 95.9375 286.609ZM97.3594 291.891C97.3438 293.078 97.9922 294.312 99.3125 295.016C100.625 294.25 101.297 292.906 101.312 291.891V291.391H102.516V291.891C102.5 293.25 103.562 294.625 105.344 295.172L104.766 296.109C103.367 295.625 102.383 294.68 101.906 293.547C101.477 294.648 100.633 295.703 99.3281 296.219C97.9844 295.719 97.1406 294.734 96.7344 293.609C96.2188 294.688 95.25 295.625 93.9219 296.109L93.3281 295.172C95.0625 294.578 96.1562 293.156 96.1562 291.891V291.391H97.3594V291.891ZM117.5 286.594V287.578H107.984V282.891H109.203V286.594H117.5ZM118.969 289.469V290.469H106.25V289.469H118.969ZM117.578 294.906V295.922H107.906V291.891H109.125V294.906H117.578ZM125.062 286.641C125.062 289 126.781 291.391 128.828 292.281L128.141 293.25C126.516 292.508 125.109 290.906 124.469 288.984C123.812 291.023 122.414 292.797 120.828 293.594L120.094 292.625C122.078 291.672 123.812 289.047 123.828 286.641V284.828H120.547V283.812H128.375V284.828H125.062V286.641ZM131.547 282.375V296.266H130.312V282.375H131.547ZM148.797 282.391V286.969H150.891V288H148.797V292.797H147.578V282.391H148.797ZM146.25 284.094V285.094H137.969V284.094H141.5V282.391H142.719V284.094H146.25ZM142.109 285.859C144.094 285.859 145.438 286.875 145.453 288.453C145.438 290.016 144.094 291.016 142.109 291.016C140.109 291.016 138.75 290.016 138.766 288.453C138.75 286.875 140.109 285.859 142.109 285.859ZM142.109 286.828C140.797 286.828 139.922 287.469 139.938 288.453C139.922 289.438 140.797 290.062 142.109 290.047C143.406 290.062 144.281 289.438 144.297 288.453C144.281 287.469 143.406 286.828 142.109 286.828ZM149.438 294.938V295.969H140.109V291.969H141.312V294.938H149.438ZM163.281 282.391V292.672H162.047V287.328H158.766V290.297H152.469V283.312H153.688V285.781H157.562V283.312H158.766V286.297H162.047V282.391H163.281ZM163.594 294.938V295.969H154.297V291.656H155.531V294.938H163.594ZM153.688 289.281H157.562V286.75H153.688V289.281ZM177.5 282.375V296.266H176.312V282.375H177.5ZM174.703 282.672V295.562H173.531V288.812H171.75C171.617 291.516 170.469 293.203 168.75 293.203C166.938 293.203 165.766 291.328 165.766 288.375C165.766 285.422 166.938 283.547 168.75 283.547C170.438 283.547 171.578 285.18 171.734 287.797H173.531V282.672H174.703ZM168.75 284.703C167.625 284.703 166.906 286.109 166.922 288.375C166.906 290.625 167.625 292.047 168.75 292.031C169.875 292.047 170.594 290.625 170.594 288.375C170.594 286.109 169.875 284.703 168.75 284.703ZM196.156 293.469V294.484H183.438V293.469H189.156V290.469H184.938V283.359H186.172V285.875H193.391V283.359H194.594V290.469H190.359V293.469H196.156ZM186.172 289.469H193.391V286.875H186.172V289.469ZM208.406 283.781V285.172C208.391 286.875 208.391 288.781 207.891 291.578L206.641 291.438C207.172 288.781 207.172 286.828 207.172 285.172V284.797H198.609V283.781H208.406ZM209.922 293.281V294.297H197.266V293.281H202.234V288.312H203.438V293.281H209.922ZM213.375 293.953L212.156 298.203H211L211.859 293.953H213.375ZM231.141 282.375V296.266H229.953V289.047H228.062V295.562H226.891V282.672H228.062V288H229.953V282.375H231.141ZM223.312 286.172C223.312 288.719 224.359 290.953 226.344 291.969L225.609 292.922C224.203 292.156 223.242 290.781 222.75 289.078C222.273 291.016 221.297 292.531 219.828 293.391L219.062 292.453C221.062 291.359 222.125 288.984 222.125 286.172V285.062H219.391V284.031H225.891V285.062H223.312V286.172ZM237.734 291.734C237.734 292.961 238.391 294.266 239.719 295.016C241.031 294.195 241.734 292.812 241.734 291.734V290.797H242.938V291.734C242.938 293.172 243.984 294.594 245.766 295.172L245.156 296.109C243.766 295.617 242.789 294.648 242.312 293.484C241.883 294.609 241.031 295.672 239.75 296.219C238.398 295.703 237.539 294.68 237.125 293.516C236.633 294.641 235.672 295.609 234.344 296.109L233.719 295.172C235.469 294.547 236.531 293.062 236.547 291.734V290.797H237.734V291.734ZM240.281 283.297V289.328H233.766V283.297H240.281ZM234.969 284.297V288.344H239.078V284.297H234.969ZM244.5 282.391V290.359H243.281V282.391H244.5ZM254.062 283.547V284.562H248.875V289.469C251.367 289.469 252.977 289.383 254.844 289.016L255 290.031C253.016 290.375 251.328 290.484 248.719 290.484H247.672V283.547H254.062ZM258.375 282.391V292.531H257.141V287.25H253.156V286.25H257.141V282.391H258.375ZM258.75 295.047V296.047H249.422V291.766H250.656V295.047H258.75ZM276.188 282.375V296.266H274.953V282.375H276.188ZM272.078 283.891C272.062 287.891 270.203 291.422 265.547 293.656L264.875 292.656C268.633 290.875 270.547 288.211 270.828 284.891H265.516V283.891H272.078ZM290.047 291.359V296.297H288.812V292.344H280.703V291.359H290.047ZM290.047 282.375V290.562H288.812V287H285.922C285.656 288.688 284.219 289.828 282.359 289.812C280.281 289.828 278.75 288.453 278.75 286.484C278.75 284.547 280.281 283.172 282.359 283.172C284.219 283.172 285.656 284.305 285.922 285.969H288.812V282.375H290.047ZM282.359 284.219C280.969 284.219 279.922 285.172 279.922 286.484C279.922 287.844 280.969 288.781 282.359 288.781C283.719 288.781 284.766 287.844 284.766 286.484C284.766 285.172 283.719 284.219 282.359 284.219ZM305.031 288.219V289.203H292.359V288.219H305.031ZM303.516 286.078V287.078H294.047V282.859H303.375V283.844H295.281V286.078H303.516ZM303.391 290.453V293.672H295.141V295.109H303.812V296.109H293.922V292.75H302.188V291.406H293.891V290.453H303.391ZM318.844 289.703V290.703H306.188V289.703H318.844ZM317.438 294.938V295.969H307.828V291.922H309.062V294.938H317.438ZM312.516 282.875C315.5 282.859 317.422 283.891 317.422 285.625C317.422 287.359 315.5 288.391 312.516 288.391C309.5 288.391 307.594 287.359 307.594 285.625C307.594 283.891 309.5 282.859 312.516 282.875ZM312.516 283.859C310.281 283.859 308.844 284.531 308.859 285.625C308.844 286.719 310.281 287.391 312.516 287.391C314.734 287.391 316.172 286.719 316.172 285.625C316.172 284.531 314.734 283.859 312.516 283.859ZM336.688 289.188V290.188H330.953V291.828H335.125V296.266H333.891V292.828H325.438V291.828H329.75V290.188H324.031V289.188H336.688ZM326.938 282.703V284.312H333.812V282.703H335.031V287.891H325.719V282.703H326.938ZM326.938 286.906H333.812V285.25H326.938V286.906ZM344.844 283.781V292.734H338.438V283.781H344.844ZM339.625 284.766V291.734H343.625V284.766H339.625ZM348.609 282.375V287.922H350.938V288.984H348.609V296.266H347.391V282.375H348.609ZM362.766 283.797V285.516C362.766 287.562 362.766 289.453 362.188 292.266L360.953 292.156C361.258 290.82 361.414 289.664 361.5 288.578L353.016 289.047L352.844 288.031L361.547 287.672C361.57 286.938 361.57 286.227 361.578 285.516V284.828H353.219V283.797H362.766ZM364.344 293.281V294.312H351.688V293.281H364.344ZM378.234 293.516V294.547H365.516V293.516H371.234V290.891H367.109V286.609H375.422V284.422H367.078V283.406H376.625V287.609H368.328V289.875H376.953V290.891H372.438V293.516H378.234ZM394.875 282.375V296.297H393.641V288.453H390.594V287.438H393.641V282.375H394.875ZM388.172 286.5C388.172 288.812 389.828 291.328 391.859 292.25L391.125 293.234C389.539 292.461 388.203 290.781 387.578 288.844C386.938 290.898 385.57 292.68 383.984 293.516L383.234 292.562C385.25 291.578 386.922 288.969 386.938 286.5V284.828H383.766V283.812H391.359V284.828H388.172V286.5ZM401.891 285.016C401.891 286.828 403.25 288.453 405.297 289.125L404.719 290.094C403.117 289.57 401.906 288.461 401.312 287.062C400.711 288.656 399.43 289.898 397.766 290.5L397.141 289.516C399.219 288.812 400.672 287.016 400.688 285.016V284.422H397.516V283.406H405.016V284.422H401.891V285.016ZM408.047 282.375V285.922H410.141V286.953H408.047V290.766H406.828V282.375H408.047ZM403.594 291.141C406.453 291.141 408.172 292.078 408.172 293.672C408.172 295.297 406.453 296.234 403.594 296.234C400.734 296.234 398.984 295.297 398.984 293.672C398.984 292.078 400.734 291.141 403.594 291.141ZM403.594 292.125C401.5 292.125 400.203 292.703 400.219 293.672C400.203 294.672 401.5 295.25 403.594 295.25C405.703 295.25 406.984 294.672 406.984 293.672C406.984 292.703 405.703 292.125 403.594 292.125ZM421.766 282.375V288.109H424.094V289.125H421.766V296.266H420.547V282.375H421.766ZM419.203 284.609V285.625H410.938V284.609H414.516V282.547H415.734V284.609H419.203ZM415.141 286.781C417.109 286.781 418.531 288.094 418.547 289.969C418.531 291.844 417.109 293.156 415.141 293.156C413.156 293.156 411.719 291.844 411.734 289.969C411.719 288.094 413.156 286.781 415.141 286.781ZM415.141 287.812C413.844 287.812 412.891 288.719 412.906 289.969C412.891 291.234 413.844 292.125 415.141 292.109C416.422 292.125 417.359 291.234 417.375 289.969C417.359 288.719 416.422 287.812 415.141 287.812ZM428.969 286.328C428.969 288.531 430.047 290.922 431.891 292.016L431.188 292.969C429.852 292.156 428.891 290.672 428.406 288.984C427.891 290.828 426.859 292.414 425.469 293.266L424.688 292.344C426.609 291.219 427.781 288.75 427.781 286.375V283.688H428.969V286.328ZM436.75 282.375V296.266H435.562V282.375H436.75ZM433.875 282.672V295.562H432.719V288.406H430.359V287.359H432.719V282.672H433.875ZM451.391 293.453V294.484H438.672V293.453H441.828V289.703C440.641 289.086 439.922 288.086 439.922 286.828C439.922 284.672 442.031 283.266 445 283.25C447.969 283.266 450.078 284.672 450.078 286.828C450.078 288.062 449.383 289.055 448.234 289.672V293.453H451.391ZM445 284.266C442.719 284.25 441.109 285.281 441.109 286.828C441.109 288.375 442.719 289.422 445 289.422C447.266 289.422 448.891 288.375 448.891 286.828C448.891 285.281 447.266 284.25 445 284.266ZM443.031 293.453H447V290.141C446.398 290.305 445.727 290.391 445 290.391C444.289 290.391 443.625 290.312 443.031 290.156V293.453ZM453.969 295.094C453.422 295.094 452.953 294.641 452.969 294.078C452.953 293.531 453.422 293.078 453.969 293.078C454.516 293.078 454.969 293.531 454.969 294.078C454.969 294.641 454.516 295.094 453.969 295.094Z" fill="#B0B0B0"/>
<path d="M176.965 132.488V163.988H173.59V132.488H176.965ZM167.578 135.863C167.578 145.074 163.641 153.09 152.848 158.258L151.09 155.551C159.475 151.561 163.553 145.883 164.203 138.535H152.602V135.863H167.578ZM208.148 152.738V164.023H204.809V155.41H186.809V152.738H208.148ZM208.148 132.488V151.051H204.809V143.211H198.691C198.023 146.973 194.789 149.504 190.605 149.469C185.859 149.504 182.344 146.34 182.344 141.84C182.344 137.41 185.859 134.211 190.605 134.246C194.789 134.211 198.006 136.76 198.691 140.469H204.809V132.488H208.148ZM190.605 137.059C187.688 137.059 185.543 139.027 185.543 141.84C185.543 144.723 187.688 146.656 190.605 146.656C193.453 146.656 195.598 144.723 195.598 141.84C195.598 139.027 193.453 137.059 190.605 137.059ZM227.344 133.016C234.445 133.016 238.594 134.914 238.594 138.43C238.594 141.945 234.445 143.879 227.344 143.879C220.242 143.879 216.094 141.945 216.094 138.43C216.094 134.914 220.242 133.016 227.344 133.016ZM227.344 135.477C222.316 135.477 219.539 136.566 219.574 138.43C219.539 140.363 222.316 141.383 227.344 141.383C232.371 141.383 235.148 140.363 235.148 138.43C235.148 136.566 232.371 135.477 227.344 135.477ZM241.723 145.812V148.484H213V145.812H241.723ZM238.102 150.91V158.293H219.75V161.105H238.98V163.672H216.48V155.867H234.797V153.406H216.445V150.91H238.102ZM277.652 132.523V139.52H282.258V142.297H277.652V150.277H274.312V132.523H277.652ZM277.652 151.93V163.566H257.473V151.93H277.652ZM260.742 154.531V160.895H274.418V154.531H260.742ZM257.684 134.07V145.355C261.955 145.32 266.42 144.951 271.254 143.984L271.676 146.727C266.367 147.816 261.551 148.098 256.91 148.133H254.344V134.07H257.684ZM310.207 132.488V163.988H306.832V132.488H310.207ZM300.82 135.863C300.82 145.074 296.883 153.09 286.09 158.258L284.332 155.551C292.717 151.561 296.795 145.883 297.445 138.535H285.844V135.863H300.82ZM340.617 135.512V138.605C340.617 142.508 340.617 146.867 339.422 153.301L336.047 152.949C337.277 146.867 337.277 142.402 337.277 138.605V138.219H318.152V135.512H340.617ZM343.852 156.957V159.734H315.129V156.957H326.062V145.848H329.367V156.957H343.852ZM381.152 132.523V149.996H377.812V132.523H381.152ZM366.492 136.707C366.457 140.891 369.516 144.723 374.332 146.199L372.715 148.836C369.006 147.641 366.246 145.162 364.805 141.945C363.381 145.408 360.568 148.133 356.789 149.398L355.137 146.762C360.059 145.145 363.082 141.066 363.082 136.707V133.648H366.492V136.707ZM381.363 151.719V154.391H377.215V160.895H381.68V163.602H359.742V160.895H364.242V154.391H360.023V151.719H381.363ZM367.547 160.895H373.91V154.391H367.547V160.895ZM414.867 148.941V151.613H386.145V148.941H414.867ZM411.633 160.613V163.32H389.766V154.18H393.141V160.613H411.633ZM400.488 133.543C407.309 133.508 411.738 135.898 411.738 139.836C411.738 143.809 407.309 146.199 400.488 146.234C393.633 146.199 389.238 143.809 389.238 139.836C389.238 135.898 393.633 133.508 400.488 133.543ZM400.488 136.215C395.672 136.215 392.648 137.586 392.684 139.836C392.648 142.156 395.672 143.492 400.488 143.492C405.305 143.492 408.293 142.156 408.293 139.836C408.293 137.586 405.305 136.215 400.488 136.215ZM450.797 132.488V138.816H455.367V141.629H450.797V148.273H447.457V132.488H450.797ZM430.828 133.895V144.16C435.064 144.125 439.529 143.791 444.363 142.824L444.785 145.602C439.477 146.656 434.695 146.973 430.055 146.973H427.488V133.895H430.828ZM450.797 149.715V157.73H433.816V160.895H451.887V163.602H430.512V155.164H447.457V152.352H430.441V149.715H450.797Z" fill="#56C9CC"/>
<path d="M95.0156 204.383V207.16H82.1484V217.988H78.8789V207.16H66.1875V204.383H95.0156ZM80.5312 187.684C87.1758 187.684 91.7461 190.391 91.7461 194.68C91.7461 198.934 87.1758 201.605 80.5312 201.605C73.8516 201.605 69.3164 198.934 69.3164 194.68C69.3164 190.391 73.8516 187.684 80.5312 187.684ZM80.5312 190.355C75.8555 190.391 72.7266 192.008 72.7617 194.68C72.7266 197.316 75.8555 198.934 80.5312 198.934C85.207 198.934 88.3359 197.316 88.3359 194.68C88.3359 192.008 85.207 190.391 80.5312 190.355ZM123.492 186.488V218.059H120.152V186.488H123.492ZM113.859 189.336V200.832H102.539V207.723C107.637 207.705 112.102 207.477 117.375 206.598L117.691 209.34C112.102 210.289 107.355 210.5 101.801 210.5H99.1289V198.16H110.449V192.043H99.0938V189.336H113.859ZM154.605 186.488V217.988H151.23V186.488H154.605ZM138.293 189.863C138.258 197.633 136.605 204.91 130.98 210.887L128.379 208.953C132.879 204.26 134.742 198.898 135.094 192.605H129.645V189.863H138.293ZM147.117 189.863C147.117 197.738 145.992 206.176 140.402 212.961L137.59 211.168C142.178 205.736 143.672 199.32 143.953 192.605H139.383V189.863H147.117ZM185.719 186.488V218.059H182.379V186.488H185.719ZM176.086 189.336V200.832H164.766V207.723C169.863 207.705 174.328 207.477 179.602 206.598L179.918 209.34C174.328 210.289 169.582 210.5 164.027 210.5H161.355V198.16H172.676V192.043H161.32V189.336H176.086ZM228.188 205.473V208.215H215.461V218.023H212.156V208.215H199.465V205.473H228.188ZM225.445 190.285V192.992H215.496C215.689 196.473 220.436 199.865 226.43 200.621L225.234 203.293C220.172 202.59 215.865 200.217 213.844 197C211.787 200.252 207.445 202.59 202.383 203.293L201.152 200.621C207.146 199.865 211.928 196.543 212.156 192.992H202.172V190.285H212.156V186.488H215.461V190.285H225.445ZM256.84 206.738V218.023H253.5V209.41H235.5V206.738H256.84ZM256.84 186.488V205.051H253.5V197.211H247.383C246.715 200.973 243.48 203.504 239.297 203.469C234.551 203.504 231.035 200.34 231.035 195.84C231.035 191.41 234.551 188.211 239.297 188.246C243.48 188.211 246.697 190.76 247.383 194.469H253.5V186.488H256.84ZM239.297 191.059C236.379 191.059 234.234 193.027 234.234 195.84C234.234 198.723 236.379 200.656 239.297 200.656C242.145 200.656 244.289 198.723 244.289 195.84C244.289 193.027 242.145 191.059 239.297 191.059ZM276.035 187.016C283.137 187.016 287.285 188.914 287.285 192.43C287.285 195.945 283.137 197.879 276.035 197.879C268.934 197.879 264.785 195.945 264.785 192.43C264.785 188.914 268.934 187.016 276.035 187.016ZM276.035 189.477C271.008 189.477 268.23 190.566 268.266 192.43C268.23 194.363 271.008 195.383 276.035 195.383C281.062 195.383 283.84 194.363 283.84 192.43C283.84 190.566 281.062 189.477 276.035 189.477ZM290.414 199.812V202.484H261.691V199.812H290.414ZM286.793 204.91V212.293H268.441V215.105H287.672V217.672H265.172V209.867H283.488V207.406H265.137V204.91H286.793ZM327.785 186.488V217.988H324.41V186.488H327.785ZM318.398 189.863C318.398 199.074 314.461 207.09 303.668 212.258L301.91 209.551C310.295 205.561 314.373 199.883 315.023 192.535H303.422V189.863H318.398ZM361.5 203.68V206.387H332.672V203.68H345.434V200.691H336.363V192.676H354.539V189.863H336.293V187.227H357.879V195.137H339.668V198.09H358.512V200.691H348.738V203.68H361.5ZM358.055 208.602V217.742H354.68V211.273H335.906V208.602H358.055ZM388.359 186.488V199.25H393.422V202.027H388.359V217.988H385.055V186.488H388.359ZM382.312 191.41V194.152H363.645V191.41H371.414V186.91H374.754V191.41H382.312ZM373.102 196.473C377.602 196.473 380.906 199.496 380.941 203.785C380.906 208.109 377.602 211.098 373.102 211.133C368.566 211.098 365.262 208.109 365.262 203.785C365.262 199.496 368.566 196.473 373.102 196.473ZM373.102 199.215C370.43 199.215 368.426 201.078 368.461 203.785C368.426 206.527 370.43 208.355 373.102 208.32C375.773 208.355 377.742 206.527 377.742 203.785C377.742 201.078 375.773 199.215 373.102 199.215ZM404.531 195.102C404.531 200.129 406.641 205.508 410.859 208.074L408.996 210.641C406.043 208.865 404.039 205.719 402.984 202.062C401.807 206.07 399.645 209.48 396.586 211.344L394.512 208.848C398.977 206.176 401.297 200.621 401.297 195.242V189.371H404.531V195.102ZM422.039 186.488V217.988H418.84V186.488H422.039ZM415.5 187.086V216.441H412.336V200.34H407.449V197.562H412.336V187.086H415.5ZM454.875 211.273V214.051H426.047V211.273H432.938V203.047C430.354 201.623 428.789 199.355 428.789 196.543C428.789 191.586 433.641 188.316 440.391 188.316C447.176 188.316 452.027 191.586 452.027 196.543C452.027 199.32 450.516 201.553 447.984 202.977V211.273H454.875ZM440.391 190.988C435.434 190.988 432.023 193.133 432.023 196.543C432.023 199.918 435.434 202.133 440.391 202.133C445.312 202.133 448.793 199.918 448.793 196.543C448.793 193.133 445.312 190.988 440.391 190.988ZM436.242 211.273H444.609V204.242C443.326 204.576 441.902 204.734 440.391 204.734C438.914 204.734 437.508 204.576 436.242 204.277V211.273Z" fill="white"/>
<path d="M455.644 81.3998H434.86L433.851 80.9071C433.089 80.5367 432.393 80.0546 431.776 79.492L437.895 73.4335C438.033 73.2972 438.033 73.0771 437.895 72.9408C437.758 72.8046 437.535 72.8046 437.398 72.9408L431.278 78.9994C430.71 78.388 430.223 77.7031 429.849 76.9449L429.351 75.9422V54.3494C429.351 54.1572 429.192 54 428.998 54C428.804 54 428.645 54.1572 428.645 54.3494V75.9457L428.151 76.9449C427.777 77.6996 427.29 78.388 426.722 78.9994L420.602 72.9408C420.465 72.8046 420.242 72.8046 420.105 72.9408C419.967 73.0771 419.967 73.2972 420.105 73.4335L426.224 79.492C425.607 80.0546 424.915 80.5367 424.149 80.9071L423.14 81.3998H402.353C402.159 81.3998 402 81.557 402 81.7492C402 81.9413 402.159 82.0986 402.353 82.0986H423.136L424.146 82.5912C424.908 82.9616 425.603 83.4437 426.221 84.0063L420.101 90.0648C419.964 90.2011 419.964 90.4212 420.101 90.5575C420.172 90.6273 420.26 90.6588 420.352 90.6588C420.444 90.6588 420.532 90.6239 420.602 90.5575L426.722 84.4989C427.29 85.1104 427.777 85.7952 428.151 86.5534L428.645 87.5527V111.651C428.645 111.843 428.804 112 428.998 112C429.192 112 429.351 111.843 429.351 111.651V87.5527L429.849 86.5499C430.223 85.7952 430.71 85.1069 431.278 84.4954L437.398 90.554C437.468 90.6239 437.557 90.6553 437.648 90.6553C437.74 90.6553 437.828 90.6204 437.899 90.554C438.036 90.4177 438.036 90.1976 437.899 90.0613L431.779 84.0028C432.397 83.4402 433.089 82.9581 433.854 82.5877L434.864 82.0951H455.647C455.841 82.0951 456 81.9378 456 81.7457C456 81.5535 455.841 81.3963 455.647 81.3963L455.644 81.3998Z" fill="#18D17B"/>
<g filter="url(#filter0_f_2977_2974)">
<circle cx="429" cy="81" r="6" fill="#18D17B" fill-opacity="0.4"/>
</g>
<defs>
<filter id="filter0_f_2977_2974" x="415" y="67" width="28" height="28" filterUnits="userSpaceOnUse" color-interpolation-filters="sRGB">
<feFlood flood-opacity="0" result="BackgroundImageFix"/>
<feBlend mode="normal" in="SourceGraphic" in2="BackgroundImageFix" result="shape"/>
<feGaussianBlur stdDeviation="4" result="effect1_foregroundBlur_2977_2974"/>
</filter>
</defs>
</svg>
