<svg width="180" height="154" viewBox="0 0 180 154" fill="none" xmlns="http://www.w3.org/2000/svg">
<path d="M135.706 113.771L134.559 111.189C134.124 110.211 133.814 109.171 133.62 108.09L150.291 106.637C150.616 106.609 150.906 106.458 151.113 106.21C151.32 105.962 151.417 105.652 151.389 105.328C151.362 105.004 151.21 104.715 150.961 104.509C150.712 104.302 150.402 104.199 150.077 104.233L133.406 105.686C133.406 104.584 133.537 103.503 133.793 102.47L134.47 99.7291L160.788 68.4557C160.995 68.2078 161.092 67.8979 161.064 67.5742C161.037 67.2505 160.885 66.9613 160.636 66.7547C160.388 66.5481 160.07 66.4447 159.752 66.4792C159.428 66.5067 159.138 66.6582 158.93 66.9062L132.612 98.1796L130.029 99.3228C129.049 99.7567 128.006 100.067 126.922 100.259L125.464 83.6344C125.437 83.3107 125.285 83.0215 125.036 82.8149C124.788 82.6083 124.477 82.505 124.152 82.5394C123.828 82.567 123.538 82.7185 123.33 82.9664C123.123 83.2143 123.027 83.5242 123.054 83.8479L124.511 100.473C123.406 100.473 122.322 100.342 121.286 100.087L118.538 99.4123L87.3645 73.5245C86.8534 73.0975 86.0869 73.1664 85.6656 73.6691C85.4584 73.917 85.3618 74.2269 85.3894 74.5506C85.417 74.8743 85.5689 75.1636 85.8176 75.3702L116.991 101.258L118.137 103.834C118.572 104.812 118.883 105.852 119.076 106.933L102.406 108.386C102.088 108.413 101.791 108.565 101.584 108.813C101.377 109.061 101.28 109.371 101.308 109.694C101.335 110.018 101.487 110.307 101.736 110.514C101.984 110.721 102.295 110.817 102.62 110.789L119.29 109.336C119.29 110.438 119.159 111.519 118.904 112.553L118.227 115.293L91.9086 146.567C91.4804 147.077 91.5495 147.834 92.0536 148.268C92.2815 148.454 92.5577 148.55 92.827 148.55C93.1723 148.55 93.5176 148.406 93.7524 148.123L120.071 116.85L122.654 115.707C123.634 115.273 124.677 114.963 125.761 114.77L127.218 131.395C127.246 131.719 127.398 132.008 127.647 132.215C127.895 132.421 128.206 132.525 128.531 132.49C129.194 132.435 129.684 131.85 129.629 131.182L128.171 114.557C129.276 114.557 130.361 114.687 131.397 114.942L134.145 115.617L167.052 143.151C167.3 143.358 167.611 143.461 167.936 143.426C168.26 143.399 168.55 143.247 168.758 142.999C169.186 142.49 169.117 141.725 168.606 141.298L135.699 113.765L135.706 113.771Z" fill="#5F5F5F"/>
<path d="M174.561 145.047C174.086 144.651 173.486 144.46 172.879 144.513C172.265 144.565 171.705 144.856 171.309 145.331C170.491 146.309 170.616 147.768 171.592 148.587C172.015 148.937 172.529 149.128 173.07 149.128C173.136 149.128 173.209 149.128 173.275 149.121C173.888 149.069 174.449 148.778 174.845 148.303C175.663 147.325 175.537 145.866 174.561 145.047Z" fill="#5F5F5F"/>
<path d="M10.7969 7.96064C10.3199 7.55838 9.60056 7.6191 9.19926 8.10485C8.79796 8.59061 8.85854 9.30407 9.34312 9.70634L69.9766 60.7109C70.1886 60.8931 70.4461 60.9766 70.7035 60.9766C71.0291 60.9766 71.3471 60.8399 71.5742 60.5667C71.9755 60.0885 71.9149 59.3675 71.4304 58.9652L10.7969 7.96064Z" fill="#5F5F5F"/>
<path d="M96.3414 56.1039C96.5534 56.2861 96.8109 56.3696 97.0683 56.3696C97.3939 56.3696 97.7119 56.2329 97.939 55.9597C98.3403 55.4815 98.2798 54.7605 97.7952 54.3582L33.6182 0.3708C33.1411 -0.031468 32.4218 0.0292517 32.0205 0.515009C31.6193 0.993177 31.6798 1.71422 32.1644 2.11649L96.3414 56.1039Z" fill="#5F5F5F"/>
<path d="M7.10205 32.0544C6.62504 31.6521 5.90573 31.7128 5.50444 32.1986C5.10314 32.6768 5.16371 33.3978 5.6483 33.8001L69.8253 87.7875C70.0373 87.9697 70.2947 88.0532 70.5522 88.0532C70.8778 88.0532 71.1958 87.9165 71.4229 87.6433C71.8242 87.1651 71.7636 86.4441 71.2791 86.0418L7.10205 32.0544Z" fill="#5F5F5F"/>
<path d="M1.87773 0.035964C0.643553 0.248483 -0.181753 1.43252 0.0378243 2.66968C0.257401 3.90685 1.431 4.73415 2.67275 4.51404C3.90692 4.29393 4.73223 3.11749 4.51265 1.87274C4.29307 0.627981 3.1119 -0.184145 1.87773 0.035964Z" fill="#5F5F5F"/>
</svg>
