<svg width="200" height="200" viewBox="0 0 200 200" fill="none" xmlns="http://www.w3.org/2000/svg">
    <rect x="0.5" y="0.5" width="199" height="199" rx="19.5" fill="url(#paint0_linear_2777_2506)" stroke="#413F3F"/>
    <g clip-path="url(#clip0_2777_2506)">
        <path d="M159.828 101.071H112.919L110.64 99.9515C108.92 99.1097 107.35 98.0138 105.956 96.7352L119.769 82.9644C120.08 82.6546 120.08 82.1543 119.769 81.8446C119.458 81.5349 118.956 81.5349 118.646 81.8446L104.833 95.6154C103.551 94.2256 102.452 92.6691 101.607 90.9457L100.484 88.6665V39.5871C100.484 39.1503 100.126 38.793 99.6875 38.793C99.2494 38.793 98.8909 39.1503 98.8909 39.5871V88.6744L97.7757 90.9457C96.9314 92.6611 95.8321 94.2256 94.5496 95.6154L80.7371 81.8446C80.4265 81.5349 79.9246 81.5349 79.614 81.8446C79.3033 82.1543 79.3033 82.6546 79.614 82.9644L93.4265 96.7352C92.0325 98.0138 90.4712 99.1097 88.7426 99.9515L86.4645 101.071H39.5466C39.1085 101.071 38.75 101.429 38.75 101.865C38.75 102.302 39.1085 102.66 39.5466 102.66H86.4565L88.7347 103.779C90.4553 104.621 92.0245 105.717 93.4185 106.996L79.606 120.767C79.2953 121.076 79.2953 121.577 79.606 121.886C79.7653 122.045 79.9645 122.117 80.1716 122.117C80.3787 122.117 80.5778 122.037 80.7371 121.886L94.5496 108.116C95.8321 109.505 96.9314 111.062 97.7757 112.785L98.8909 115.057V169.83C98.8909 170.267 99.2494 170.624 99.6875 170.624C100.126 170.624 100.484 170.267 100.484 169.83V115.057L101.607 112.777C102.452 111.062 103.551 109.497 104.833 108.108L118.646 121.878C118.805 122.037 119.004 122.109 119.211 122.109C119.419 122.109 119.618 122.029 119.777 121.878C120.088 121.569 120.088 121.068 119.777 120.759L105.964 106.988C107.358 105.709 108.92 104.613 110.648 103.771L112.926 102.652H159.836C160.275 102.652 160.633 102.294 160.633 101.858C160.633 101.421 160.275 101.063 159.836 101.063L159.828 101.071Z" fill="white"/>
        <path d="M99.6876 34.14C101.007 34.14 102.077 33.0733 102.077 31.7575C102.077 30.4417 101.007 29.375 99.6876 29.375C98.3678 29.375 97.2979 30.4417 97.2979 31.7575C97.2979 33.0733 98.3678 34.14 99.6876 34.14Z" fill="white"/>
        <g filter="url(#filter0_f_2777_2506)">
            <circle cx="99.375" cy="102.5" r="11.875" fill="white" fill-opacity="0.5"/>
        </g>
    </g>
    <defs>
        <filter id="filter0_f_2777_2506" x="75.5" y="78.625" width="47.75" height="47.75" filterUnits="userSpaceOnUse" color-interpolation-filters="sRGB">
            <feFlood flood-opacity="0" result="BackgroundImageFix"/>
            <feBlend mode="normal" in="SourceGraphic" in2="BackgroundImageFix" result="shape"/>
            <feGaussianBlur stdDeviation="6" result="effect1_foregroundBlur_2777_2506"/>
        </filter>
        <linearGradient id="paint0_linear_2777_2506" x1="100" y1="0" x2="100" y2="200" gradientUnits="userSpaceOnUse">
            <stop stop-color="#171717"/>
            <stop offset="1" stop-color="#1D2A4D"/>
        </linearGradient>
        <clipPath id="clip0_2777_2506">
            <rect x="38.75" y="29.375" width="121.875" height="141.25" rx="20" fill="white"/>
        </clipPath>
    </defs>
</svg>
