<svg width="320" height="320" viewBox="0 0 320 320" fill="none" xmlns="http://www.w3.org/2000/svg">
    <rect width="320" height="320" fill="url(#paint0_linear_2777_2452)"/>
    <g clip-path="url(#clip0_2777_2452)">
        <path d="M255.725 161.716H180.67L177.025 159.924C174.272 158.577 171.761 156.824 169.53 154.778L191.63 132.745C192.127 132.249 192.127 131.448 191.63 130.953C191.133 130.457 190.33 130.457 189.833 130.953L167.733 152.986C165.681 150.763 163.923 148.272 162.572 145.515L160.775 141.868V63.341C160.775 62.6421 160.201 62.0703 159.5 62.0703C158.799 62.0703 158.225 62.6421 158.225 63.341V141.881L156.441 145.515C155.09 148.259 153.331 150.763 151.279 152.986L129.179 130.953C128.682 130.457 127.879 130.457 127.382 130.953C126.885 131.448 126.885 132.249 127.382 132.745L149.482 154.778C147.252 156.824 144.754 158.577 141.988 159.924L138.343 161.716H63.2745C62.5735 161.716 62 162.287 62 162.986C62 163.685 62.5735 164.257 63.2745 164.257H138.33L141.975 166.049C144.728 167.396 147.239 169.149 149.47 171.195L127.37 193.228C126.873 193.724 126.873 194.524 127.37 195.02C127.625 195.274 127.943 195.388 128.275 195.388C128.606 195.388 128.925 195.261 129.179 195.02L151.279 172.986C153.331 175.21 155.09 177.701 156.441 180.458L158.225 184.092V271.73C158.225 272.428 158.799 273 159.5 273C160.201 273 160.775 272.428 160.775 271.73V184.092L162.572 180.445C163.923 177.701 165.681 175.197 167.733 172.974L189.833 195.007C190.088 195.261 190.407 195.375 190.738 195.375C191.07 195.375 191.388 195.248 191.643 195.007C192.14 194.511 192.14 193.711 191.643 193.215L169.543 171.182C171.774 169.136 174.272 167.383 177.037 166.036L180.682 164.244H255.738C256.439 164.244 257.013 163.672 257.013 162.974C257.013 162.275 256.439 161.703 255.738 161.703L255.725 161.716Z" fill="white"/>
        <path d="M159.5 54.624C161.611 54.624 163.323 52.9173 163.323 50.812C163.323 48.7067 161.611 47 159.5 47C157.388 47 155.676 48.7067 155.676 50.812C155.676 52.9173 157.388 54.624 159.5 54.624Z" fill="white"/>
        <g filter="url(#filter0_f_2777_2452)">
            <circle cx="159" cy="164" r="19" fill="white" fill-opacity="0.5"/>
        </g>
    </g>
    <defs>
        <filter id="filter0_f_2777_2452" x="128" y="133" width="62" height="62" filterUnits="userSpaceOnUse" color-interpolation-filters="sRGB">
            <feFlood flood-opacity="0" result="BackgroundImageFix"/>
            <feBlend mode="normal" in="SourceGraphic" in2="BackgroundImageFix" result="shape"/>
            <feGaussianBlur stdDeviation="6" result="effect1_foregroundBlur_2777_2452"/>
        </filter>
        <linearGradient id="paint0_linear_2777_2452" x1="160" y1="0" x2="160" y2="320" gradientUnits="userSpaceOnUse">
            <stop stop-color="#171717"/>
            <stop offset="1" stop-color="#1D2A4D"/>
        </linearGradient>
        <clipPath id="clip0_2777_2452">
            <rect width="195" height="226" fill="white" transform="translate(62 47)"/>
        </clipPath>
    </defs>
</svg>
