<svg width="200" height="200" viewBox="0 0 200 200" fill="none" xmlns="http://www.w3.org/2000/svg">
    <rect x="0.5" y="0.5" width="199" height="199" rx="14.5" fill="url(#paint0_linear_2777_2513)" stroke="#413F3F"/>
    <g clip-path="url(#clip0_2777_2513)">
        <path d="M142.081 142.036L108.911 108.865L108.091 106.463C107.47 104.651 107.135 102.766 107.054 100.876L126.558 100.906C126.997 100.906 127.351 100.553 127.35 100.114C127.349 99.6753 126.994 99.3205 126.556 99.3198L107.051 99.2903C107.127 97.4007 107.451 95.5228 108.072 93.7072L108.89 91.3013L143.594 56.5969C143.903 56.2881 143.902 55.7819 143.592 55.4721C143.282 55.1623 142.776 55.1616 142.467 55.4704L107.757 90.1804L105.363 90.9979C103.553 91.6138 101.669 91.9428 99.7797 92.0186L99.7502 72.5143C99.7496 72.0756 99.3947 71.7208 98.956 71.7201C98.5173 71.7194 98.1636 72.0732 98.1642 72.5119L98.1937 92.0162C96.3039 91.9346 94.425 91.6056 92.6074 90.9786L90.2047 90.1595L57.0288 56.9835C56.719 56.6737 56.2128 56.6729 55.9039 56.9818C55.5951 57.2907 55.5958 57.7968 55.9056 58.1066L89.076 91.277L89.8951 93.6797C90.5165 95.4916 90.8511 97.3761 90.9327 99.2659L71.4284 99.2365C70.9897 99.2358 70.6359 99.5896 70.6366 100.028C70.6369 100.253 70.7272 100.445 70.8737 100.591C71.0201 100.737 71.2171 100.822 71.4364 100.828L90.9408 100.858C90.8649 102.747 90.5415 104.625 89.92 106.441L89.1025 108.835L50.3718 147.566C50.0629 147.875 50.0637 148.381 50.3735 148.691C50.6833 149.001 51.1895 149.001 51.4983 148.693L90.229 109.962L92.6349 109.144C94.4449 108.528 96.3285 108.2 98.2181 108.124L98.2475 127.628C98.2479 127.853 98.3382 128.044 98.4846 128.191C98.6311 128.337 98.828 128.422 99.0474 128.428C99.486 128.428 99.8398 128.075 99.8392 127.636L99.8097 108.132C101.699 108.213 103.578 108.542 105.396 109.169L107.799 109.988L140.969 143.159C141.279 143.469 141.785 143.469 142.094 143.16C142.403 142.852 142.402 142.345 142.092 142.036L142.081 142.036Z" fill="white"/>
        <path d="M146.882 52.1802C147.816 53.1135 149.326 53.1157 150.257 52.1853C151.187 51.2549 151.185 49.7441 150.252 48.8109C149.319 47.8776 147.808 47.8753 146.877 48.8058C145.947 49.7362 145.949 51.247 146.882 52.1802Z" fill="white"/>
        <g filter="url(#filter0_f_2777_2513)">
            <circle cx="99.375" cy="101.25" r="11.875" fill="white" fill-opacity="0.5"/>
        </g>
    </g>
    <defs>
        <filter id="filter0_f_2777_2513" x="81.5" y="83.375" width="35.75" height="35.75" filterUnits="userSpaceOnUse" color-interpolation-filters="sRGB">
            <feFlood flood-opacity="0" result="BackgroundImageFix"/>
            <feBlend mode="normal" in="SourceGraphic" in2="BackgroundImageFix" result="shape"/>
            <feGaussianBlur stdDeviation="3" result="effect1_foregroundBlur_2777_2513"/>
        </filter>
        <linearGradient id="paint0_linear_2777_2513" x1="100" y1="0" x2="100" y2="200" gradientUnits="userSpaceOnUse">
            <stop stop-color="#171717"/>
            <stop offset="1" stop-color="#0B3644"/>
        </linearGradient>
        <clipPath id="clip0_2777_2513">
            <rect x="107.163" y="5.72266" width="121.875" height="141.25" rx="15" transform="rotate(45 107.163 5.72266)" fill="white"/>
        </clipPath>
    </defs>
</svg>
