<svg width="320" height="320" viewBox="0 0 320 320" fill="none" xmlns="http://www.w3.org/2000/svg">
    <rect width="320" height="320" fill="url(#paint0_linear_2777_2445)"/>
    <g clip-path="url(#clip0_2777_2445)">
        <path d="M227.329 227.255L174.257 174.183L172.946 170.338C171.952 167.439 171.417 164.424 171.286 161.4L202.493 161.447C203.195 161.448 203.761 160.882 203.76 160.18C203.759 159.479 203.191 158.911 202.489 158.91L171.282 158.863C171.404 155.839 171.921 152.835 172.915 149.929L174.223 146.08L229.75 90.5532C230.244 90.059 230.243 89.2491 229.748 88.7535C229.252 88.2578 228.442 88.2566 227.948 88.7507L172.412 144.287L168.581 145.595C165.685 146.58 162.671 147.106 159.648 147.228L159.6 116.021C159.599 115.319 159.032 114.751 158.33 114.75C157.628 114.749 157.062 115.315 157.063 116.017L157.11 147.224C154.086 147.093 151.08 146.567 148.172 145.564L144.328 144.253L91.246 91.1717C90.7503 90.676 89.9405 90.6748 89.4463 91.1689C88.9521 91.6631 88.9534 92.473 89.449 92.9686L142.522 146.041L143.832 149.886C144.826 152.785 145.362 155.8 145.492 158.824L114.285 158.776C113.584 158.775 113.017 159.341 113.019 160.043C113.019 160.403 113.164 160.709 113.398 160.944C113.632 161.178 113.947 161.313 114.298 161.323L145.505 161.37C145.384 164.393 144.866 167.398 143.872 170.303L142.564 174.135L80.5949 236.104C80.1007 236.598 80.1019 237.408 80.5976 237.903C81.0933 238.399 81.9031 238.4 82.3973 237.906L144.366 175.937L148.216 174.629C151.112 173.644 154.126 173.117 157.149 172.996L157.196 204.203C157.197 204.563 157.341 204.869 157.575 205.103C157.81 205.338 158.125 205.473 158.476 205.483C159.178 205.484 159.744 204.918 159.743 204.216L159.695 173.009C162.719 173.139 165.725 173.666 168.634 174.669L172.478 175.98L225.55 229.052C226.046 229.548 226.856 229.549 227.35 229.055C227.844 228.561 227.843 227.751 227.347 227.255L227.329 227.255Z" fill="white"/>
        <path d="M235.012 83.4872C236.506 84.9804 238.923 84.984 240.412 83.4953C241.9 82.0067 241.897 79.5894 240.403 78.0962C238.91 76.603 236.493 76.5994 235.004 78.0881C233.516 79.5767 233.519 81.994 235.012 83.4872Z" fill="white"/>
        <g filter="url(#filter0_f_2777_2445)">
            <circle cx="159" cy="162" r="19" fill="white" fill-opacity="0.5"/>
        </g>
    </g>
    <defs>
        <filter id="filter0_f_2777_2445" x="128" y="131" width="62" height="62" filterUnits="userSpaceOnUse" color-interpolation-filters="sRGB">
            <feFlood flood-opacity="0" result="BackgroundImageFix"/>
            <feBlend mode="normal" in="SourceGraphic" in2="BackgroundImageFix" result="shape"/>
            <feGaussianBlur stdDeviation="6" result="effect1_foregroundBlur_2777_2445"/>
        </filter>
        <linearGradient id="paint0_linear_2777_2445" x1="160" y1="0" x2="160" y2="320" gradientUnits="userSpaceOnUse">
            <stop stop-color="#171717"/>
            <stop offset="1" stop-color="#0B3644"/>
        </linearGradient>
        <clipPath id="clip0_2777_2445">
            <rect width="195" height="226" fill="white" transform="translate(171.461 9.1543) rotate(45)"/>
        </clipPath>
    </defs>
</svg>
