<svg width="320" height="320" viewBox="0 0 320 320" fill="none" xmlns="http://www.w3.org/2000/svg">
    <rect width="320" height="320" fill="url(#paint0_linear_2777_2399)"/>
    <g filter="url(#filter0_f_2777_2399)">
        <circle cx="101" cy="182" r="19" fill="white" fill-opacity="0.5"/>
    </g>
    <path d="M64.5 152C66.9853 152 69 149.985 69 147.5C69 145.015 66.9853 143 64.5 143C62.0147 143 60 145.015 60 147.5C60 149.985 62.0147 152 64.5 152Z" fill="white"/>
    <path d="M37 183L282 183" stroke="white" stroke-width="2.5" stroke-linecap="round" stroke-linejoin="round"/>
    <path d="M101 74L101 241.5" stroke="white" stroke-width="2.5" stroke-linecap="round"/>
    <path d="M176.855 106.512L80.8555 202.512" stroke="white" stroke-width="2.5" stroke-linecap="round"/>
    <path d="M162.361 244.084L77.9394 159.662" stroke="white" stroke-width="2.5" stroke-linecap="round"/>
    <path d="M101.5 166L106.186 170.322L112.46 170.686L112.813 177.163L117 182L112.813 186.837L112.46 193.314L106.186 193.678L101.5 198L96.814 193.678L90.5398 193.314L90.1871 186.837L86 182L90.1871 177.163L90.5398 170.686L96.814 170.322L101.5 166Z" fill="white"/>
    <defs>
        <filter id="filter0_f_2777_2399" x="70" y="151" width="62" height="62" filterUnits="userSpaceOnUse" color-interpolation-filters="sRGB">
            <feFlood flood-opacity="0" result="BackgroundImageFix"/>
            <feBlend mode="normal" in="SourceGraphic" in2="BackgroundImageFix" result="shape"/>
            <feGaussianBlur stdDeviation="6" result="effect1_foregroundBlur_2777_2399"/>
        </filter>
        <linearGradient id="paint0_linear_2777_2399" x1="160" y1="0" x2="160" y2="320" gradientUnits="userSpaceOnUse">
            <stop stop-color="#171717"/>
            <stop offset="1" stop-color="#1A271A"/>
        </linearGradient>
    </defs>
</svg>
