<svg width="320" height="320" viewBox="0 0 320 320" fill="none" xmlns="http://www.w3.org/2000/svg">
    <rect width="320" height="320" fill="url(#paint0_linear_2777_2433)"/>
    <g clip-path="url(#clip0_2777_2433)">
        <path d="M233.633 160.039H160.55L157.001 158.289C154.32 156.973 151.876 155.261 149.704 153.263L171.223 131.744C171.707 131.26 171.707 130.478 171.223 129.994C170.739 129.51 169.957 129.51 169.473 129.994L147.954 151.513C145.956 149.341 144.243 146.909 142.928 144.216L141.178 140.654V63.9598C141.178 63.2772 140.62 62.7188 139.937 62.7188C139.255 62.7188 138.696 63.2772 138.696 63.9598V140.666L136.959 144.216C135.643 146.896 133.931 149.341 131.933 151.513L110.414 129.994C109.93 129.51 109.148 129.51 108.664 129.994C108.18 130.478 108.18 131.26 108.664 131.744L130.183 153.263C128.011 155.261 125.579 156.973 122.886 158.289L119.336 160.039H46.241C45.5585 160.039 45 160.597 45 161.28C45 161.962 45.5585 162.521 46.241 162.521H119.324L122.873 164.27C125.554 165.586 127.999 167.299 130.17 169.297L108.651 190.816C108.167 191.3 108.167 192.081 108.651 192.565C108.9 192.814 109.21 192.925 109.532 192.925C109.855 192.925 110.165 192.801 110.414 192.565L131.933 171.046C133.931 173.218 135.643 175.651 136.959 178.343L138.696 181.893V267.485C138.696 268.168 139.255 268.726 139.937 268.726C140.62 268.726 141.178 268.168 141.178 267.485V181.893L142.928 178.331C144.243 175.65 145.956 173.206 147.954 171.034L169.473 192.553C169.721 192.801 170.032 192.913 170.354 192.913C170.677 192.913 170.987 192.789 171.235 192.553C171.719 192.069 171.719 191.287 171.235 190.803L149.716 169.284C151.888 167.286 154.32 165.574 157.013 164.258L160.563 162.508H233.646C234.328 162.508 234.887 161.95 234.887 161.267C234.887 160.585 234.328 160.026 233.646 160.026L233.633 160.039Z" fill="white"/>
        <path d="M139.937 55.446C141.993 55.446 143.66 53.7792 143.66 51.723C143.66 49.6669 141.993 48 139.937 48C137.881 48 136.214 49.6669 136.214 51.723C136.214 53.7792 137.881 55.446 139.937 55.446Z" fill="white"/>
        <g filter="url(#filter0_f_2777_2433)">
            <circle cx="140.414" cy="161.832" r="19" fill="white" fill-opacity="0.5"/>
        </g>
        <g filter="url(#filter1_f_2777_2433)">
            <circle cx="196.414" cy="206.832" r="16" fill="white" fill-opacity="0.5"/>
        </g>
    </g>
    <g clip-path="url(#clip1_2777_2433)">
        <path d="M197.087 271.956L197.087 220.368L198.316 217.862C199.241 215.97 200.444 214.244 201.849 212.711L216.972 227.901C217.312 228.243 217.862 228.243 218.202 227.901C218.542 227.56 218.542 227.008 218.202 226.666L203.078 211.476C204.605 210.066 206.314 208.857 208.207 207.928L210.71 206.693L264.611 206.693C265.09 206.693 265.483 206.299 265.483 205.817C265.483 205.335 265.09 204.941 264.611 204.941L210.701 204.941L208.207 203.715C206.323 202.786 204.605 201.577 203.078 200.167L218.202 184.977C218.542 184.635 218.542 184.083 218.202 183.742C217.862 183.4 217.312 183.4 216.972 183.742L201.849 198.932C200.444 197.399 199.241 195.682 198.316 193.781L197.087 191.275L197.087 139.679C197.087 139.197 196.694 138.803 196.214 138.803C195.735 138.803 195.342 139.197 195.342 139.679L195.342 191.267L194.112 193.772C193.188 195.664 191.984 197.39 190.58 198.923L175.456 183.733C175.116 183.391 174.567 183.391 174.227 183.733C174.052 183.908 173.974 184.127 173.974 184.355C173.974 184.583 174.061 184.802 174.227 184.977L189.35 200.167C187.824 201.577 186.114 202.786 184.222 203.715L181.727 204.941L121.573 204.941C121.093 204.941 120.701 205.335 120.701 205.817C120.701 206.299 121.093 206.693 121.573 206.693L181.727 206.693L184.231 207.928C186.114 208.857 187.833 210.066 189.359 211.476L174.235 226.666C174.061 226.841 173.982 227.06 173.982 227.288C173.982 227.516 174.07 227.735 174.235 227.91C174.576 228.252 175.125 228.252 175.465 227.91L190.589 212.72C191.993 214.253 193.197 215.97 194.121 217.871L195.351 220.376L195.351 271.964C195.351 272.446 195.743 272.84 196.223 272.84C196.703 272.84 197.095 272.446 197.095 271.964L197.087 271.956Z" fill="white"/>
        <path d="M270.595 205.817C270.595 207.269 271.766 208.445 273.211 208.445C274.656 208.445 275.828 207.269 275.828 205.817C275.828 204.366 274.656 203.189 273.211 203.189C271.766 203.189 270.595 204.366 270.595 205.817Z" fill="white"/>
    </g>
    <defs>
        <filter id="filter0_f_2777_2433" x="109.414" y="130.832" width="62" height="62" filterUnits="userSpaceOnUse" color-interpolation-filters="sRGB">
            <feFlood flood-opacity="0" result="BackgroundImageFix"/>
            <feBlend mode="normal" in="SourceGraphic" in2="BackgroundImageFix" result="shape"/>
            <feGaussianBlur stdDeviation="6" result="effect1_foregroundBlur_2777_2433"/>
        </filter>
        <filter id="filter1_f_2777_2433" x="168.414" y="178.832" width="56" height="56" filterUnits="userSpaceOnUse" color-interpolation-filters="sRGB">
            <feFlood flood-opacity="0" result="BackgroundImageFix"/>
            <feBlend mode="normal" in="SourceGraphic" in2="BackgroundImageFix" result="shape"/>
            <feGaussianBlur stdDeviation="6" result="effect1_foregroundBlur_2777_2433"/>
        </filter>
        <linearGradient id="paint0_linear_2777_2433" x1="160" y1="0" x2="160" y2="320" gradientUnits="userSpaceOnUse">
            <stop stop-color="#171717"/>
            <stop offset="1" stop-color="#423316"/>
        </linearGradient>
        <clipPath id="clip0_2777_2433">
            <rect width="189.874" height="220.726" fill="white" transform="translate(45 48)"/>
        </clipPath>
        <clipPath id="clip1_2777_2433">
            <rect width="134.029" height="155.126" fill="white" transform="translate(275.828 138.803) rotate(90)"/>
        </clipPath>
    </defs>
</svg>
