<svg width="24" height="24" viewBox="0 0 24 24" fill="none" xmlns="http://www.w3.org/2000/svg">
<path d="M15 19.4998C15 20.2955 14.6839 21.0585 14.1213 21.6211C13.5587 22.1837 12.7956 22.4998 12 22.4998C11.2044 22.4998 10.4413 22.1837 9.87868 21.6211C9.31607 21.0585 9 20.2955 9 19.4998H15ZM19.5 17.9998H3.15C2.91131 17.9998 2.68239 17.905 2.5136 17.7362C2.34482 17.5674 2.25 17.3385 2.25 17.0998C2.25 16.8611 2.34482 16.6322 2.5136 16.4634C2.68239 16.2946 2.91131 16.1998 3.15 16.1998H4.5V10.4998C4.5 6.86981 7.08 3.83981 10.5075 3.14981C10.4866 2.94124 10.5096 2.7306 10.5751 2.53147C10.6405 2.33234 10.747 2.14915 10.8876 1.9937C11.0283 1.83825 11.1999 1.714 11.3915 1.62897C11.5831 1.54393 11.7904 1.5 12 1.5C12.2096 1.5 12.4169 1.54393 12.6085 1.62897C12.8001 1.714 12.9717 1.83825 13.1124 1.9937C13.253 2.14915 13.3595 2.33234 13.4249 2.53147C13.4904 2.7306 13.5134 2.94124 13.4925 3.14981C15.1877 3.49461 16.7116 4.41458 17.8064 5.75398C18.9011 7.09338 19.4994 8.76993 19.5 10.4998V16.1998H20.85C21.0887 16.1998 21.3176 16.2946 21.4864 16.4634C21.6552 16.6322 21.75 16.8611 21.75 17.0998C21.75 17.3385 21.6552 17.5674 21.4864 17.7362C21.3176 17.905 21.0887 17.9998 20.85 17.9998H19.5Z" fill="#E9E7DF"/>
</svg>
