<svg width="24" height="24" viewBox="0 0 24 24" fill="none" xmlns="http://www.w3.org/2000/svg">
<path d="M18.9999 10.9997H7.82992L12.7099 6.11967C13.0999 5.72967 13.0999 5.08967 12.7099 4.69967C12.6174 4.60697 12.5075 4.53342 12.3865 4.48324C12.2656 4.43306 12.1359 4.40723 12.0049 4.40723C11.874 4.40723 11.7443 4.43306 11.6233 4.48324C11.5023 4.53342 11.3924 4.60697 11.2999 4.69967L4.70992 11.2897C4.61722 11.3822 4.54367 11.4921 4.49349 11.613C4.44331 11.734 4.41748 11.8637 4.41748 11.9947C4.41748 12.1256 4.44331 12.2553 4.49349 12.3763C4.54367 12.4973 4.61722 12.6072 4.70992 12.6997L11.2999 19.2897C11.3925 19.3823 11.5024 19.4557 11.6234 19.5058C11.7443 19.5559 11.874 19.5817 12.0049 19.5817C12.1359 19.5817 12.2655 19.5559 12.3865 19.5058C12.5074 19.4557 12.6173 19.3823 12.7099 19.2897C12.8025 19.1971 12.8759 19.0872 12.9261 18.9662C12.9762 18.8452 13.0019 18.7156 13.0019 18.5847C13.0019 18.4537 12.9762 18.3241 12.9261 18.2031C12.8759 18.0822 12.8025 17.9723 12.7099 17.8797L7.82992 12.9997H18.9999C19.5499 12.9997 19.9999 12.5497 19.9999 11.9997C19.9999 11.4497 19.5499 10.9997 18.9999 10.9997Z" fill="#B0B0B0"/>
</svg>
