<svg xmlns="http://www.w3.org/2000/svg" width="16" height="16" viewBox="0 0 16 16" fill="none">
    <path d="M2.6991 3.86694L5.23576 6.09894L7.49576 3.31628C7.55905 3.23848 7.63907 3.17597 7.72986 3.13339C7.82065 3.09081 7.91989 3.06926 8.02016 3.07035C8.12044 3.07144 8.21918 3.09514 8.30903 3.13968C8.39888 3.18422 8.47752 3.24846 8.5391 3.32761L10.6958 6.09828L13.3144 3.83428C13.4173 3.74555 13.5447 3.69035 13.6798 3.67606C13.8149 3.66178 13.9511 3.68909 14.0702 3.75434C14.1893 3.81959 14.2857 3.91967 14.3464 4.04119C14.4071 4.1627 14.4292 4.29985 14.4098 4.43428L13.4098 11.3323H2.61443L1.5991 4.46561C1.57893 4.33043 1.60079 4.19232 1.66173 4.06999C1.72267 3.94765 1.81973 3.847 1.93978 3.78167C2.05982 3.71633 2.19705 3.68947 2.33287 3.70473C2.46868 3.71998 2.59653 3.77661 2.6991 3.86694ZM2.66643 11.9989H13.3331V12.6656C13.3331 12.8424 13.2629 13.012 13.1378 13.137C13.0128 13.262 12.8432 13.3323 12.6664 13.3323H3.3331C3.15629 13.3323 2.98672 13.262 2.86169 13.137C2.73667 13.012 2.66643 12.8424 2.66643 12.6656V11.9989Z" fill="#56C9CC"/>
</svg>