<svg width="25" height="25" viewBox="0 0 25 25" fill="none" xmlns="http://www.w3.org/2000/svg">
<path d="M5.49995 13.4994L16.67 13.4994L11.79 18.3794C11.4 18.7694 11.4 19.4094 11.79 19.7994C11.8825 19.8921 11.9924 19.9656 12.1133 20.0158C12.2343 20.066 12.364 20.0918 12.495 20.0918C12.6259 20.0918 12.7556 20.066 12.8766 20.0158C12.9976 19.9656 13.1074 19.8921 13.2 19.7994L19.79 13.2094C19.8827 13.1168 19.9562 13.007 20.0064 12.886C20.0566 12.765 20.0824 12.6353 20.0824 12.5044C20.0824 12.3734 20.0566 12.2437 20.0064 12.1227C19.9562 12.0018 19.8827 11.8919 19.79 11.7994L13.2 5.20935C13.1074 5.11677 12.9975 5.04333 12.8765 4.99323C12.7555 4.94312 12.6259 4.91733 12.495 4.91733C12.364 4.91733 12.2344 4.94312 12.1134 4.99323C11.9924 5.04333 11.8825 5.11677 11.79 5.20935C11.6974 5.30193 11.6239 5.41185 11.5738 5.53281C11.5237 5.65377 11.4979 5.78342 11.4979 5.91435C11.4979 6.04529 11.5237 6.17493 11.5738 6.2959C11.6239 6.41686 11.6974 6.52677 11.79 6.61935L16.67 11.4994L5.49995 11.4994C4.94995 11.4994 4.49995 11.9494 4.49995 12.4994C4.49995 13.0494 4.94995 13.4994 5.49995 13.4994Z" fill="#413F3F"/>
</svg>
