<svg xmlns="http://www.w3.org/2000/svg" width="92" height="24" viewBox="0 0 92 24" fill="none">
    <path fill-rule="evenodd" clip-rule="evenodd" d="M11.9645 1.7894C12.1386 1.66524 12.1824 1.41867 12.0623 1.23866C11.9422 1.05865 11.7037 1.01337 11.5296 1.13753C11.3555 1.26169 11.3117 1.50827 11.4318 1.68827C11.5519 1.86828 11.7904 1.91356 11.9645 1.7894ZM11.8973 2.77642C11.8966 2.68271 11.8226 2.60729 11.732 2.60798C11.6413 2.60866 11.5684 2.68519 11.569 2.77891L11.6204 10.0445L11.3758 10.808C11.2946 11.0612 11.1723 11.2935 11.0171 11.497L8.96822 9.40941C8.90366 9.34363 8.79974 9.34442 8.73612 9.41117C8.67249 9.47792 8.67325 9.58536 8.73781 9.65114L10.795 11.7471C10.5256 12.0081 10.1926 12.1986 9.82265 12.293L9.46992 12.383L2.36439 12.4367C2.27375 12.4374 2.2008 12.5139 2.20146 12.6076C2.20213 12.7014 2.27615 12.7768 2.36679 12.7761L9.54468 12.7218L10.1491 12.9746C10.3793 13.0709 10.5895 13.2059 10.7725 13.372L8.77821 15.4643C8.71458 15.5311 8.71534 15.6385 8.7799 15.7043C8.84447 15.7701 8.94838 15.7693 9.01201 15.7025L11.0022 13.6145C11.1479 13.7933 11.2672 13.996 11.3544 14.2166L11.6553 14.9785L11.7071 22.2938C11.7078 22.3875 11.7818 22.4629 11.8724 22.4622C11.9631 22.4615 12.036 22.385 12.0353 22.2913L11.9817 14.7027L12.0775 14.3759C12.1711 14.0567 12.3303 13.7674 12.5399 13.525L14.6346 15.6592C14.6992 15.725 14.8031 15.7242 14.8667 15.6575C14.9303 15.5907 14.9296 15.4833 14.865 15.4175L12.7764 13.2895C12.955 13.1366 13.158 13.0124 13.3792 12.9235L13.9645 12.6884L21.2421 12.6334C21.3327 12.6327 21.4056 12.5561 21.405 12.4624C21.4043 12.3687 21.3303 12.2933 21.2397 12.294L14.0408 12.3484L13.6837 12.2701C13.3287 12.1922 13.0055 12.0263 12.7368 11.7947L14.8232 9.60591C14.8868 9.53916 14.886 9.43172 14.8215 9.36594C14.7569 9.30016 14.653 9.30095 14.5894 9.3677L12.5012 11.5585C12.2813 11.3023 12.1166 10.9935 12.0264 10.6508L11.951 10.3639L11.8973 2.77642Z" fill="#56C9CC"/>
    <path d="M86.79 5.78196V2.12891H91.9984V5.78196H86.79ZM86.79 21.7472V7.45966H91.9984V21.7472H86.79Z" fill="white" fill-opacity="0.8"/>
    <path d="M83.379 7.10938C83.7803 7.10938 84.138 7.16349 84.4521 7.27173C84.7662 7.36193 84.9232 7.41605 84.9232 7.43409V11.9531H83.2481C82.1663 11.9531 81.3811 12.2417 80.8926 12.819C80.4215 13.3962 80.1859 14.2531 80.1859 15.3896V21.7487H74.9775V7.46115H79.2437L79.5839 9.62592C79.898 8.79609 80.3953 8.17372 81.0758 7.75881C81.7563 7.32585 82.524 7.10938 83.379 7.10938Z" fill="white" fill-opacity="0.8"/>
    <path d="M66.4443 5.78196V2.12891H71.6527V5.78196H66.4443ZM66.4443 21.7472V7.45966H71.6527V21.7472H66.4443Z" fill="white" fill-opacity="0.8"/>
    <path d="M58.4353 7.45937H64.5074L59.4037 13.2231L64.6382 21.7469H58.7232L55.818 16.8491L54.0121 18.6621V21.7469H48.8037V2.10156H54.0121V12.9254L58.4353 7.45937Z" fill="white" fill-opacity="0.8"/>
    <path d="M39.5647 3.12891H46.736L40.2713 10.7868L46.8669 21.746H40.0358L36.2931 14.9269L33.1523 17.5788V21.746H27.3682V3.12891H33.1523V11.0844L39.5647 3.12891Z" fill="white" fill-opacity="0.8"/>
</svg>