<svg xmlns="http://www.w3.org/2000/svg" width="29" height="43" viewBox="0 0 29 43" fill="none">
    <path fill-rule="evenodd" clip-rule="evenodd" d="M27.25 13.1365C27.25 22.7613 14.875 36.7006 14.875 36.7006C14.875 36.7006 2.5 22.7613 2.5 13.1365C2.5 6.30208 8.04048 0.761719 14.875 0.761719C21.7095 0.761719 27.25 6.30208 27.25 13.1365Z" fill="#56C9CC" stroke="#269B9E" stroke-width="0.796543" stroke-linecap="round" stroke-linejoin="round"/>
    <path fill-rule="evenodd" clip-rule="evenodd" d="M14.8754 19.2767C18.2411 19.2767 20.9696 16.5486 20.9696 13.1833C20.9696 9.81797 18.2411 7.08984 14.8754 7.08984C11.5097 7.08984 8.78125 9.81797 8.78125 13.1833C8.78125 16.5486 11.5097 19.2767 14.8754 19.2767Z" fill="white"/>
    <path fill-rule="evenodd" clip-rule="evenodd" d="M14.8742 16.1393C16.506 16.1393 17.8289 14.8165 17.8289 13.1849C17.8289 11.5532 16.506 10.2305 14.8742 10.2305C13.2423 10.2305 11.9194 11.5532 11.9194 13.1849C11.9194 14.8165 13.2423 16.1393 14.8742 16.1393Z" fill="#56C9CC"/>
    <g filter="url(#filter0_f_2920_2219)">
        <ellipse cx="14.8798" cy="40.6867" rx="4.55172" ry="0.436716" fill="black" fill-opacity="0.4"/>
    </g>
    <defs>
        <filter id="filter0_f_2920_2219" x="9.19021" y="39.1121" width="11.3794" height="3.15084" filterUnits="userSpaceOnUse" color-interpolation-filters="sRGB">
            <feFlood flood-opacity="0" result="BackgroundImageFix"/>
            <feBlend mode="normal" in="SourceGraphic" in2="BackgroundImageFix" result="shape"/>
            <feGaussianBlur stdDeviation="0.56896" result="effect1_foregroundBlur_2920_2219"/>
        </filter>
    </defs>
</svg>