<svg xmlns="http://www.w3.org/2000/svg" width="68" height="20" viewBox="0 0 68 20" fill="none">
    <path d="M62.5195 3.74944V0.03125H68.0004V3.74944H62.5195ZM62.5195 19.9993V5.45706H68.0004V19.9993H62.5195Z" fill="white"/>
    <path d="M58.9325 5.09766C59.3547 5.09766 59.7311 5.15274 60.0615 5.26291C60.392 5.35472 60.5572 5.4098 60.5572 5.42816V10.0277H58.7948C57.6565 10.0277 56.8304 10.3215 56.3164 10.9091C55.8207 11.4966 55.5728 12.3688 55.5728 13.5256V19.998H50.0928V5.4557H54.5815L54.9395 7.65908C55.2699 6.81445 55.7931 6.18098 56.5091 5.75867C57.2251 5.31799 58.0329 5.09766 58.9325 5.09766Z" fill="white"/>
    <path d="M41.1152 3.74944V0.03125H46.5961V3.74944H41.1152ZM41.1152 19.9993V5.45706H46.5961V19.9993H41.1152Z" fill="white"/>
    <path d="M32.6867 5.45335H39.0755L33.7056 11.3198L39.2132 19.9956H32.9896L29.9329 15.0105L28.0328 16.8558V19.9956H22.5527V0H28.0328V11.0169L32.6867 5.45335Z" fill="white"/>
    <path d="M12.8327 1.05469H20.3781L13.5762 8.84912L20.5158 20.0037H13.3284L9.39044 13.0631L6.08589 15.7622V20.0037H0V1.05469H6.08589V9.15209L12.8327 1.05469Z" fill="white"/>
</svg>