<svg xmlns="http://www.w3.org/2000/svg" width="16" height="16" viewBox="0 0 16 16" fill="none">
    <path d="M3.19997 7.99999C3.19997 8.14144 3.14378 8.2771 3.04376 8.37712C2.94374 8.47714 2.80808 8.53333 2.66663 8.53333C2.52519 8.53333 2.38953 8.47714 2.28951 8.37712C2.18949 8.2771 2.1333 8.14144 2.1333 7.99999C2.1333 7.85854 2.18949 7.72289 2.28951 7.62287C2.38953 7.52285 2.52519 7.46666 2.66663 7.46666C2.80808 7.46666 2.94374 7.52285 3.04376 7.62287C3.14378 7.72289 3.19997 7.85854 3.19997 7.99999ZM8.5333 7.99999C8.5333 8.14144 8.47711 8.2771 8.37709 8.37712C8.27707 8.47714 8.14142 8.53333 7.99997 8.53333C7.85852 8.53333 7.72286 8.47714 7.62284 8.37712C7.52282 8.2771 7.46663 8.14144 7.46663 7.99999C7.46663 7.85854 7.52282 7.72289 7.62284 7.62287C7.72286 7.52285 7.85852 7.46666 7.99997 7.46666C8.14142 7.46666 8.27707 7.52285 8.37709 7.62287C8.47711 7.72289 8.5333 7.85854 8.5333 7.99999ZM13.8666 7.99999C13.8666 8.14144 13.8104 8.2771 13.7104 8.37712C13.6104 8.47714 13.4748 8.53333 13.3333 8.53333C13.1919 8.53333 13.0562 8.47714 12.9562 8.37712C12.8562 8.2771 12.8 8.14144 12.8 7.99999C12.8 7.85854 12.8562 7.72289 12.9562 7.62287C13.0562 7.52285 13.1919 7.46666 13.3333 7.46666C13.4748 7.46666 13.6104 7.52285 13.7104 7.62287C13.8104 7.72289 13.8666 7.85854 13.8666 7.99999Z" stroke="white"/>
</svg>