<svg width="1200" height="242" viewBox="0 0 1200 242" fill="none" xmlns="http://www.w3.org/2000/svg">
    <path fill-rule="evenodd" clip-rule="evenodd" d="M485.287 41.6378C486.273 40.9582 486.522 39.6111 485.845 38.6291C485.168 37.6471 483.82 37.402 482.835 38.0816C481.849 38.7612 481.6 40.1083 482.277 41.0903C482.954 42.0723 484.302 42.3174 485.287 41.6378ZM484.907 47.0305C484.904 46.5187 484.486 46.1075 483.974 46.112C483.461 46.1166 483.048 46.5352 483.051 47.047L483.279 86.709L481.884 90.8969C481.423 92.278 480.731 93.5459 479.855 94.6573L468.3 83.2843C467.935 82.9256 467.348 82.9308 466.987 83.2959C466.627 83.6611 466.63 84.2478 466.995 84.6065L478.597 96.0262C477.072 97.4566 475.185 98.5019 473.091 99.0211L471.094 99.5161L430.927 99.8732C430.415 99.8777 430.002 100.296 430.005 100.808C430.007 101.32 430.425 101.731 430.938 101.727L471.516 101.366L474.93 102.741C476.234 103.266 477.425 104.004 478.46 104.913L467.174 116.351C466.814 116.716 466.817 117.303 467.181 117.661C467.546 118.02 468.133 118.015 468.494 117.65L479.755 106.237C480.574 107.21 481.244 108.312 481.733 109.513L483.433 113.685L483.662 153.623C483.665 154.135 484.083 154.546 484.596 154.542C485.108 154.537 485.521 154.119 485.518 153.607L485.28 112.145L485.82 110.376C486.352 108.63 487.257 107.047 488.446 105.719L500.279 117.366C500.643 117.725 501.231 117.719 501.591 117.354C501.951 116.989 501.948 116.402 501.583 116.044L489.786 104.432C490.795 103.598 491.942 102.919 493.191 102.433L496.501 101.144L537.645 100.778C538.158 100.773 538.571 100.355 538.568 99.843C538.565 99.3312 538.147 98.92 537.634 98.9245L496.938 99.2863L494.918 98.8612C492.916 98.4397 491.093 97.5396 489.578 96.281L501.398 84.3019C501.758 83.9368 501.755 83.35 501.391 82.9913C501.026 82.6327 500.439 82.6379 500.079 83.003L488.247 94.9941C487.002 93.5955 486.071 91.9073 485.563 90.0325L485.145 88.4871L484.907 47.0305Z" fill="#56C9CC"/>
    <path fill-rule="evenodd" clip-rule="evenodd" d="M776.267 168.305C776.893 168.416 777.491 167.998 777.602 167.372C777.713 166.746 777.296 166.148 776.669 166.037C776.043 165.925 775.445 166.343 775.334 166.969C775.223 167.596 775.64 168.194 776.267 168.305ZM774.109 170.209C774.299 170.013 774.295 169.701 774.1 169.511C773.905 169.32 773.592 169.325 773.402 169.52L758.66 184.656L756.566 185.723C755.876 186.074 755.14 186.296 754.393 186.39L754.279 177.744C754.275 177.472 754.051 177.254 753.779 177.257C753.506 177.261 753.288 177.485 753.292 177.757L753.406 186.438C752.295 186.409 751.192 186.099 750.207 185.512L749.263 184.949L733.957 170.041C733.762 169.851 733.449 169.855 733.259 170.05C733.068 170.245 733.073 170.558 733.268 170.748L748.737 185.814L749.511 187.612C749.808 188.3 749.981 189.026 750.033 189.758L741.493 189.871C741.22 189.874 741.002 190.098 741.006 190.371C741.01 190.643 741.233 190.862 741.506 190.858L750.027 190.746C749.973 191.422 749.814 192.091 749.55 192.73L748.632 194.951L733.789 210.191C733.598 210.387 733.603 210.699 733.798 210.889C733.993 211.08 734.306 211.076 734.496 210.88L749.907 195.058L750.771 194.589C751.625 194.126 752.558 193.864 753.503 193.806L753.62 202.657C753.623 202.929 753.847 203.148 754.12 203.144C754.393 203.14 754.611 202.916 754.607 202.644L754.491 193.819C755.185 193.881 755.872 194.052 756.526 194.336L758.256 195.086L773.939 210.361C774.135 210.552 774.447 210.548 774.638 210.352C774.828 210.157 774.824 209.844 774.628 209.654L759.121 194.55L758.514 193.628C757.915 192.717 757.563 191.693 757.461 190.648L766.406 190.53C766.678 190.526 766.896 190.302 766.893 190.03C766.889 189.757 766.665 189.539 766.393 189.542L757.439 189.66C757.492 188.664 757.771 187.675 758.28 186.773L758.699 186.031L774.109 170.209Z" fill="#3CBB80"/>
    <path d="M720.024 125.079V112.32H738.831V125.079H720.024ZM720.024 180.837V130.938H738.831V180.837H720.024Z" fill="white"/>
    <path d="M707.708 129.711C709.157 129.711 710.448 129.9 711.582 130.278C712.716 130.593 713.283 130.782 713.283 130.845V146.628H707.235C703.329 146.628 700.494 147.636 698.73 149.652C697.028 151.668 696.178 154.661 696.178 158.63V180.839H677.371V130.94H692.776L694.004 138.5C695.138 135.602 696.934 133.428 699.391 131.979C701.848 130.467 704.62 129.711 707.708 129.711Z" fill="white"/>
    <path d="M646.561 125.079V112.32H665.368V125.079H646.561ZM646.561 180.837V130.938H665.368V180.837H646.561Z" fill="white"/>
    <path d="M617.644 130.939H639.569L621.141 151.069L640.042 180.838H618.684L608.193 163.732L601.672 170.064V180.838H582.866V112.227H601.672V150.029L617.644 130.939Z" fill="white"/>
    <path d="M549.503 115.816H575.398L552.054 142.562L575.87 180.837H551.204L537.69 157.021L526.349 166.283V180.837H505.463V115.816H526.349V143.601L549.503 115.816Z" fill="white"/>
    <g filter="url(#filter0_f_2777_2694)">
        <circle cx="754.275" cy="190.785" r="9.70281" fill="#99CC9E" fill-opacity="0.5"/>
    </g>
    <g filter="url(#filter1_f_2777_2694)">
        <circle cx="484.536" cy="100.741" r="11.6434" fill="#67D9DC" fill-opacity="0.3"/>
    </g>
    <defs>
        <filter id="filter0_f_2777_2694" x="732.572" y="169.082" width="43.4058" height="43.4062" filterUnits="userSpaceOnUse" color-interpolation-filters="sRGB">
            <feFlood flood-opacity="0" result="BackgroundImageFix"/>
            <feBlend mode="normal" in="SourceGraphic" in2="BackgroundImageFix" result="shape"/>
            <feGaussianBlur stdDeviation="6" result="effect1_foregroundBlur_2777_2694"/>
        </filter>
        <filter id="filter1_f_2777_2694" x="456.893" y="73.0977" width="55.2866" height="55.2852" filterUnits="userSpaceOnUse" color-interpolation-filters="sRGB">
            <feFlood flood-opacity="0" result="BackgroundImageFix"/>
            <feBlend mode="normal" in="SourceGraphic" in2="BackgroundImageFix" result="shape"/>
            <feGaussianBlur stdDeviation="8" result="effect1_foregroundBlur_2777_2694"/>
        </filter>
    </defs>
</svg>
