<svg width="449" height="350" viewBox="0 0 449 350" fill="none" xmlns="http://www.w3.org/2000/svg">
<path d="M337.491 150.121V137.2H356.537V150.121H337.491ZM337.491 206.588V156.054H356.537V206.588H337.491Z" fill="white"/>
<path d="M325.02 154.811C326.487 154.811 327.795 155.002 328.944 155.385C330.092 155.704 330.666 155.895 330.666 155.959V171.942H324.541C320.585 171.942 317.714 172.963 315.928 175.005C314.205 177.046 313.344 180.077 313.344 184.097V206.588H294.298V156.055H309.898L311.142 163.711C312.291 160.776 314.109 158.575 316.598 157.108C319.086 155.576 321.893 154.811 325.02 154.811Z" fill="white"/>
<path d="M263.096 150.121V137.2H282.141V150.121H263.096ZM263.096 206.588V156.054H282.141V206.588H263.096Z" fill="white"/>
<path d="M233.809 156.054H256.013L237.351 176.44L256.492 206.588H234.862L224.239 189.265L217.635 195.677V206.588H198.589V137.104H217.635V175.387L233.809 156.054Z" fill="white"/>
<path d="M164.804 140.741H191.028L167.388 167.826L191.506 206.588H166.527L152.841 182.469L141.356 191.849V206.588H120.205V140.741H141.356V168.879L164.804 140.741Z" fill="white"/>
<g clip-path="url(#clip0_0_1)">
<path d="M158.973 177.456L125.42 128.176L124.818 123.996C124.566 122.201 124.561 120.395 124.781 118.618L149.193 123.27C149.876 123.4 150.53 122.955 150.659 122.272C150.789 121.589 150.342 120.933 149.66 120.803L125.248 116.151C125.692 114.416 126.35 112.729 127.246 111.16L129.333 107.493L180.973 72.3335C181.545 71.9442 181.692 71.1638 181.303 70.5913C180.913 70.0189 180.132 69.8701 179.561 70.2594L127.929 105.413L123.752 106.01C121.958 106.261 120.153 106.263 118.376 106.04L122.995 81.622C123.124 80.939 122.678 80.2836 121.995 80.1535C121.313 80.0234 120.658 80.469 120.529 81.1519L115.91 105.57C114.176 105.124 112.489 104.463 110.919 103.565L107.251 101.472L73.6874 52.175C73.2976 51.6026 72.5173 51.4539 71.9457 51.8431C71.374 52.2323 71.2264 53.0128 71.6161 53.5852L105.169 102.866L105.771 107.045C106.024 108.841 106.028 110.647 105.808 112.424L81.3961 107.771C80.7133 107.641 80.0588 108.087 79.9296 108.77C79.8663 109.104 79.9394 109.443 80.1201 109.709C80.3009 109.974 80.5811 110.172 80.9238 110.23L105.335 114.882C104.892 116.617 104.233 118.304 103.338 119.873L101.251 123.54L43.6867 162.733C43.1151 163.122 42.9674 163.903 43.3572 164.475C43.7469 165.047 44.5272 165.196 45.0989 164.807L102.646 125.626L106.823 125.028C108.617 124.778 110.422 124.776 112.199 124.999L107.58 149.417C107.517 149.751 107.59 150.09 107.77 150.356C107.951 150.621 108.231 150.819 108.574 150.877C109.257 151.007 109.911 150.561 110.04 149.879L114.659 125.461C116.394 125.907 118.081 126.567 119.65 127.466L123.318 129.558L156.871 178.839C157.261 179.411 158.041 179.56 158.613 179.171C159.184 178.782 159.332 178.001 158.942 177.429L158.973 177.456Z" fill="#56C9CC"/>
<path d="M185.945 67.059C186.881 68.4336 188.752 68.7902 190.125 67.8556C191.498 66.921 191.852 65.0491 190.916 63.6745C189.98 62.2999 188.108 61.9432 186.736 62.8778C185.363 63.8124 185.009 65.6844 185.945 67.059Z" fill="#56C9CC"/>
</g>
<g clip-path="url(#clip1_0_1)">
<g filter="url(#filter0_f_0_1)">
<ellipse cx="366.619" cy="217.344" rx="7.61905" ry="7.66068" fill="#99CC9E" fill-opacity="0.5"/>
</g>
<path d="M390.994 217.165H372.42L371.238 216.583C370.731 216.332 370.265 216.014 369.846 215.643L375.325 210.135C375.478 209.981 375.478 209.732 375.325 209.578C375.172 209.424 374.925 209.424 374.771 209.578L369.293 215.087C368.924 214.665 368.605 214.197 368.358 213.688L367.779 212.499V192.902C367.779 192.685 367.604 192.509 367.388 192.509C367.173 192.509 366.998 192.685 366.998 192.902V212.496L366.419 213.684C366.169 214.194 365.853 214.662 365.484 215.084L360.005 209.575C359.852 209.421 359.605 209.421 359.452 209.575C359.299 209.729 359.299 209.978 359.452 210.132L364.931 215.64C364.512 216.011 364.046 216.332 363.539 216.58L362.357 217.162H343.776C343.56 217.162 343.385 217.338 343.385 217.555C343.385 217.772 343.56 217.948 343.776 217.948H362.351L363.533 218.53C364.039 218.781 364.505 219.099 364.924 219.47L359.446 224.978C359.292 225.132 359.292 225.381 359.446 225.535C359.521 225.61 359.621 225.651 359.721 225.651C359.821 225.651 359.921 225.613 359.996 225.535L365.475 220.026C365.844 220.447 366.163 220.916 366.41 221.425L366.988 222.614V244.459C366.988 244.676 367.163 244.852 367.379 244.852C367.595 244.852 367.77 244.676 367.77 244.459V222.62L368.348 221.432C368.599 220.922 368.914 220.454 369.283 220.032L374.762 225.541C374.837 225.616 374.937 225.657 375.037 225.657C375.137 225.657 375.237 225.62 375.312 225.541C375.466 225.387 375.466 225.139 375.312 224.984L369.834 219.476C370.253 219.105 370.719 218.784 371.225 218.536L372.407 217.954H390.982C391.198 217.954 391.373 217.778 391.373 217.561C391.373 217.344 391.198 217.168 390.982 217.168L390.994 217.165Z" fill="#18D17B"/>
</g>
<defs>
<filter id="filter0_f_0_1" x="347" y="197.684" width="39.2383" height="39.3213" filterUnits="userSpaceOnUse" color-interpolation-filters="sRGB">
<feFlood flood-opacity="0" result="BackgroundImageFix"/>
<feBlend mode="normal" in="SourceGraphic" in2="BackgroundImageFix" result="shape"/>
<feGaussianBlur stdDeviation="6" result="effect1_foregroundBlur_0_1"/>
</filter>
<clipPath id="clip0_0_1">
<rect width="154.064" height="178.519" fill="white" transform="translate(147.563) rotate(55.751)"/>
</clipPath>
<clipPath id="clip1_0_1">
<rect width="48" height="56" fill="white" transform="translate(343 189)"/>
</clipPath>
</defs>
</svg>
