<svg width="561" height="374" viewBox="0 0 561 374" fill="none" xmlns="http://www.w3.org/2000/svg">
<path d="M395.703 143.585V126.752H420.516V143.585H395.703ZM395.703 217.154V151.316H420.516V217.154H395.703Z" fill="white"/>
<path d="M379.454 149.695C381.366 149.695 383.07 149.945 384.566 150.443C386.063 150.859 386.811 151.108 386.811 151.192V172.015H378.831C373.677 172.015 369.936 173.345 367.608 176.005C365.364 178.665 364.242 182.614 364.242 187.851V217.154H339.428V151.316H359.753L361.374 161.292C362.87 157.468 365.239 154.6 368.481 152.688C371.723 150.693 375.381 149.695 379.454 149.695Z" fill="white"/>
<path d="M298.776 143.585V126.752H323.59V143.585H298.776ZM298.776 217.154V151.316H323.59V217.154H298.776Z" fill="white"/>
<path d="M260.62 151.316H289.549L265.234 177.875L290.172 217.154H261.992L248.151 194.584L239.547 202.939V217.154H214.733V126.627H239.547V176.504L260.62 151.316Z" fill="white"/>
<path d="M170.716 131.365H204.882L174.083 166.653L205.505 217.154H172.96L155.129 185.731L140.166 197.951V217.154H112.609V131.365H140.166V168.025L170.716 131.365Z" fill="white"/>
<path d="M163.12 179.2L119.405 114.994L118.62 109.549C118.292 107.21 118.285 104.857 118.573 102.541L150.378 108.603C151.267 108.772 152.12 108.192 152.288 107.302C152.457 106.412 151.875 105.558 150.986 105.389L119.181 99.3273C119.759 97.067 120.617 94.8695 121.784 92.825L124.503 88.0473L191.782 42.2398C192.527 41.7327 192.72 40.7158 192.212 39.97C191.704 39.2242 190.687 39.0304 189.943 39.5375L122.673 85.3377L117.232 86.1161C114.894 86.4419 112.543 86.4452 110.228 86.1545L116.246 54.3414C116.414 53.4516 115.833 52.5977 114.943 52.4282C114.054 52.2586 113.201 52.8392 113.033 53.729L107.015 85.5422C104.755 84.961 102.557 84.1 100.512 82.9296L95.7338 80.2034L52.0047 15.9762C51.4969 15.2304 50.4803 15.0366 49.7355 15.5437C48.9907 16.0508 48.7983 17.0677 49.3061 17.8135L93.0205 82.019L93.8054 87.4645C94.1341 89.8034 94.1404 92.1563 93.8528 94.4719L62.048 88.4103C61.1585 88.2407 60.3057 88.8213 60.1374 89.7111C60.055 90.1469 60.1501 90.5883 60.3856 90.9342C60.6211 91.2801 60.9862 91.5378 61.4326 91.6135L93.2375 97.6751C92.6595 99.9353 91.8018 102.133 90.6346 104.177L87.9159 108.955L12.9181 160.017C12.1733 160.524 11.981 161.541 12.4888 162.287C12.9966 163.033 14.0131 163.227 14.7579 162.72L89.7341 111.672L95.1758 110.894C97.5132 110.568 99.8648 110.564 102.18 110.855L96.1618 142.668C96.0793 143.104 96.1745 143.546 96.41 143.891C96.6455 144.237 97.0105 144.495 97.457 144.571C98.3465 144.74 99.1993 144.16 99.3676 143.27L105.385 111.457C107.645 112.038 109.843 112.899 111.888 114.069L116.666 116.796L160.381 181.001C160.889 181.747 161.905 181.941 162.65 181.434C163.395 180.926 163.587 179.91 163.079 179.164L163.12 179.2Z" fill="#56C9CC"/>
<path d="M465.993 230.765H441.614L440.062 230.006C439.397 229.678 438.786 229.263 438.236 228.779L445.427 221.588C445.628 221.387 445.628 221.063 445.427 220.862C445.225 220.661 444.901 220.661 444.7 220.862L437.509 228.053C437.025 227.503 436.607 226.891 436.282 226.226L435.523 224.675V199.093C435.523 198.81 435.293 198.58 435.01 198.58C434.727 198.58 434.497 198.81 434.497 199.093V224.671L433.738 226.222C433.409 226.887 432.995 227.499 432.51 228.048L425.32 220.858C425.119 220.657 424.795 220.657 424.593 220.858C424.392 221.059 424.392 221.383 424.593 221.584L431.784 228.775C431.234 229.259 430.623 229.678 429.958 230.002L428.406 230.761H404.019C403.736 230.761 403.506 230.991 403.506 231.274C403.506 231.558 403.736 231.787 404.019 231.787H428.398L429.949 232.547C430.614 232.875 431.226 233.29 431.776 233.774L424.585 240.965C424.384 241.166 424.384 241.49 424.585 241.691C424.684 241.789 424.815 241.843 424.946 241.843C425.078 241.843 425.209 241.794 425.308 241.691L432.498 234.5C432.982 235.05 433.401 235.662 433.725 236.327L434.485 237.878V266.394C434.485 266.678 434.714 266.907 434.998 266.907C435.281 266.907 435.511 266.678 435.511 266.394V237.886L436.27 236.335C436.598 235.67 437.013 235.059 437.497 234.509L444.688 241.699C444.786 241.798 444.918 241.851 445.049 241.851C445.18 241.851 445.312 241.802 445.41 241.699C445.611 241.498 445.611 241.174 445.41 240.973L438.219 233.782C438.769 233.298 439.381 232.879 440.046 232.555L441.597 231.796H465.976C466.26 231.796 466.489 231.566 466.489 231.283C466.489 230.999 466.26 230.77 465.976 230.77L465.993 230.765Z" fill="#18D17B"/>
</svg>
