<svg width="1200" height="308" viewBox="0 0 1200 308" fill="none" xmlns="http://www.w3.org/2000/svg">
    <path d="M701.034 204.272V191.098H720.496V204.272H701.034ZM701.034 261.848V210.322H720.496V261.848H701.034Z" fill="white"/>
    <path d="M688.29 209.053C689.789 209.053 691.126 209.248 692.299 209.638C693.473 209.964 694.06 210.159 694.06 210.224V226.521H687.801C683.758 226.521 680.824 227.562 678.999 229.644C677.238 231.725 676.358 234.816 676.358 238.914V261.847H656.896V210.321H672.838L674.109 218.128C675.282 215.136 677.141 212.891 679.683 211.395C682.226 209.833 685.095 209.053 688.29 209.053Z" fill="white"/>
    <path d="M625.013 204.272V191.098H644.474V204.272H625.013ZM625.013 261.848V210.322H644.474V261.848H625.013Z" fill="white"/>
    <path d="M595.086 210.322H617.775L598.705 231.108L618.264 261.848H596.162L585.306 244.185L578.558 250.723V261.848H559.097V191H578.558V230.035L595.086 210.322Z" fill="white"/>
    <path d="M524.574 194.707H551.37L527.214 222.324L551.859 261.847H526.334L512.349 237.255L500.613 246.819V261.847H479V194.707H500.613V223.398L524.574 194.707Z" fill="white"/>
    <g filter="url(#filter0_f_2777_3198)">
        <ellipse cx="472.863" cy="167.612" rx="18.0392" ry="18.0003" fill="#67D9DC" fill-opacity="0.3"/>
    </g>
    <g clip-path="url(#clip0_2777_3198)">
        <path d="M518.447 231.576L484.161 181.328L483.546 177.066C483.288 175.235 483.283 173.394 483.508 171.582L508.453 176.326C509.151 176.458 509.82 176.004 509.952 175.308C510.084 174.611 509.628 173.943 508.93 173.81L483.985 169.066C484.439 167.297 485.111 165.578 486.027 163.977L488.159 160.238L540.928 124.388C541.512 123.991 541.663 123.196 541.264 122.612C540.866 122.028 540.069 121.877 539.485 122.273L486.725 158.118L482.457 158.727C480.623 158.982 478.779 158.985 476.963 158.757L481.683 133.859C481.815 133.163 481.359 132.495 480.662 132.362C479.964 132.229 479.295 132.684 479.163 133.38L474.443 158.278C472.671 157.823 470.947 157.149 469.343 156.233L465.595 154.099L431.298 103.834C430.9 103.25 430.103 103.099 429.518 103.495C428.934 103.892 428.783 104.688 429.182 105.272L463.467 155.52L464.083 159.782C464.341 161.613 464.346 163.454 464.12 165.266L439.175 160.522C438.478 160.39 437.809 160.844 437.677 161.54C437.612 161.882 437.687 162.227 437.872 162.498C438.056 162.768 438.343 162.97 438.693 163.029L463.638 167.773C463.184 169.542 462.512 171.262 461.596 172.862L459.464 176.601L400.642 216.564C400.058 216.961 399.907 217.756 400.305 218.34C400.704 218.924 401.501 219.075 402.085 218.679L460.89 178.728L465.158 178.118C466.991 177.863 468.835 177.861 470.651 178.088L465.931 202.986C465.867 203.327 465.941 203.673 466.126 203.943C466.311 204.214 466.597 204.416 466.947 204.475C467.645 204.608 468.314 204.153 468.446 203.457L473.165 178.559C474.938 179.014 476.661 179.688 478.265 180.604L482.013 182.737L516.299 232.986C516.697 233.57 517.495 233.721 518.079 233.325C518.663 232.928 518.814 232.132 518.415 231.548L518.447 231.576Z" fill="#56C9CC"/>
        <path d="M546.008 119.376C546.964 120.777 548.877 121.141 550.279 120.188C551.682 119.235 552.044 117.326 551.088 115.925C550.131 114.523 548.219 114.159 546.816 115.112C545.413 116.065 545.052 117.974 546.008 119.376Z" fill="#56C9CC"/>
    </g>
    <g clip-path="url(#clip1_2777_3198)">
        <g filter="url(#filter1_f_2777_3198)">
            <ellipse cx="735.902" cy="277.482" rx="7.84313" ry="7.82623" fill="#99CC9E" fill-opacity="0.5"/>
        </g>
        <path d="M760.994 277.3H741.873L740.657 276.706C740.135 276.449 739.655 276.125 739.224 275.746L744.864 270.118C745.021 269.961 745.021 269.707 744.864 269.55C744.706 269.392 744.452 269.392 744.294 269.55L738.654 275.177C738.274 274.747 737.946 274.268 737.692 273.748L737.096 272.534V252.513C737.096 252.291 736.916 252.111 736.694 252.111C736.472 252.111 736.292 252.291 736.292 252.513V272.53L735.696 273.745C735.439 274.265 735.113 274.744 734.734 275.174L729.094 269.546C728.936 269.389 728.682 269.389 728.524 269.546C728.366 269.704 728.366 269.958 728.524 270.115L734.164 275.743C733.732 276.122 733.253 276.449 732.731 276.703L731.515 277.297H712.387C712.165 277.297 711.985 277.477 711.985 277.699C711.985 277.92 712.165 278.1 712.387 278.1H731.508L732.725 278.694C733.246 278.951 733.726 279.276 734.157 279.655L728.518 285.282C728.36 285.44 728.36 285.693 728.518 285.851C728.595 285.928 728.698 285.97 728.801 285.97C728.904 285.97 729.007 285.931 729.084 285.851L734.724 280.223C735.104 280.654 735.432 281.132 735.686 281.653L736.282 282.867V305.184C736.282 305.406 736.462 305.586 736.684 305.586C736.906 305.586 737.087 305.406 737.087 305.184V282.873L737.682 281.659C737.94 281.139 738.265 280.66 738.645 280.23L744.284 285.857C744.362 285.934 744.465 285.976 744.568 285.976C744.671 285.976 744.774 285.938 744.851 285.857C745.009 285.7 745.009 285.446 744.851 285.289L739.211 279.661C739.643 279.282 740.122 278.955 740.644 278.701L741.86 278.107H760.981C761.203 278.107 761.384 277.927 761.384 277.705C761.384 277.483 761.203 277.304 760.981 277.304L760.994 277.3Z" fill="#18D17B"/>
    </g>
    <defs>
        <filter id="filter0_f_2777_3198" x="442.275" y="137.062" width="61.1766" height="61.0979" filterUnits="userSpaceOnUse" color-interpolation-filters="sRGB">
            <feFlood flood-opacity="0" result="BackgroundImageFix"/>
            <feBlend mode="normal" in="SourceGraphic" in2="BackgroundImageFix" result="shape"/>
            <feGaussianBlur stdDeviation="6.27449" result="effect1_foregroundBlur_2777_3198"/>
        </filter>
        <filter id="filter1_f_2777_3198" x="718.647" y="260.245" width="34.5095" height="34.4758" filterUnits="userSpaceOnUse" color-interpolation-filters="sRGB">
            <feFlood flood-opacity="0" result="BackgroundImageFix"/>
            <feBlend mode="normal" in="SourceGraphic" in2="BackgroundImageFix" result="shape"/>
            <feGaussianBlur stdDeviation="4.70586" result="effect1_foregroundBlur_2777_3198"/>
        </filter>
        <clipPath id="clip0_2777_3198">
            <rect width="157.199" height="182.295" fill="white" transform="matrix(0.56362 0.826034 -0.827164 0.561961 506.788 51)"/>
        </clipPath>
        <clipPath id="clip1_2777_3198">
            <rect width="49.4117" height="57.2101" fill="white" transform="translate(711.588 248.525)"/>
        </clipPath>
    </defs>
</svg>
