<svg width="210" height="53" viewBox="0 0 300 53" fill="none" xmlns="http://www.w3.org/2000/svg">
<path d="M23.5469 9.03125V10.7891C22.5052 12.9505 21.7109 14.6432 21.1641 15.8672C20.6172 17.0651 20.3438 17.8854 20.3438 18.3281C20.3438 19.0833 20.7734 19.4609 21.6328 19.4609L29.3281 2.58594C31.125 1.41406 33.5729 0.828125 36.6719 0.828125C39.7969 0.828125 42.4792 1.6875 44.7188 3.40625C47.1667 5.33333 48.3906 7.96354 48.3906 11.2969C48.3906 14.0833 47.4401 16.8307 45.5391 19.5391C43.638 22.2214 41.151 24.5521 38.0781 26.5312C36.6458 25.724 35.3568 25.3203 34.2109 25.3203C33.0651 25.3203 32.4922 25.8802 32.4922 27C33.6901 27.2344 34.7708 27.5729 35.7344 28.0156C36.724 28.4323 37.8828 29.2526 39.2109 30.4766L49.6016 40.0469C48.8464 48.4844 44.6276 52.7031 36.9453 52.7031C34.1068 52.7031 31.6719 51.974 29.6406 50.5156C27.2448 48.8229 25.3698 46.2448 24.0156 42.7812L20.3828 33.7188H20.1875C19.3281 33.7188 18.8984 34.0833 18.8984 34.8125C18.8984 35.2812 19.263 36.4141 19.9922 38.2109C20.7214 40.1641 21.8151 42.7682 23.2734 46.0234V49.0312C20.5391 51.4792 16.5677 52.7031 11.3594 52.7031C8.54688 52.7031 6.13802 52.0651 4.13281 50.7891C1.86719 49.4089 0.734375 47.4427 0.734375 44.8906V4.57812C3.41667 2.13021 7.49219 0.90625 12.9609 0.90625C15.7995 0.90625 18.2083 1.50521 20.1875 2.70312C22.4271 4.13542 23.5469 6.24479 23.5469 9.03125ZM77.9375 9.03125V10.7891C76.8958 12.9505 76.1016 14.6432 75.5547 15.8672C75.0078 17.0651 74.7344 17.8854 74.7344 18.3281C74.7344 19.0833 75.1641 19.4609 76.0234 19.4609L83.7188 2.58594C85.5156 1.41406 87.9635 0.828125 91.0625 0.828125C94.1875 0.828125 96.8698 1.6875 99.1094 3.40625C101.557 5.33333 102.781 7.96354 102.781 11.2969C102.781 14.0833 101.831 16.8307 99.9297 19.5391C98.0286 22.2214 95.5417 24.5521 92.4688 26.5312C91.0365 25.724 89.7474 25.3203 88.6016 25.3203C87.4557 25.3203 86.8828 25.8802 86.8828 27C88.0807 27.2344 89.1615 27.5729 90.125 28.0156C91.1146 28.4323 92.2734 29.2526 93.6016 30.4766L103.992 40.0469C103.237 48.4844 99.0182 52.7031 91.3359 52.7031C88.4974 52.7031 86.0625 51.974 84.0312 50.5156C81.6354 48.8229 79.7604 46.2448 78.4062 42.7812L74.7734 33.7188H74.5781C73.7188 33.7188 73.2891 34.0833 73.2891 34.8125C73.2891 35.2812 73.6536 36.4141 74.3828 38.2109C75.112 40.1641 76.2057 42.7682 77.6641 46.0234V49.0312C74.9297 51.4792 70.9583 52.7031 65.75 52.7031C62.9375 52.7031 60.5286 52.0651 58.5234 50.7891C56.2578 49.4089 55.125 47.4427 55.125 44.8906V4.57812C57.8073 2.13021 61.8828 0.90625 67.3516 0.90625C70.1901 0.90625 72.599 1.50521 74.5781 2.70312C76.8177 4.13542 77.9375 6.24479 77.9375 9.03125ZM132.328 8.67969V49.0312C131.13 50.0729 129.529 50.9453 127.523 51.6484C125.518 52.3516 123.083 52.7031 120.219 52.7031C117.354 52.7031 114.919 52.0651 112.914 50.7891C110.648 49.4089 109.516 47.4557 109.516 44.9297V4.57812C110.714 3.53646 112.315 2.66406 114.32 1.96094C116.326 1.25781 118.747 0.90625 121.586 0.90625C124.424 0.90625 126.885 1.53125 128.969 2.78125C131.208 4.21354 132.328 6.17969 132.328 8.67969ZM161.055 24.2266C161.159 24.3047 161.458 24.3438 161.953 24.3438C162.448 24.3438 162.826 24.1484 163.086 23.7578C163.346 23.3672 163.477 22.7292 163.477 21.8438V20.4375C163.477 19.5 163.359 18.8359 163.125 18.4453C162.917 18.0286 162.552 17.8203 162.031 17.8203C161.536 17.8203 161.198 17.8724 161.016 17.9766C161.042 18.1068 161.055 18.3281 161.055 18.6406V24.2266ZM181.211 33.1328L187.969 40.0469C187.5 44.1094 186.211 47.2344 184.102 49.4219C182.018 51.6094 179.128 52.7031 175.43 52.7031C172.643 52.7031 170.221 52.0391 168.164 50.7109C165.534 49.0443 163.568 46.388 162.266 42.7422L160.859 38.9141C159.766 38.888 158.385 38.7448 156.719 38.4844C156.51 38.6927 156.406 38.9792 156.406 39.3438C156.406 40.0469 157.461 40.4635 159.57 40.5938L161.797 46.2188V49.5391C158.802 51.6484 154.961 52.7031 150.273 52.7031C146.914 52.7031 144.232 52.013 142.227 50.6328C140.221 49.2526 139.219 47.2474 139.219 44.6172V7.50781C139.219 6.36198 140.273 5.25521 142.383 4.1875C144.492 3.09375 147.253 2.22135 150.664 1.57031C154.076 0.893229 157.487 0.554688 160.898 0.554688C168.711 0.554688 174.818 2.15625 179.219 5.35938C183.854 8.71875 186.172 13.4453 186.172 19.5391C186.172 23.0286 185.182 26.0234 183.203 28.5234C181.25 30.9974 178.776 32.7161 175.781 33.6797C175.781 34.513 176.276 34.9297 177.266 34.9297C178.281 34.9297 179.596 34.3307 181.211 33.1328ZM216.266 8.67969V49.0312C215.068 50.0729 213.466 50.9453 211.461 51.6484C209.456 52.3516 207.021 52.7031 204.156 52.7031C201.292 52.7031 198.857 52.0651 196.852 50.7891C194.586 49.4089 193.453 47.4557 193.453 44.9297V4.57812C194.651 3.53646 196.253 2.66406 198.258 1.96094C200.263 1.25781 202.685 0.90625 205.523 0.90625C208.362 0.90625 210.823 1.53125 212.906 2.78125C215.146 4.21354 216.266 6.17969 216.266 8.67969Z" fill="white"/>
</svg>
