<svg xmlns="http://www.w3.org/2000/svg" width="24" height="24" viewBox="0 0 24 24" fill="none">
  <g clip-path="url(#clip0_1987_3038)">
    <path d="M12 0C18.6276 0 24 5.3724 24 12C24 18.6276 18.6276 24 12 24C5.3724 24 0 18.6276 0 12C0 5.3724 5.3724 0 12 0ZM12.9456 6.7752L8.3016 11.5404C8.15165 11.6943 8.06823 11.901 8.06935 12.1158C8.07048 12.3307 8.15605 12.5365 8.3076 12.6888L12.9516 17.3628C13.0264 17.443 13.1165 17.5074 13.2167 17.5521C13.3168 17.5967 13.4249 17.6208 13.5346 17.6229C13.6442 17.625 13.7532 17.6051 13.855 17.5642C13.9567 17.5234 14.0493 17.4625 14.1271 17.3852C14.2048 17.3079 14.2663 17.2157 14.3078 17.1142C14.3493 17.0127 14.3699 16.9039 14.3685 16.7942C14.3671 16.6845 14.3437 16.5763 14.2996 16.4759C14.2555 16.3754 14.1917 16.2849 14.112 16.2096L10.0356 12.1056L14.118 7.9176C14.2695 7.76213 14.353 7.55285 14.3502 7.33579C14.3474 7.11874 14.2585 6.91169 14.103 6.7602C13.9475 6.60871 13.7382 6.52518 13.5212 6.52799C13.3041 6.53081 13.0971 6.61973 12.9456 6.7752Z" fill="white" fill-opacity="0.8"/>
  </g>
  <defs>
    <clipPath id="clip0_1987_3038">
      <rect width="24" height="24" fill="white"/>
    </clipPath>
  </defs>
</svg>