<svg xmlns="http://www.w3.org/2000/svg" width="217" height="53" fill="none"><path d="M23.547 9.03v1.76a206.272 206.272 0 0 0-2.383 5.077c-.547 1.198-.82 2.018-.82 2.46 0 .756.43 1.134 1.29 1.134l7.694-16.873c1.797-1.173 4.245-1.76 7.344-1.76 3.125 0 5.807.86 8.047 2.58 2.446 1.926 3.67 4.557 3.67 7.89 0 2.786-.95 5.534-2.85 8.242-1.903 2.68-4.39 5.01-7.46 6.99-1.435-.807-2.724-1.21-3.87-1.21s-1.72.56-1.72 1.68c1.2.233 2.28.572 3.243 1.015.99.416 2.15 1.237 3.477 2.46l10.39 9.57c-.754 8.438-4.972 12.657-12.655 12.657-2.838 0-5.273-.73-7.304-2.187-2.394-1.693-4.27-4.27-5.623-7.735l-3.633-9.06h-.195c-.86 0-1.29.363-1.29 1.092 0 .47.364 1.602 1.093 3.4.73 1.952 1.823 4.556 3.28 7.81v3.01C20.54 51.478 16.57 52.7 11.36 52.7c-2.813 0-5.222-.637-7.227-1.913-2.266-1.38-3.4-3.347-3.4-5.9V4.58C3.418 2.13 7.493.906 12.963.906c2.84 0 5.247.6 7.226 1.797 2.24 1.432 3.36 3.542 3.36 6.328zm54.39 0v1.76a206.647 206.647 0 0 0-2.382 5.077c-.547 1.198-.82 2.018-.82 2.46 0 .756.43 1.134 1.288 1.134L83.72 2.588c1.796-1.173 4.244-1.76 7.343-1.76 3.124 0 5.807.86 8.046 2.58 2.446 1.926 3.67 4.557 3.67 7.89 0 2.786-.95 5.534-2.85 8.242-1.9 2.68-4.39 5.01-7.46 6.99-1.434-.807-2.724-1.21-3.87-1.21-1.145 0-1.72.56-1.72 1.68 1.2.233 2.28.572 3.244 1.015.99.416 2.148 1.237 3.477 2.46l10.39 9.57c-.754 8.438-4.973 12.657-12.655 12.657-2.84 0-5.273-.73-7.305-2.187-2.395-1.693-4.27-4.27-5.624-7.735l-3.633-9.06h-.195c-.86 0-1.29.363-1.29 1.092 0 .47.366 1.602 1.095 3.4.73 1.952 1.823 4.556 3.28 7.81v3.01C74.93 51.478 70.96 52.7 65.75 52.7c-2.813 0-5.22-.637-7.227-1.913-2.265-1.38-3.398-3.347-3.398-5.9V4.58C57.807 2.13 61.883.906 67.352.906c2.838 0 5.247.6 7.226 1.797 2.24 1.432 3.36 3.542 3.36 6.328zm54.39-.35v40.35c-1.197 1.042-2.798 1.914-4.804 2.617-2.005.704-4.44 1.055-7.304 1.055-2.867 0-5.3-.638-7.307-1.914-2.266-1.38-3.398-3.333-3.398-5.86V4.58c1.198-1.043 2.8-1.915 4.804-2.618 2.005-.703 4.426-1.055 7.265-1.055 2.838 0 5.3.625 7.383 1.875 2.238 1.433 3.358 3.4 3.358 5.9zm28.728 15.547c.104.078.403.117.898.117s.873-.196 1.133-.586c.26-.39.39-1.03.39-1.914v-1.407c0-.937-.117-1.6-.35-1.992-.21-.416-.574-.625-1.095-.625-.493 0-.83.052-1.013.157.026.13.04.35.04.664v5.588zm20.156 8.906 6.76 6.914c-.47 4.062-1.76 7.187-3.867 9.375-2.084 2.187-4.974 3.28-8.672 3.28-2.786 0-5.21-.663-7.265-1.99-2.63-1.668-4.596-4.324-5.898-7.97l-1.407-3.828c-1.094-.026-2.475-.17-4.14-.43-.21.21-.314.495-.314.86 0 .703 1.055 1.12 3.164 1.25l2.227 5.625v3.32c-2.995 2.11-6.836 3.162-11.524 3.162-3.36 0-6.04-.69-8.046-2.07-2.006-1.38-3.008-3.386-3.008-6.016V7.506c0-1.144 1.052-2.25 3.162-3.32 2.11-1.092 4.87-1.965 8.28-2.616A52.458 52.458 0 0 1 160.9.555c7.813 0 13.92 1.6 18.32 4.804 4.636 3.36 6.954 8.084 6.954 14.18 0 3.49-.99 6.482-2.97 8.982-1.952 2.474-4.426 4.193-7.42 5.157 0 .832.494 1.25 1.484 1.25 1.015 0 2.33-.6 3.945-1.798zM216.268 8.68v40.35c-1.198 1.042-2.8 1.914-4.805 2.617-2.004.704-4.44 1.055-7.304 1.055-2.864 0-5.3-.638-7.304-1.914-2.266-1.38-3.4-3.333-3.4-5.86V4.58c1.2-1.043 2.8-1.915 4.806-2.618 2.005-.703 4.427-1.055 7.265-1.055 2.84 0 5.3.625 7.383 1.875 2.24 1.433 3.36 3.4 3.36 5.9z" fill="#fff"/></svg>