<svg width="24" height="24" viewBox="0 0 24 24" fill="none" xmlns="http://www.w3.org/2000/svg">
<path fill-rule="evenodd" clip-rule="evenodd" d="M16.905 5.25H21.75C21.9487 5.25061 22.1391 5.32983 22.2797 5.47035C22.4202 5.61087 22.4994 5.80128 22.5 6V15.75H21V6.75H16.5C16.3764 6.74972 16.2548 6.71873 16.1462 6.65982C16.0375 6.60091 15.9452 6.51592 15.8775 6.4125L14.595 4.5H9.405L8.1225 6.4125C8.05482 6.51592 7.96251 6.60091 7.85385 6.65982C7.74519 6.71873 7.6236 6.74972 7.5 6.75H3V18H9V19.5H2.25C2.05128 19.4994 1.86087 19.4202 1.72035 19.2797C1.57983 19.1391 1.50061 18.9487 1.5 18.75V6C1.50061 5.80128 1.57983 5.61087 1.72035 5.47035C1.86087 5.32983 2.05128 5.25061 2.25 5.25H7.095L8.3775 3.3375C8.44518 3.23408 8.53749 3.14909 8.64615 3.09018C8.75481 3.03127 8.8764 3.00028 9 3H15C15.1236 3.00028 15.2452 3.03127 15.3538 3.09018C15.4625 3.14909 15.5548 3.23408 15.6225 3.3375L16.905 5.25ZM8.15447 14.3422C7.72518 13.6365 7.49873 12.8262 7.49999 12.0002C7.49962 11.2922 7.66635 10.5942 7.98662 9.96289C8.3069 9.33156 8.77167 8.78475 9.34315 8.36693C9.91462 7.94911 10.5766 7.67209 11.2754 7.55839C11.9741 7.44469 12.6898 7.49753 13.3643 7.71262C14.0387 7.9277 14.6529 8.29895 15.1568 8.79616C15.6607 9.29338 16.0401 9.90252 16.2642 10.574C16.4883 11.2456 16.5507 11.9605 16.4464 12.6607C16.342 13.3609 16.0739 14.0265 15.6637 14.6036L19.5 18.4396L18.4394 19.5002L14.6034 15.6641C13.9311 16.144 13.1395 16.4293 12.3156 16.4886C11.4918 16.5478 10.6675 16.3789 9.93338 16.0002C9.19928 15.6216 8.58376 15.0479 8.15447 14.3422ZM9.50559 10.3334C9.17594 10.8268 8.99999 11.4068 8.99999 12.0002C9.00089 12.7955 9.31724 13.5581 9.87966 14.1205C10.4421 14.6829 11.2046 14.9993 12 15.0002C12.5933 15.0002 13.1734 14.8242 13.6667 14.4946C14.1601 14.1649 14.5446 13.6964 14.7716 13.1482C14.9987 12.6 15.0581 11.9968 14.9423 11.4149C14.8266 10.8329 14.5409 10.2984 14.1213 9.87883C13.7018 9.45927 13.1672 9.17355 12.5853 9.05779C12.0033 8.94204 11.4001 9.00145 10.8519 9.22851C10.3038 9.45557 9.83523 9.84009 9.50559 10.3334Z" fill="white"/>
</svg>
