<svg width="25" height="24" viewBox="0 0 25 24" fill="none" xmlns="http://www.w3.org/2000/svg">
<g clip-path="url(#clip0_1274_1927)">
<path d="M15.5 3C16.0046 2.99984 16.4906 3.19041 16.8605 3.5335C17.2305 3.87659 17.4572 4.34684 17.495 4.85L17.5 5C17.5 5.24493 17.59 5.48134 17.7527 5.66437C17.9155 5.84741 18.1397 5.96434 18.383 5.993L18.5 6H19.5C20.2652 5.99996 21.0015 6.29233 21.5583 6.81728C22.115 7.34224 22.4501 8.06011 22.495 8.824L22.5 9V18C22.5 18.7652 22.2077 19.5015 21.6827 20.0583C21.1578 20.615 20.4399 20.9501 19.676 20.995L19.5 21H5.5C4.73479 21 3.99849 20.7077 3.44174 20.1827C2.88499 19.6578 2.54989 18.9399 2.505 18.176L2.5 18V9C2.49996 8.23479 2.79233 7.49849 3.31728 6.94174C3.84224 6.38499 4.56011 6.04989 5.324 6.005L5.5 6H6.5C6.76522 6 7.01957 5.89464 7.20711 5.70711C7.39464 5.51957 7.5 5.26522 7.5 5C7.49984 4.49542 7.69041 4.00943 8.0335 3.63945C8.37659 3.26947 8.84685 3.04284 9.35 3.005L9.5 3H15.5ZM12.5 10C11.7566 9.99994 11.0396 10.2759 10.4881 10.7744C9.93662 11.2729 9.58984 11.9584 9.515 12.698L9.504 12.85L9.5 13L9.504 13.15C9.53335 13.7362 9.73402 14.301 10.0812 14.7743C10.4283 15.2476 10.9067 15.6087 11.457 15.8128C12.0074 16.0169 12.6055 16.0551 13.1773 15.9226C13.7491 15.7901 14.2695 15.4928 14.674 15.0675C15.0786 14.6422 15.3494 14.1076 15.4531 13.5298C15.5568 12.9521 15.4887 12.3566 15.2572 11.8172C15.0258 11.2778 14.6412 10.8181 14.1511 10.4951C13.6611 10.1721 13.087 9.99995 12.5 10Z" fill="#E9E7DF"/>
</g>
<defs>
<clipPath id="clip0_1274_1927">
<rect width="24" height="24" fill="white" transform="translate(0.5)"/>
</clipPath>
</defs>
</svg>
