<svg xmlns="http://www.w3.org/2000/svg" width="24" height="24" viewBox="0 0 24 24" fill="none">
  <g clip-path="url(#clip0_1583_5216)">
    <path d="M12 24C5.3724 24 4.6967e-07 18.6276 1.04907e-06 12C1.62848e-06 5.3724 5.3724 -1.62848e-06 12 -1.04907e-06C18.6276 -4.6967e-07 24 5.3724 24 12C24 18.6276 18.6276 24 12 24ZM11.0544 17.2248L15.6984 12.4596C15.8484 12.3057 15.9318 12.099 15.9306 11.8842C15.9295 11.6693 15.844 11.4635 15.6924 11.3112L11.0484 6.6372C10.9736 6.55699 10.8835 6.49263 10.7833 6.44794C10.6832 6.40325 10.5751 6.37915 10.4654 6.37706C10.3558 6.37498 10.2468 6.39495 10.145 6.43579C10.0433 6.47663 9.95073 6.53752 9.87294 6.61482C9.79515 6.69213 9.7337 6.78428 9.69222 6.8858C9.65074 6.98732 9.6301 7.09614 9.6315 7.2058C9.63291 7.31546 9.65634 7.42371 9.7004 7.52414C9.74446 7.62457 9.80826 7.71511 9.888 7.7904L13.9644 11.8944L9.882 16.0824C9.73051 16.2379 9.64698 16.4472 9.64979 16.6642C9.65261 16.8813 9.74153 17.0883 9.897 17.2398C10.0525 17.3913 10.2618 17.4748 10.4788 17.472C10.6959 17.4692 10.9029 17.3803 11.0544 17.2248Z" fill="white" fill-opacity="0.8"/>
  </g>
  <defs>
    <clipPath id="clip0_1583_5216">
      <rect width="24" height="24" fill="white" transform="translate(24 24) rotate(-180)"/>
    </clipPath>
  </defs>
</svg>