<svg xmlns="http://www.w3.org/2000/svg" width="16" height="17" viewBox="0 0 16 17" fill="none">
    <path d="M2 4.5H3.33333H14" stroke="#FE5E34" stroke-width="1.3" stroke-linecap="round" stroke-linejoin="round"/>
    <path d="M13.3166 4.49992C13.3166 4.14093 13.0256 3.84992 12.6666 3.84992C12.3076 3.84992 12.0166 4.14093 12.0166 4.49992H13.3166ZM3.98325 4.49992C3.98325 4.14093 3.69224 3.84992 3.33325 3.84992C2.97427 3.84992 2.68325 4.14093 2.68325 4.49992H3.98325ZM4.68325 4.49992C4.68325 4.8589 4.97427 5.14992 5.33325 5.14992C5.69224 5.14992 5.98325 4.8589 5.98325 4.49992H4.68325ZM10.0166 4.49992C10.0166 4.8589 10.3076 5.14992 10.6666 5.14992C11.0256 5.14992 11.3166 4.8589 11.3166 4.49992H10.0166ZM12.0166 4.49992V13.8333H13.3166V4.49992H12.0166ZM12.0166 13.8333C12.0166 14.2106 11.7106 14.5166 11.3333 14.5166V15.8166C12.4286 15.8166 13.3166 14.9286 13.3166 13.8333H12.0166ZM11.3333 14.5166H4.66659V15.8166H11.3333V14.5166ZM4.66659 14.5166C4.28919 14.5166 3.98325 14.2106 3.98325 13.8333H2.68325C2.68325 14.9286 3.57122 15.8166 4.66659 15.8166V14.5166ZM3.98325 13.8333V4.49992H2.68325V13.8333H3.98325ZM5.98325 4.49992V3.16659H4.68325V4.49992H5.98325ZM5.98325 3.16659C5.98325 2.78919 6.28919 2.48325 6.66659 2.48325V1.18325C5.57122 1.18325 4.68325 2.07122 4.68325 3.16659H5.98325ZM6.66659 2.48325H9.33325V1.18325H6.66659V2.48325ZM9.33325 2.48325C9.71065 2.48325 10.0166 2.78919 10.0166 3.16659H11.3166C11.3166 2.07122 10.4286 1.18325 9.33325 1.18325V2.48325ZM10.0166 3.16659V4.49992H11.3166V3.16659H10.0166Z" fill="#FE5E34"/>
    <path d="M6.66675 7.83325V11.8333" stroke="#FE5E34" stroke-width="1.3" stroke-linecap="round" stroke-linejoin="round"/>
    <path d="M9.33325 7.83325V11.8333" stroke="#FE5E34" stroke-width="1.3" stroke-linecap="round" stroke-linejoin="round"/>
</svg>