<svg xmlns="http://www.w3.org/2000/svg" width="24" height="24" viewBox="0 0 24 24" fill="none">
    <path d="M12 2C10.845 2 9.73735 2.45881 8.92066 3.2755C8.10397 4.09219 7.64516 5.19986 7.64516 6.35484C7.64516 7.50981 8.10397 8.61748 8.92066 9.43417C9.73735 10.2509 10.845 10.7097 12 10.7097C13.155 10.7097 14.2626 10.2509 15.0793 9.43417C15.896 8.61748 16.3548 7.50981 16.3548 6.35484C16.3548 5.19986 15.896 4.09219 15.0793 3.2755C14.2626 2.45881 13.155 2 12 2ZM7.35484 13.0323C6.19986 13.0323 5.09219 13.4911 4.2755 14.3078C3.45881 15.1245 3 16.2321 3 17.3871V18.7667C3 19.6423 3.63406 20.3879 4.49806 20.5284C9.46606 21.3401 14.5339 21.3401 19.5019 20.5284C19.9201 20.4603 20.3004 20.2457 20.5748 19.923C20.8493 19.6002 21 19.1904 21 18.7667V17.3871C21 16.2321 20.5412 15.1245 19.7245 14.3078C18.9078 13.4911 17.8001 13.0323 16.6452 13.0323H16.2503C16.0355 13.0323 15.8218 13.0671 15.6186 13.1321L14.6129 13.4608C12.915 14.015 11.085 14.015 9.3871 13.4608L8.38142 13.1321C8.17779 13.0659 7.96498 13.0322 7.75084 13.0323H7.35484Z" fill="#E9E7DF"/>
</svg>