<svg width="24" height="24" viewBox="0 0 24 24" fill="none" xmlns="http://www.w3.org/2000/svg">
<path d="M21.7499 20.6894L16.0859 15.0253C17.4469 13.3914 18.1256 11.2956 17.9808 9.17393C17.8359 7.0523 16.8787 5.06818 15.3082 3.63432C13.7378 2.20047 11.675 1.42727 9.54894 1.47558C7.42292 1.5239 5.39736 2.39 3.89365 3.89371C2.38993 5.39742 1.52384 7.42298 1.47552 9.549C1.42721 11.675 2.20041 13.7378 3.63426 15.3083C5.06812 16.8788 7.05224 17.836 9.17387 17.9808C11.2955 18.1257 13.3913 17.447 15.0253 16.0859L20.6894 21.75L21.7499 20.6894ZM2.99993 9.74999C2.99993 8.41497 3.39581 7.10993 4.13751 5.9999C4.87921 4.88986 5.93342 4.0247 7.16682 3.51381C8.40022 3.00292 9.75742 2.86924 11.0668 3.12969C12.3762 3.39014 13.5789 4.03302 14.5229 4.97702C15.4669 5.92103 16.1098 7.12376 16.3702 8.43314C16.6307 9.74251 16.497 11.0997 15.9861 12.3331C15.4752 13.5665 14.6101 14.6207 13.5 15.3624C12.39 16.1041 11.085 16.5 9.74993 16.5C7.96033 16.498 6.2446 15.7862 4.97916 14.5208C3.71371 13.2553 3.00192 11.5396 2.99993 9.74999Z" fill="white"/>
<path d="M6 10H14" stroke="white" stroke-width="1.5"/>
<path d="M10 6L10 14" stroke="white" stroke-width="1.5"/>
</svg>
