<svg width="16" height="16" viewBox="0 0 16 16" fill="none" xmlns="http://www.w3.org/2000/svg">
<g clip-path="url(#clip0_1579_1726)">
<path d="M12.5962 3.40283C10.0619 0.86852 5.93812 0.86852 3.40381 3.40283C0.869491 5.93715 0.869491 10.0609 3.40381 12.5952C5.93812 15.1295 10.0619 15.1295 12.5962 12.5952C15.1305 10.0609 15.1305 5.93715 12.5962 3.40283ZM8.49984 10.8275C8.50154 10.8942 8.48988 10.9606 8.46553 11.0227C8.44118 11.0848 8.40463 11.1415 8.35805 11.1893C8.31147 11.237 8.25579 11.275 8.19429 11.301C8.1328 11.3269 8.06674 11.3403 8 11.3403C7.93326 11.3403 7.8672 11.3269 7.80571 11.301C7.74421 11.275 7.68853 11.237 7.64195 11.1893C7.59537 11.1415 7.55882 11.0848 7.53447 11.0227C7.51012 10.9606 7.49846 10.8942 7.50016 10.8275L7.49994 8.49909L5.17157 8.49886C5.04122 8.49553 4.91734 8.4414 4.82632 8.34803C4.73531 8.25465 4.68437 8.12942 4.68437 7.99903C4.68437 7.86864 4.73531 7.7434 4.82632 7.65003C4.91734 7.55666 5.04122 7.50253 5.17157 7.49919L7.49994 7.49897L7.50016 5.1706C7.5035 5.04025 7.55763 4.91636 7.651 4.82535C7.74438 4.73434 7.86961 4.6834 8 4.6834C8.13039 4.6834 8.25562 4.73434 8.349 4.82535C8.44237 4.91636 8.4965 5.04025 8.49984 5.1706L8.50006 7.49897L10.8284 7.49919C10.9588 7.50253 11.0827 7.55666 11.1737 7.65003C11.2647 7.7434 11.3156 7.86864 11.3156 7.99903C11.3156 8.12942 11.2647 8.25465 11.1737 8.34803C11.0827 8.4414 10.9588 8.49553 10.8284 8.49886L8.50006 8.49909L8.49984 10.8275Z" fill="white" fill-opacity="0.7"/>
</g>
<defs>
<clipPath id="clip0_1579_1726">
<rect width="16" height="16" fill="white"/>
</clipPath>
</defs>
</svg>
